<?xml version="1.0" standalone="no"?>
<!DOCTYPE svg PUBLIC "-//W3C//DTD SVG 1.1//EN" "http://www.w3.org/Graphics/SVG/1.1/DTD/svg11.dtd" >
<svg xmlns="http://www.w3.org/2000/svg" xmlns:xlink="http://www.w3.org/1999/xlink" version="1.1">
<metadata>
Created by FontForge 20150804 at Fri Nov 15 00:07:54 2019
 By cloudconvert
Copyright 2019 Disney Enterprises Inc. This font may not be used without the express permission of The Walt Disney Company.
</metadata>
<defs>
<font id="InspireTWDC-Heavy" horiz-adv-x="561" >
  <font-face 
    font-family="InspireTWDC"
    font-weight="600"
    font-stretch="normal"
    units-per-em="1000"
    panose-1="0 0 0 0 0 0 0 2 0 0"
    ascent="750"
    descent="-250"
    x-height="479"
    cap-height="700"
    bbox="-173 -364 1320 988"
    underline-thickness="92"
    underline-position="-147"
    unicode-range="U+0020-FB02"
  />
<missing-glyph horiz-adv-x="500" 
d="M50 -250v1000h400v-1000h-400zM100 -200h300v900h-300v-900z" />
    <glyph glyph-name="fi" unicode="fi" horiz-adv-x="606" 
d="M102 0v389h-82v90h82v100c0 102 64 149 156 149c31 0 62 -6 77 -10v-95c-4 2 -28 12 -51 12c-36 0 -58 -19 -58 -60v-96h108v-90h-108v-389h-124zM475 548c-45 0 -77 22 -77 64c0 44 32 68 77 68c46 0 79 -24 79 -68c0 -42 -34 -64 -79 -64zM414 0v479h124v-479h-124z
" />
    <glyph glyph-name="fl" unicode="fl" horiz-adv-x="671" 
d="M102 0v389h-82v90h82v100c0 102 64 149 156 149c31 0 62 -6 77 -10v-95c-4 2 -28 12 -51 12c-36 0 -58 -19 -58 -60v-96h108v-90h-108v-389h-124zM571 -7c-108 0 -159 50 -159 168v559h124v-560c0 -50 22 -70 70 -70c26 0 48 6 52 7v-93c-4 -2 -43 -11 -87 -11z" />
    <glyph glyph-name=".notdef" horiz-adv-x="500" 
d="M50 -250v1000h400v-1000h-400zM100 -200h300v900h-300v-900z" />
    <glyph glyph-name="space" unicode=" " horiz-adv-x="281" 
 />
    <glyph glyph-name="uni00A0" unicode="&#xa0;" horiz-adv-x="500" 
 />
    <glyph glyph-name="A" unicode="A" horiz-adv-x="687" 
d="M2 0l306 702h80l297 -702h-140l-51 128h-304l-52 -128h-136zM230 227h225l-111 281z" />
    <glyph glyph-name="Agrave" unicode="&#xc0;" horiz-adv-x="687" 
d="M320 788l-148 147h148l106 -147h-106zM2 0l306 702h80l297 -702h-140l-51 128h-304l-52 -128h-136zM230 227h225l-111 281z" />
    <glyph glyph-name="Aacute" unicode="&#xc1;" horiz-adv-x="687" 
d="M370 788h-106l106 147h148zM2 0l306 702h80l297 -702h-140l-51 128h-304l-52 -128h-136zM230 227h225l-111 281z" />
    <glyph glyph-name="Acircumflex" unicode="&#xc2;" horiz-adv-x="687" 
d="M413 788l-68 73l-68 -73h-100l101 147h135l100 -147h-100zM2 0l306 702h80l297 -702h-140l-51 128h-304l-52 -128h-136zM230 227h225l-111 281z" />
    <glyph glyph-name="Atilde" unicode="&#xc3;" horiz-adv-x="687" 
d="M352 905c17 -14 29 -26 47 -26c22 0 31 18 31 48h81c0 -82 -33 -140 -103 -140c-36 0 -54 14 -70 28c-16 13 -28 26 -47 26c-18 0 -29 -17 -29 -49h-81c0 89 33 140 102 140c33 0 53 -13 69 -27zM2 0l306 702h80l297 -702h-140l-51 128h-304l-52 -128h-136zM230 227h225
l-111 281z" />
    <glyph glyph-name="Adieresis" unicode="&#xc4;" horiz-adv-x="687" 
d="M250 792c-39 0 -67 28 -67 66s28 66 67 66c36 0 64 -28 64 -66s-28 -66 -64 -66zM443 792c-39 0 -67 28 -67 66s28 66 67 66c37 0 65 -28 65 -66s-29 -66 -65 -66zM2 0l306 702h80l297 -702h-140l-51 128h-304l-52 -128h-136zM230 227h225l-111 281z" />
    <glyph glyph-name="Aring" unicode="&#xc5;" horiz-adv-x="687" 
d="M2 0l284 651c-37 20 -60 59 -60 104c0 65 49 116 119 116s119 -51 119 -116c0 -43 -21 -81 -56 -101l277 -654h-140l-51 128h-304l-52 -128h-136zM345 702c29 0 48 23 48 53c0 28 -19 51 -48 51s-48 -23 -48 -51c0 -30 19 -53 48 -53zM230 227h225l-111 281z" />
    <glyph glyph-name="Amacron" unicode="&#x100;" horiz-adv-x="687" 
d="M489 901v-94h-288v94h288zM2 0l306 702h80l297 -702h-140l-51 128h-304l-52 -128h-136zM230 227h225l-111 281z" />
    <glyph glyph-name="Abreve" unicode="&#x102;" horiz-adv-x="687" 
d="M345 782c-99 0 -153 64 -153 153h91c0 -41 24 -63 62 -63s62 23 62 63h91c0 -88 -54 -153 -153 -153zM2 0l306 702h80l297 -702h-140l-51 128h-304l-52 -128h-136zM230 227h225l-111 281z" />
    <glyph glyph-name="Aogonek" unicode="&#x104;" horiz-adv-x="687" 
d="M2 0l306 702h80l297 -702h-26c-44 -30 -67 -72 -67 -116c0 -36 21 -53 55 -53c21 0 35 8 48 14v-70c-17 -9 -40 -19 -77 -19c-81 0 -127 36 -127 104c0 56 32 108 79 140h-25l-51 128h-304l-52 -128h-136zM230 227h225l-111 281z" />
    <glyph glyph-name="B" unicode="B" horiz-adv-x="643" 
d="M76 0v700h248c159 0 245 -72 245 -172c0 -68 -32 -130 -113 -154v-1c100 -21 152 -87 152 -172c0 -116 -99 -201 -277 -201h-255zM206 415h110c88 0 122 47 122 101c0 53 -38 87 -122 87h-110v-188zM206 97h115c107 0 154 47 154 112c0 71 -49 111 -154 111h-115v-223z
" />
    <glyph glyph-name="C" unicode="C" horiz-adv-x="653" 
d="M407 -14c-235 0 -368 147 -368 364c0 212 138 364 366 364c80 0 155 -18 204 -45v-124c-48 34 -115 62 -196 62c-145 0 -237 -101 -237 -257c0 -159 94 -255 239 -255c81 0 147 28 194 61v-124c-50 -26 -122 -46 -202 -46z" />
    <glyph glyph-name="Ccedilla" unicode="&#xc7;" horiz-adv-x="653" 
d="M358 -176c32 0 51 13 51 34c0 32 -37 40 -97 40l50 90c-207 18 -323 159 -323 362c0 212 138 364 366 364c80 0 155 -18 204 -45v-124c-48 34 -115 62 -196 62c-145 0 -237 -101 -237 -257c0 -159 94 -255 239 -255c81 0 147 28 194 61v-124c-43 -22 -102 -40 -168 -45
l-24 -40c57 -8 90 -40 90 -86c0 -67 -53 -103 -135 -103c-43 0 -78 11 -81 12v66c4 -2 35 -12 67 -12z" />
    <glyph glyph-name="Cacute" unicode="&#x106;" horiz-adv-x="653" 
d="M413 788h-106l106 147h148zM407 -14c-235 0 -368 147 -368 364c0 212 138 364 366 364c80 0 155 -18 204 -45v-124c-48 34 -115 62 -196 62c-145 0 -237 -101 -237 -257c0 -159 94 -255 239 -255c81 0 147 28 194 61v-124c-50 -26 -122 -46 -202 -46z" />
    <glyph glyph-name="Ccircumflex" unicode="&#x108;" horiz-adv-x="653" 
d="M456 788l-68 73l-68 -73h-100l101 147h135l100 -147h-100zM407 -14c-235 0 -368 147 -368 364c0 212 138 364 366 364c80 0 155 -18 204 -45v-124c-48 34 -115 62 -196 62c-145 0 -237 -101 -237 -257c0 -159 94 -255 239 -255c81 0 147 28 194 61v-124
c-50 -26 -122 -46 -202 -46z" />
    <glyph glyph-name="Cdotaccent" unicode="&#x10a;" horiz-adv-x="653" 
d="M388 786c-42 0 -72 30 -72 72s30 73 72 73c41 0 72 -31 72 -73s-32 -72 -72 -72zM407 -14c-235 0 -368 147 -368 364c0 212 138 364 366 364c80 0 155 -18 204 -45v-124c-48 34 -115 62 -196 62c-145 0 -237 -101 -237 -257c0 -159 94 -255 239 -255c81 0 147 28 194 61
v-124c-50 -26 -122 -46 -202 -46z" />
    <glyph glyph-name="Ccaron" unicode="&#x10c;" horiz-adv-x="653" 
d="M456 935h100l-100 -147h-135l-101 147h100l68 -72zM407 -14c-235 0 -368 147 -368 364c0 212 138 364 366 364c80 0 155 -18 204 -45v-124c-48 34 -115 62 -196 62c-145 0 -237 -101 -237 -257c0 -159 94 -255 239 -255c81 0 147 28 194 61v-124
c-50 -26 -122 -46 -202 -46z" />
    <glyph glyph-name="D" unicode="D" horiz-adv-x="728" 
d="M76 0v700h198c282 0 415 -142 415 -351c0 -208 -133 -349 -415 -349h-198zM210 99h51c193 0 291 90 291 250c0 166 -98 252 -291 252h-51v-502z" />
    <glyph glyph-name="Dcaron" unicode="&#x10e;" horiz-adv-x="728" 
d="M427 935h100l-100 -147h-135l-101 147h100l68 -72zM76 0v700h198c282 0 415 -142 415 -351c0 -208 -133 -349 -415 -349h-198zM210 99h51c193 0 291 90 291 250c0 166 -98 252 -291 252h-51v-502z" />
    <glyph glyph-name="E" unicode="E" horiz-adv-x="569" 
d="M76 0v700h451v-99h-317v-180h278v-99h-278v-223h317v-99h-451z" />
    <glyph glyph-name="Egrave" unicode="&#xc8;" horiz-adv-x="569" 
d="M281 788l-148 147h148l106 -147h-106zM76 0v700h451v-99h-317v-180h278v-99h-278v-223h317v-99h-451z" />
    <glyph glyph-name="Eacute" unicode="&#xc9;" horiz-adv-x="569" 
d="M331 788h-106l106 147h148zM76 0v700h451v-99h-317v-180h278v-99h-278v-223h317v-99h-451z" />
    <glyph glyph-name="Ecircumflex" unicode="&#xca;" horiz-adv-x="569" 
d="M374 788l-68 73l-68 -73h-100l101 147h135l100 -147h-100zM76 0v700h451v-99h-317v-180h278v-99h-278v-223h317v-99h-451z" />
    <glyph glyph-name="Edieresis" unicode="&#xcb;" horiz-adv-x="569" 
d="M211 792c-39 0 -67 28 -67 66s28 66 67 66c36 0 64 -28 64 -66s-28 -66 -64 -66zM404 792c-39 0 -67 28 -67 66s28 66 67 66c37 0 65 -28 65 -66s-29 -66 -65 -66zM76 0v700h451v-99h-317v-180h278v-99h-278v-223h317v-99h-451z" />
    <glyph glyph-name="Emacron" unicode="&#x112;" horiz-adv-x="569" 
d="M450 901v-94h-288v94h288zM76 0v700h451v-99h-317v-180h278v-99h-278v-223h317v-99h-451z" />
    <glyph glyph-name="Ebreve" unicode="&#x114;" horiz-adv-x="569" 
d="M306 782c-99 0 -153 64 -153 153h91c0 -41 24 -63 62 -63s62 23 62 63h91c0 -88 -54 -153 -153 -153zM76 0v700h451v-99h-317v-180h278v-99h-278v-223h317v-99h-451z" />
    <glyph glyph-name="Edotaccent" unicode="&#x116;" horiz-adv-x="569" 
d="M306 786c-42 0 -72 30 -72 72s30 73 72 73c41 0 72 -31 72 -73s-32 -72 -72 -72zM76 0v700h451v-99h-317v-180h278v-99h-278v-223h317v-99h-451z" />
    <glyph glyph-name="Eogonek" unicode="&#x118;" horiz-adv-x="569" 
d="M76 0v700h451v-99h-317v-180h278v-99h-278v-223h317v-99h-47c-38 -31 -63 -73 -63 -116c0 -36 23 -53 59 -53c22 0 38 7 51 14v-70c-18 -9 -41 -19 -80 -19c-84 0 -130 36 -130 104c0 56 31 108 79 140h-320z" />
    <glyph glyph-name="Ecaron" unicode="&#x11a;" horiz-adv-x="569" 
d="M374 935h100l-100 -147h-135l-101 147h100l68 -72zM76 0v700h451v-99h-317v-180h278v-99h-278v-223h317v-99h-451z" />
    <glyph glyph-name="F" unicode="F" horiz-adv-x="540" 
d="M76 0v700h434v-99h-300v-201h272v-98h-272v-302h-134z" />
    <glyph glyph-name="G" unicode="G" horiz-adv-x="722" 
d="M420 -14c-251 0 -381 143 -381 364c0 216 137 364 379 364c89 0 168 -20 222 -44v-121c-51 31 -129 58 -218 58c-154 0 -246 -95 -246 -257c0 -163 97 -256 253 -256c37 0 75 6 107 16v135h-117v93h240v-307c-57 -25 -144 -45 -239 -45z" />
    <glyph glyph-name="Gcircumflex" unicode="&#x11c;" horiz-adv-x="722" 
d="M459 788l-68 73l-68 -73h-100l101 147h135l100 -147h-100zM420 -14c-251 0 -381 143 -381 364c0 216 137 364 379 364c89 0 168 -20 222 -44v-121c-51 31 -129 58 -218 58c-154 0 -246 -95 -246 -257c0 -163 97 -256 253 -256c37 0 75 6 107 16v135h-117v93h240v-307
c-57 -25 -144 -45 -239 -45z" />
    <glyph glyph-name="Gbreve" unicode="&#x11e;" horiz-adv-x="722" 
d="M391 782c-99 0 -153 64 -153 153h91c0 -41 24 -63 62 -63s62 23 62 63h91c0 -88 -54 -153 -153 -153zM420 -14c-251 0 -381 143 -381 364c0 216 137 364 379 364c89 0 168 -20 222 -44v-121c-51 31 -129 58 -218 58c-154 0 -246 -95 -246 -257c0 -163 97 -256 253 -256
c37 0 75 6 107 16v135h-117v93h240v-307c-57 -25 -144 -45 -239 -45z" />
    <glyph glyph-name="Gdotaccent" unicode="&#x120;" horiz-adv-x="722" 
d="M391 786c-42 0 -72 30 -72 72s30 73 72 73c41 0 72 -31 72 -73s-32 -72 -72 -72zM420 -14c-251 0 -381 143 -381 364c0 216 137 364 379 364c89 0 168 -20 222 -44v-121c-51 31 -129 58 -218 58c-154 0 -246 -95 -246 -257c0 -163 97 -256 253 -256c37 0 75 6 107 16v135
h-117v93h240v-307c-57 -25 -144 -45 -239 -45z" />
    <glyph glyph-name="Gcommaaccent" unicode="&#x122;" horiz-adv-x="722" 
d="M420 -14c-251 0 -381 143 -381 364c0 216 137 364 379 364c89 0 168 -20 222 -44v-121c-51 31 -129 58 -218 58c-154 0 -246 -95 -246 -257c0 -163 97 -256 253 -256c37 0 75 6 107 16v135h-117v93h240v-307c-57 -25 -144 -45 -239 -45zM375 -364l-35 39
c36 29 65 74 66 107c-43 5 -70 40 -70 79c0 45 32 77 77 77c47 0 79 -36 79 -94c0 -64 -33 -144 -117 -208z" />
    <glyph glyph-name="H" unicode="H" horiz-adv-x="741" 
d="M76 0v700h134v-277h321v277h133v-700h-133v317h-321v-317h-134z" />
    <glyph glyph-name="Hcircumflex" unicode="&#x124;" horiz-adv-x="741" 
d="M438 788l-68 73l-68 -73h-100l101 147h135l100 -147h-100zM76 0v700h134v-277h321v277h133v-700h-133v317h-321v-317h-134z" />
    <glyph glyph-name="I" unicode="I" horiz-adv-x="296" 
d="M215 700v-700h-134v700h134z" />
    <glyph glyph-name="Igrave" unicode="&#xcc;" horiz-adv-x="296" 
d="M123 788l-148 147h148l106 -147h-106zM215 700v-700h-134v700h134z" />
    <glyph glyph-name="Iacute" unicode="&#xcd;" horiz-adv-x="296" 
d="M173 788h-106l106 147h148zM215 700v-700h-134v700h134z" />
    <glyph glyph-name="Icircumflex" unicode="&#xce;" horiz-adv-x="296" 
d="M216 788l-68 73l-68 -73h-100l101 147h135l100 -147h-100zM215 700v-700h-134v700h134z" />
    <glyph glyph-name="Idieresis" unicode="&#xcf;" horiz-adv-x="296" 
d="M53 792c-39 0 -67 28 -67 66s28 66 67 66c36 0 64 -28 64 -66s-28 -66 -64 -66zM246 792c-39 0 -67 28 -67 66s28 66 67 66c37 0 65 -28 65 -66s-29 -66 -65 -66zM215 700v-700h-134v700h134z" />
    <glyph glyph-name="Itilde" unicode="&#x128;" horiz-adv-x="296" 
d="M155 905c17 -14 29 -26 47 -26c22 0 31 18 31 48h81c0 -82 -33 -140 -103 -140c-36 0 -54 14 -70 28c-16 13 -28 26 -47 26c-18 0 -29 -17 -29 -49h-81c0 89 33 140 102 140c33 0 53 -13 69 -27zM215 700v-700h-134v700h134z" />
    <glyph glyph-name="Imacron" unicode="&#x12a;" horiz-adv-x="296" 
d="M292 901v-94h-288v94h288zM215 700v-700h-134v700h134z" />
    <glyph glyph-name="Ibreve" unicode="&#x12c;" horiz-adv-x="296" 
d="M148 782c-99 0 -153 64 -153 153h91c0 -41 24 -63 62 -63s62 23 62 63h91c0 -88 -54 -153 -153 -153zM215 700v-700h-134v700h134z" />
    <glyph glyph-name="Iogonek" unicode="&#x12e;" horiz-adv-x="296" 
d="M157 -244c-83 0 -130 36 -130 104c0 56 31 108 78 140h-24v700h134v-700h-23c-40 -30 -64 -72 -64 -116c0 -36 22 -53 58 -53c22 0 38 7 52 14v-70c-18 -9 -42 -19 -81 -19z" />
    <glyph glyph-name="Idotaccent" unicode="&#x130;" horiz-adv-x="296" 
d="M148 786c-42 0 -72 30 -72 72s30 73 72 73c41 0 72 -31 72 -73s-32 -72 -72 -72zM215 700v-700h-134v700h134z" />
    <glyph glyph-name="J" unicode="J" horiz-adv-x="465" 
d="M162 -14c-60 0 -102 12 -134 27v114c36 -21 76 -32 116 -32c76 0 114 45 114 115v490h133v-492c0 -146 -100 -222 -229 -222z" />
    <glyph glyph-name="Jcircumflex" unicode="&#x134;" horiz-adv-x="465" 
d="M395 788l-68 73l-68 -73h-100l101 147h135l100 -147h-100zM162 -14c-60 0 -102 12 -134 27v114c36 -21 76 -32 116 -32c76 0 114 45 114 115v490h133v-492c0 -146 -100 -222 -229 -222z" />
    <glyph glyph-name="K" unicode="K" horiz-adv-x="672" 
d="M76 0v700h134v-354l291 354h147l-266 -303l286 -397h-154l-219 307l-85 -94v-213h-134z" />
    <glyph glyph-name="Kcommaaccent" unicode="&#x136;" horiz-adv-x="672" 
d="M76 0v700h134v-354l291 354h147l-266 -303l286 -397h-154l-219 307l-85 -94v-213h-134zM317 -364l-35 39c36 29 65 74 66 107c-43 5 -70 40 -70 79c0 45 32 77 77 77c47 0 79 -36 79 -94c0 -64 -33 -144 -117 -208z" />
    <glyph glyph-name="L" unicode="L" horiz-adv-x="538" 
d="M76 0v700h134v-601h312v-99h-446z" />
    <glyph glyph-name="Lacute" unicode="&#x139;" horiz-adv-x="538" 
d="M171 788h-106l106 147h148zM76 0v700h134v-601h312v-99h-446z" />
    <glyph glyph-name="Lcommaaccent" unicode="&#x13b;" horiz-adv-x="538" 
d="M76 0v700h134v-601h312v-99h-446zM268 -364l-35 39c36 29 65 74 66 107c-43 5 -70 40 -70 79c0 45 32 77 77 77c47 0 79 -36 79 -94c0 -64 -33 -144 -117 -208z" />
    <glyph glyph-name="Lcaron" unicode="&#x13d;" horiz-adv-x="538" 
d="M444 503h-91l20 217h119zM76 0v700h134v-601h312v-99h-446z" />
    <glyph glyph-name="M" unicode="M" horiz-adv-x="914" 
d="M76 0v702h94l288 -393l286 393h94v-702h-127v463l-230 -311h-48l-230 311v-463h-127z" />
    <glyph glyph-name="N" unicode="N" horiz-adv-x="764" 
d="M591 -2l-388 469v-467h-127v702h97l388 -474v472h127v-702h-97z" />
    <glyph glyph-name="Ntilde" unicode="&#xd1;" horiz-adv-x="764" 
d="M392 905c17 -14 29 -26 47 -26c22 0 31 18 31 48h81c0 -82 -33 -140 -103 -140c-36 0 -54 14 -70 28c-16 13 -28 26 -47 26c-18 0 -29 -17 -29 -49h-81c0 89 33 140 102 140c33 0 53 -13 69 -27zM591 -2l-388 469v-467h-127v702h97l388 -474v472h127v-702h-97z" />
    <glyph glyph-name="Nacute" unicode="&#x143;" horiz-adv-x="764" 
d="M410 788h-106l106 147h148zM591 -2l-388 469v-467h-127v702h97l388 -474v472h127v-702h-97z" />
    <glyph glyph-name="Ncommaaccent" unicode="&#x145;" horiz-adv-x="764" 
d="M591 -2l-388 469v-467h-127v702h97l388 -474v472h127v-702h-97zM349 -364l-35 39c36 29 65 74 66 107c-43 5 -70 40 -70 79c0 45 32 77 77 77c47 0 79 -36 79 -94c0 -64 -33 -144 -117 -208z" />
    <glyph glyph-name="Ncaron" unicode="&#x147;" horiz-adv-x="764" 
d="M453 935h100l-100 -147h-135l-101 147h100l68 -72zM591 -2l-388 469v-467h-127v702h97l388 -474v472h127v-702h-97z" />
    <glyph glyph-name="O" unicode="O" horiz-adv-x="799" 
d="M399 -14c-215 0 -360 149 -360 363c0 216 145 365 360 365c219 0 361 -149 361 -365c0 -214 -142 -363 -361 -363zM399 94c134 0 223 103 223 255c0 153 -89 257 -223 257c-133 0 -222 -102 -222 -257c0 -153 89 -255 222 -255z" />
    <glyph glyph-name="Ograve" unicode="&#xd2;" horiz-adv-x="799" 
d="M375 788l-148 147h148l106 -147h-106zM399 -14c-215 0 -360 149 -360 363c0 216 145 365 360 365c219 0 361 -149 361 -365c0 -214 -142 -363 -361 -363zM399 94c134 0 223 103 223 255c0 153 -89 257 -223 257c-133 0 -222 -102 -222 -257c0 -153 89 -255 222 -255z" />
    <glyph glyph-name="Oacute" unicode="&#xd3;" horiz-adv-x="799" 
d="M425 788h-106l106 147h148zM399 -14c-215 0 -360 149 -360 363c0 216 145 365 360 365c219 0 361 -149 361 -365c0 -214 -142 -363 -361 -363zM399 94c134 0 223 103 223 255c0 153 -89 257 -223 257c-133 0 -222 -102 -222 -257c0 -153 89 -255 222 -255z" />
    <glyph glyph-name="Ocircumflex" unicode="&#xd4;" horiz-adv-x="799" 
d="M468 788l-68 73l-68 -73h-100l101 147h135l100 -147h-100zM399 -14c-215 0 -360 149 -360 363c0 216 145 365 360 365c219 0 361 -149 361 -365c0 -214 -142 -363 -361 -363zM399 94c134 0 223 103 223 255c0 153 -89 257 -223 257c-133 0 -222 -102 -222 -257
c0 -153 89 -255 222 -255z" />
    <glyph glyph-name="Otilde" unicode="&#xd5;" horiz-adv-x="799" 
d="M406 905c17 -14 29 -26 47 -26c22 0 31 18 31 48h81c0 -82 -33 -140 -103 -140c-36 0 -54 14 -70 28c-16 13 -28 26 -47 26c-18 0 -29 -17 -29 -49h-81c0 89 33 140 102 140c33 0 53 -13 69 -27zM399 -14c-215 0 -360 149 -360 363c0 216 145 365 360 365
c219 0 361 -149 361 -365c0 -214 -142 -363 -361 -363zM399 94c134 0 223 103 223 255c0 153 -89 257 -223 257c-133 0 -222 -102 -222 -257c0 -153 89 -255 222 -255z" />
    <glyph glyph-name="Odieresis" unicode="&#xd6;" horiz-adv-x="799" 
d="M305 792c-39 0 -67 28 -67 66s28 66 67 66c36 0 64 -28 64 -66s-28 -66 -64 -66zM498 792c-39 0 -67 28 -67 66s28 66 67 66c37 0 65 -28 65 -66s-29 -66 -65 -66zM399 -14c-215 0 -360 149 -360 363c0 216 145 365 360 365c219 0 361 -149 361 -365
c0 -214 -142 -363 -361 -363zM399 94c134 0 223 103 223 255c0 153 -89 257 -223 257c-133 0 -222 -102 -222 -257c0 -153 89 -255 222 -255z" />
    <glyph glyph-name="Omacron" unicode="&#x14c;" horiz-adv-x="799" 
d="M544 901v-94h-288v94h288zM399 -14c-215 0 -360 149 -360 363c0 216 145 365 360 365c219 0 361 -149 361 -365c0 -214 -142 -363 -361 -363zM399 94c134 0 223 103 223 255c0 153 -89 257 -223 257c-133 0 -222 -102 -222 -257c0 -153 89 -255 222 -255z" />
    <glyph glyph-name="Obreve" unicode="&#x14e;" horiz-adv-x="799" 
d="M400 782c-99 0 -153 64 -153 153h91c0 -41 24 -63 62 -63s62 23 62 63h91c0 -88 -54 -153 -153 -153zM399 -14c-215 0 -360 149 -360 363c0 216 145 365 360 365c219 0 361 -149 361 -365c0 -214 -142 -363 -361 -363zM399 94c134 0 223 103 223 255
c0 153 -89 257 -223 257c-133 0 -222 -102 -222 -257c0 -153 89 -255 222 -255z" />
    <glyph glyph-name="Ohungarumlaut" unicode="&#x150;" horiz-adv-x="799" 
d="M329 788h-101l104 147h143zM521 788h-101l104 147h143zM399 -14c-215 0 -360 149 -360 363c0 216 145 365 360 365c219 0 361 -149 361 -365c0 -214 -142 -363 -361 -363zM399 94c134 0 223 103 223 255c0 153 -89 257 -223 257c-133 0 -222 -102 -222 -257
c0 -153 89 -255 222 -255z" />
    <glyph glyph-name="P" unicode="P" horiz-adv-x="611" 
d="M76 0v700h233c179 0 275 -88 275 -229c0 -132 -98 -230 -276 -230h-98v-241h-134zM210 340h81c102 0 158 42 158 131c0 88 -55 130 -157 130h-82v-261z" />
    <glyph glyph-name="Q" unicode="Q" horiz-adv-x="799" 
d="M399 -14c-215 0 -360 149 -360 363c0 216 145 365 360 365c219 0 361 -149 361 -365c0 -103 -33 -190 -91 -254l88 -95h-134l-31 34c-54 -31 -119 -48 -193 -48zM399 94c42 0 79 10 111 29l-108 116l79 61l100 -108c26 42 41 95 41 157c0 153 -89 257 -223 257
c-133 0 -222 -102 -222 -257c0 -153 89 -255 222 -255z" />
    <glyph glyph-name="R" unicode="R" horiz-adv-x="656" 
d="M76 0v700h244c170 0 261 -89 261 -218c0 -89 -47 -166 -133 -196l209 -286h-150l-186 260h-111v-260h-134zM210 358h80c98 0 156 41 156 124c0 82 -58 119 -156 119h-80v-243z" />
    <glyph glyph-name="Racute" unicode="&#x154;" horiz-adv-x="656" 
d="M341 788h-106l106 147h148zM76 0v700h244c170 0 261 -89 261 -218c0 -89 -47 -166 -133 -196l209 -286h-150l-186 260h-111v-260h-134zM210 358h80c98 0 156 41 156 124c0 82 -58 119 -156 119h-80v-243z" />
    <glyph glyph-name="Rcommaaccent" unicode="&#x156;" horiz-adv-x="656" 
d="M76 0v700h244c170 0 261 -89 261 -218c0 -89 -47 -166 -133 -196l209 -286h-150l-186 260h-111v-260h-134zM210 358h80c98 0 156 41 156 124c0 82 -58 119 -156 119h-80v-243zM312 -364l-35 39c36 29 65 74 66 107c-43 5 -70 40 -70 79c0 45 32 77 77 77
c47 0 79 -36 79 -94c0 -64 -33 -144 -117 -208z" />
    <glyph glyph-name="Rcaron" unicode="&#x158;" horiz-adv-x="656" 
d="M384 935h100l-100 -147h-135l-101 147h100l68 -72zM76 0v700h244c170 0 261 -89 261 -218c0 -89 -47 -166 -133 -196l209 -286h-150l-186 260h-111v-260h-134zM210 358h80c98 0 156 41 156 124c0 82 -58 119 -156 119h-80v-243z" />
    <glyph glyph-name="S" unicode="S" horiz-adv-x="548" 
d="M242 -13c-85 0 -154 24 -190 44v118c46 -34 115 -60 188 -60c88 0 132 35 132 98c0 60 -71 91 -153 131c-80 39 -162 96 -162 206c0 117 87 190 237 190c75 0 137 -19 173 -38v-118c-39 26 -99 54 -171 54c-76 0 -115 -28 -115 -80c0 -57 63 -84 134 -118
c103 -50 183 -103 183 -221c0 -125 -97 -206 -256 -206z" />
    <glyph glyph-name="Sacute" unicode="&#x15a;" horiz-adv-x="548" 
d="M303 788h-106l106 147h148zM242 -13c-85 0 -154 24 -190 44v118c46 -34 115 -60 188 -60c88 0 132 35 132 98c0 60 -71 91 -153 131c-80 39 -162 96 -162 206c0 117 87 190 237 190c75 0 137 -19 173 -38v-118c-39 26 -99 54 -171 54c-76 0 -115 -28 -115 -80
c0 -57 63 -84 134 -118c103 -50 183 -103 183 -221c0 -125 -97 -206 -256 -206z" />
    <glyph glyph-name="Scircumflex" unicode="&#x15c;" horiz-adv-x="548" 
d="M346 788l-68 73l-68 -73h-100l101 147h135l100 -147h-100zM242 -13c-85 0 -154 24 -190 44v118c46 -34 115 -60 188 -60c88 0 132 35 132 98c0 60 -71 91 -153 131c-80 39 -162 96 -162 206c0 117 87 190 237 190c75 0 137 -19 173 -38v-118c-39 26 -99 54 -171 54
c-76 0 -115 -28 -115 -80c0 -57 63 -84 134 -118c103 -50 183 -103 183 -221c0 -125 -97 -206 -256 -206z" />
    <glyph glyph-name="Scedilla" unicode="&#x15e;" horiz-adv-x="548" 
d="M207 -176c32 0 51 13 51 34c0 32 -37 40 -97 40l50 90c-71 5 -127 25 -159 43v118c46 -34 115 -60 188 -60c88 0 132 35 132 98c0 60 -71 91 -153 131c-80 39 -162 96 -162 206c0 117 87 190 237 190c75 0 137 -19 173 -38v-118c-39 26 -99 54 -171 54
c-76 0 -115 -28 -115 -80c0 -57 63 -84 134 -118c103 -50 183 -103 183 -221c0 -111 -77 -188 -206 -203l-26 -43c57 -8 90 -40 90 -86c0 -67 -53 -103 -135 -103c-43 0 -78 11 -81 12v66c4 -2 35 -12 67 -12z" />
    <glyph glyph-name="Scaron" unicode="&#x160;" horiz-adv-x="548" 
d="M346 935h100l-100 -147h-135l-101 147h100l68 -72zM242 -13c-85 0 -154 24 -190 44v118c46 -34 115 -60 188 -60c88 0 132 35 132 98c0 60 -71 91 -153 131c-80 39 -162 96 -162 206c0 117 87 190 237 190c75 0 137 -19 173 -38v-118c-39 26 -99 54 -171 54
c-76 0 -115 -28 -115 -80c0 -57 63 -84 134 -118c103 -50 183 -103 183 -221c0 -125 -97 -206 -256 -206z" />
    <glyph glyph-name="Scommaaccent" unicode="&#x218;" horiz-adv-x="548" 
d="M242 -13c-85 0 -154 24 -190 44v118c46 -34 115 -60 188 -60c88 0 132 35 132 98c0 60 -71 91 -153 131c-80 39 -162 96 -162 206c0 117 87 190 237 190c75 0 137 -19 173 -38v-118c-39 26 -99 54 -171 54c-76 0 -115 -28 -115 -80c0 -57 63 -84 134 -118
c103 -50 183 -103 183 -221c0 -125 -97 -206 -256 -206zM215 -364l-35 39c36 29 65 74 66 107c-43 5 -70 40 -70 79c0 45 32 77 77 77c47 0 79 -36 79 -94c0 -64 -33 -144 -117 -208z" />
    <glyph glyph-name="T" unicode="T" horiz-adv-x="575" 
d="M221 0v597h-216v103h565v-103h-216v-597h-133z" />
    <glyph glyph-name="Tcaron" unicode="&#x164;" horiz-adv-x="575" 
d="M356 935h100l-100 -147h-135l-101 147h100l68 -72zM221 0v597h-216v103h565v-103h-216v-597h-133z" />
    <glyph glyph-name="Tcommaaccent" unicode="&#x21a;" horiz-adv-x="575" 
d="M221 0v597h-216v103h565v-103h-216v-597h-133zM250 -364l-35 39c36 29 65 74 66 107c-43 5 -70 40 -70 79c0 45 32 77 77 77c47 0 79 -36 79 -94c0 -64 -33 -144 -117 -208z" />
    <glyph glyph-name="U" unicode="U" horiz-adv-x="731" 
d="M366 -14c-178 0 -293 87 -293 269v445h134v-428c0 -126 52 -178 163 -178c99 0 154 52 154 178v428h134v-445c0 -179 -115 -269 -292 -269z" />
    <glyph glyph-name="Ugrave" unicode="&#xd9;" horiz-adv-x="731" 
d="M339 788l-148 147h148l106 -147h-106zM366 -14c-178 0 -293 87 -293 269v445h134v-428c0 -126 52 -178 163 -178c99 0 154 52 154 178v428h134v-445c0 -179 -115 -269 -292 -269z" />
    <glyph glyph-name="Uacute" unicode="&#xda;" horiz-adv-x="731" 
d="M389 788h-106l106 147h148zM366 -14c-178 0 -293 87 -293 269v445h134v-428c0 -126 52 -178 163 -178c99 0 154 52 154 178v428h134v-445c0 -179 -115 -269 -292 -269z" />
    <glyph glyph-name="Ucircumflex" unicode="&#xdb;" horiz-adv-x="731" 
d="M432 788l-68 73l-68 -73h-100l101 147h135l100 -147h-100zM366 -14c-178 0 -293 87 -293 269v445h134v-428c0 -126 52 -178 163 -178c99 0 154 52 154 178v428h134v-445c0 -179 -115 -269 -292 -269z" />
    <glyph glyph-name="Udieresis" unicode="&#xdc;" horiz-adv-x="731" 
d="M269 792c-39 0 -67 28 -67 66s28 66 67 66c36 0 64 -28 64 -66s-28 -66 -64 -66zM462 792c-39 0 -67 28 -67 66s28 66 67 66c37 0 65 -28 65 -66s-29 -66 -65 -66zM366 -14c-178 0 -293 87 -293 269v445h134v-428c0 -126 52 -178 163 -178c99 0 154 52 154 178v428h134
v-445c0 -179 -115 -269 -292 -269z" />
    <glyph glyph-name="Utilde" unicode="&#x168;" horiz-adv-x="731" 
d="M371 905c17 -14 29 -26 47 -26c22 0 31 18 31 48h81c0 -82 -33 -140 -103 -140c-36 0 -54 14 -70 28c-16 13 -28 26 -47 26c-18 0 -29 -17 -29 -49h-81c0 89 33 140 102 140c33 0 53 -13 69 -27zM366 -14c-178 0 -293 87 -293 269v445h134v-428c0 -126 52 -178 163 -178
c99 0 154 52 154 178v428h134v-445c0 -179 -115 -269 -292 -269z" />
    <glyph glyph-name="Umacron" unicode="&#x16a;" horiz-adv-x="731" 
d="M508 901v-94h-288v94h288zM366 -14c-178 0 -293 87 -293 269v445h134v-428c0 -126 52 -178 163 -178c99 0 154 52 154 178v428h134v-445c0 -179 -115 -269 -292 -269z" />
    <glyph glyph-name="Ubreve" unicode="&#x16c;" horiz-adv-x="731" 
d="M364 782c-99 0 -153 64 -153 153h91c0 -41 24 -63 62 -63s62 23 62 63h91c0 -88 -54 -153 -153 -153zM366 -14c-178 0 -293 87 -293 269v445h134v-428c0 -126 52 -178 163 -178c99 0 154 52 154 178v428h134v-445c0 -179 -115 -269 -292 -269z" />
    <glyph glyph-name="Uring" unicode="&#x16e;" horiz-adv-x="731" 
d="M364 754c-70 0 -119 52 -119 118c0 65 49 116 119 116s119 -51 119 -116c0 -66 -49 -118 -119 -118zM364 819c29 0 48 23 48 53c0 28 -19 51 -48 51s-48 -23 -48 -51c0 -30 19 -53 48 -53zM366 -14c-178 0 -293 87 -293 269v445h134v-428c0 -126 52 -178 163 -178
c99 0 154 52 154 178v428h134v-445c0 -179 -115 -269 -292 -269z" />
    <glyph glyph-name="Uhungarumlaut" unicode="&#x170;" horiz-adv-x="731" 
d="M293 788h-101l104 147h143zM485 788h-101l104 147h143zM366 -14c-178 0 -293 87 -293 269v445h134v-428c0 -126 52 -178 163 -178c99 0 154 52 154 178v428h134v-445c0 -179 -115 -269 -292 -269z" />
    <glyph glyph-name="Uogonek" unicode="&#x172;" horiz-adv-x="728" 
d="M365 -14c-178 0 -293 87 -293 269v445h134v-428c0 -126 52 -178 162 -178c99 0 155 52 155 178v428h133v-445c0 -133 -56 -188 -133 -253c-39 -33 -64 -74 -64 -118c0 -36 22 -53 59 -53c22 0 37 7 51 14v-70c-18 -9 -42 -19 -81 -19c-83 0 -130 36 -130 104
c0 51 26 98 66 130c-18 -2 -38 -4 -59 -4z" />
    <glyph glyph-name="V" unicode="V" horiz-adv-x="664" 
d="M287 -2l-285 702h142l192 -502l190 502h136l-288 -702h-87z" />
    <glyph glyph-name="W" unicode="W" horiz-adv-x="997" 
d="M764 -2h-86l-184 494l-182 -494h-86l-221 702h135l139 -483l173 485h86l179 -486l146 484h129z" />
    <glyph glyph-name="Wcircumflex" unicode="&#x174;" horiz-adv-x="997" 
d="M564 788l-68 73l-68 -73h-100l101 147h135l100 -147h-100zM764 -2h-86l-184 494l-182 -494h-86l-221 702h135l139 -483l173 485h86l179 -486l146 484h129z" />
    <glyph glyph-name="Wgrave" unicode="&#x1e80;" horiz-adv-x="997" 
d="M471 788l-148 147h148l106 -147h-106zM764 -2h-86l-184 494l-182 -494h-86l-221 702h135l139 -483l173 485h86l179 -486l146 484h129z" />
    <glyph glyph-name="Wacute" unicode="&#x1e82;" horiz-adv-x="997" 
d="M521 788h-106l106 147h148zM764 -2h-86l-184 494l-182 -494h-86l-221 702h135l139 -483l173 485h86l179 -486l146 484h129z" />
    <glyph glyph-name="Wdieresis" unicode="&#x1e84;" horiz-adv-x="997" 
d="M401 792c-39 0 -67 28 -67 66s28 66 67 66c36 0 64 -28 64 -66s-28 -66 -64 -66zM594 792c-39 0 -67 28 -67 66s28 66 67 66c37 0 65 -28 65 -66s-29 -66 -65 -66zM764 -2h-86l-184 494l-182 -494h-86l-221 702h135l139 -483l173 485h86l179 -486l146 484h129z" />
    <glyph glyph-name="X" unicode="X" horiz-adv-x="653" 
d="M492 0l-171 261l-166 -261h-142l240 364l-225 336h148l153 -234l151 234h143l-227 -335l244 -365h-148z" />
    <glyph glyph-name="Y" unicode="Y" horiz-adv-x="598" 
d="M232 0v278l-240 422h144l166 -307l164 307h140l-241 -422v-278h-133z" />
    <glyph glyph-name="Yacute" unicode="&#xdd;" horiz-adv-x="598" 
d="M325 788h-106l106 147h148zM232 0v278l-240 422h144l166 -307l164 307h140l-241 -422v-278h-133z" />
    <glyph glyph-name="Ycircumflex" unicode="&#x176;" horiz-adv-x="598" 
d="M368 788l-68 73l-68 -73h-100l101 147h135l100 -147h-100zM232 0v278l-240 422h144l166 -307l164 307h140l-241 -422v-278h-133z" />
    <glyph glyph-name="Ydieresis" unicode="&#x178;" horiz-adv-x="598" 
d="M205 792c-39 0 -67 28 -67 66s28 66 67 66c36 0 64 -28 64 -66s-28 -66 -64 -66zM398 792c-39 0 -67 28 -67 66s28 66 67 66c37 0 65 -28 65 -66s-29 -66 -65 -66zM232 0v278l-240 422h144l166 -307l164 307h140l-241 -422v-278h-133z" />
    <glyph glyph-name="Ygrave" unicode="&#x1ef2;" horiz-adv-x="598" 
d="M275 788l-148 147h148l106 -147h-106zM232 0v278l-240 422h144l166 -307l164 307h140l-241 -422v-278h-133z" />
    <glyph glyph-name="Z" unicode="Z" horiz-adv-x="581" 
d="M36 0v52l326 549h-315v99h483v-54l-326 -547h342v-99h-510z" />
    <glyph glyph-name="Zacute" unicode="&#x179;" horiz-adv-x="581" 
d="M308 788h-106l106 147h148zM36 0v52l326 549h-315v99h483v-54l-326 -547h342v-99h-510z" />
    <glyph glyph-name="Zdotaccent" unicode="&#x17b;" horiz-adv-x="581" 
d="M283 786c-42 0 -72 30 -72 72s30 73 72 73c41 0 72 -31 72 -73s-32 -72 -72 -72zM36 0v52l326 549h-315v99h483v-54l-326 -547h342v-99h-510z" />
    <glyph glyph-name="Zcaron" unicode="&#x17d;" horiz-adv-x="581" 
d="M351 935h100l-100 -147h-135l-101 147h100l68 -72zM36 0v52l326 549h-315v99h483v-54l-326 -547h342v-99h-510z" />
    <glyph glyph-name="AE" unicode="&#xc6;" horiz-adv-x="963" 
d="M470 0v128h-260l-79 -128h-136l444 700h482v-99h-317v-180h278v-99h-278v-223h317v-99h-451zM271 227h199v322z" />
    <glyph glyph-name="Eth" unicode="&#xd0;" horiz-adv-x="757" 
d="M106 0v295h-85v108h85v297h198c282 0 415 -142 415 -351c0 -208 -133 -349 -415 -349h-198zM240 99h51c193 0 291 90 291 250c0 166 -98 252 -291 252h-51v-198h142v-108h-142v-196z" />
    <glyph glyph-name="Oslash" unicode="&#xd8;" horiz-adv-x="799" 
d="M178 0h-133l82 100c-56 63 -88 149 -88 249c0 216 145 365 360 365c74 0 140 -17 194 -48l28 34h134l-82 -100c56 -63 87 -150 87 -251c0 -214 -142 -363 -361 -363c-73 0 -138 17 -192 49zM177 349c0 -57 12 -107 34 -147l306 371c-33 21 -73 33 -118 33
c-133 0 -222 -102 -222 -257zM399 94c134 0 223 103 223 255c0 57 -12 107 -35 148l-305 -371c33 -21 73 -32 117 -32z" />
    <glyph glyph-name="Thorn" unicode="&#xde;" horiz-adv-x="618" 
d="M76 0v700h134v-111h99c180 0 276 -88 276 -229c0 -132 -98 -230 -277 -230h-98v-130h-134zM210 229h81c102 0 158 42 158 131c0 88 -55 130 -157 130h-82v-261z" />
    <glyph glyph-name="Dcroat" unicode="&#x110;" horiz-adv-x="757" 
d="M106 0v295h-85v108h85v297h198c282 0 415 -142 415 -351c0 -208 -133 -349 -415 -349h-198zM240 99h51c193 0 291 90 291 250c0 166 -98 252 -291 252h-51v-198h142v-108h-142v-196z" />
    <glyph glyph-name="Lslash" unicode="&#x141;" horiz-adv-x="567" 
d="M105 0v248l-83 -31v109l83 31v343h134v-293l138 51v-108l-138 -52v-199h312v-99h-446z" />
    <glyph glyph-name="OE" unicode="&#x152;" horiz-adv-x="1011" 
d="M39 351c0 208 133 349 415 349h514v-99h-316v-180h278v-99h-278v-223h316v-99h-514c-282 0 -415 142 -415 351zM518 601h-51c-193 0 -291 -90 -291 -250c0 -166 98 -252 291 -252h51v502z" />
    <glyph glyph-name="Delta" unicode="&#x394;" horiz-adv-x="687" 
d="M2 0l306 702h80l297 -702h-683zM178 99h328l-162 409z" />
    <glyph glyph-name="Delta" unicode="&#x2206;" horiz-adv-x="687" 
d="M2 0l306 702h80l297 -702h-683zM178 99h328l-162 409z" />
    <glyph glyph-name="a" unicode="a" horiz-adv-x="524" 
d="M192 -7c-90 0 -159 52 -159 151c0 84 73 150 201 150c35 0 64 -4 90 -12v36c0 53 -28 85 -104 85c-81 0 -137 -31 -148 -37v94c11 6 75 32 169 32c133 0 205 -55 205 -162v-195c0 -42 16 -58 40 -58c12 0 21 3 23 4v-74s-25 -13 -75 -13c-55 0 -85 24 -97 66
c-33 -44 -73 -67 -145 -67zM233 80c41 0 72 19 91 46v89c-17 5 -36 7 -62 7c-72 0 -101 -34 -101 -73c0 -45 27 -69 72 -69z" />
    <glyph glyph-name="agrave" unicode="&#xe0;" horiz-adv-x="524" 
d="M226 567l-148 147h148l106 -147h-106zM192 -7c-90 0 -159 52 -159 151c0 84 73 150 201 150c35 0 64 -4 90 -12v36c0 53 -28 85 -104 85c-81 0 -137 -31 -148 -37v94c11 6 75 32 169 32c133 0 205 -55 205 -162v-195c0 -42 16 -58 40 -58c12 0 21 3 23 4v-74
s-25 -13 -75 -13c-55 0 -85 24 -97 66c-33 -44 -73 -67 -145 -67zM233 80c41 0 72 19 91 46v89c-17 5 -36 7 -62 7c-72 0 -101 -34 -101 -73c0 -45 27 -69 72 -69z" />
    <glyph glyph-name="aacute" unicode="&#xe1;" horiz-adv-x="524" 
d="M276 567h-106l106 147h148zM192 -7c-90 0 -159 52 -159 151c0 84 73 150 201 150c35 0 64 -4 90 -12v36c0 53 -28 85 -104 85c-81 0 -137 -31 -148 -37v94c11 6 75 32 169 32c133 0 205 -55 205 -162v-195c0 -42 16 -58 40 -58c12 0 21 3 23 4v-74s-25 -13 -75 -13
c-55 0 -85 24 -97 66c-33 -44 -73 -67 -145 -67zM233 80c41 0 72 19 91 46v89c-17 5 -36 7 -62 7c-72 0 -101 -34 -101 -73c0 -45 27 -69 72 -69z" />
    <glyph glyph-name="acircumflex" unicode="&#xe2;" horiz-adv-x="524" 
d="M319 567l-68 73l-68 -73h-100l101 147h135l100 -147h-100zM192 -7c-90 0 -159 52 -159 151c0 84 73 150 201 150c35 0 64 -4 90 -12v36c0 53 -28 85 -104 85c-81 0 -137 -31 -148 -37v94c11 6 75 32 169 32c133 0 205 -55 205 -162v-195c0 -42 16 -58 40 -58
c12 0 21 3 23 4v-74s-25 -13 -75 -13c-55 0 -85 24 -97 66c-33 -44 -73 -67 -145 -67zM233 80c41 0 72 19 91 46v89c-17 5 -36 7 -62 7c-72 0 -101 -34 -101 -73c0 -45 27 -69 72 -69z" />
    <glyph glyph-name="atilde" unicode="&#xe3;" horiz-adv-x="524" 
d="M258 684c17 -14 29 -26 47 -26c22 0 31 18 31 48h81c0 -82 -33 -140 -103 -140c-36 0 -54 14 -70 28c-16 13 -28 26 -47 26c-18 0 -29 -17 -29 -49h-81c0 89 33 140 102 140c33 0 53 -13 69 -27zM192 -7c-90 0 -159 52 -159 151c0 84 73 150 201 150c35 0 64 -4 90 -12
v36c0 53 -28 85 -104 85c-81 0 -137 -31 -148 -37v94c11 6 75 32 169 32c133 0 205 -55 205 -162v-195c0 -42 16 -58 40 -58c12 0 21 3 23 4v-74s-25 -13 -75 -13c-55 0 -85 24 -97 66c-33 -44 -73 -67 -145 -67zM233 80c41 0 72 19 91 46v89c-17 5 -36 7 -62 7
c-72 0 -101 -34 -101 -73c0 -45 27 -69 72 -69z" />
    <glyph glyph-name="adieresis" unicode="&#xe4;" horiz-adv-x="524" 
d="M156 571c-39 0 -67 28 -67 66s28 66 67 66c36 0 64 -28 64 -66s-28 -66 -64 -66zM349 571c-39 0 -67 28 -67 66s28 66 67 66c37 0 65 -28 65 -66s-29 -66 -65 -66zM192 -7c-90 0 -159 52 -159 151c0 84 73 150 201 150c35 0 64 -4 90 -12v36c0 53 -28 85 -104 85
c-81 0 -137 -31 -148 -37v94c11 6 75 32 169 32c133 0 205 -55 205 -162v-195c0 -42 16 -58 40 -58c12 0 21 3 23 4v-74s-25 -13 -75 -13c-55 0 -85 24 -97 66c-33 -44 -73 -67 -145 -67zM233 80c41 0 72 19 91 46v89c-17 5 -36 7 -62 7c-72 0 -101 -34 -101 -73
c0 -45 27 -69 72 -69z" />
    <glyph glyph-name="aring" unicode="&#xe5;" horiz-adv-x="524" 
d="M253 535c-70 0 -119 52 -119 118c0 65 49 116 119 116s119 -51 119 -116c0 -66 -49 -118 -119 -118zM253 600c29 0 48 23 48 53c0 28 -19 51 -48 51s-48 -23 -48 -51c0 -30 19 -53 48 -53zM192 -7c-90 0 -159 52 -159 151c0 84 73 150 201 150c35 0 64 -4 90 -12v36
c0 53 -28 85 -104 85c-81 0 -137 -31 -148 -37v94c11 6 75 32 169 32c133 0 205 -55 205 -162v-195c0 -42 16 -58 40 -58c12 0 21 3 23 4v-74s-25 -13 -75 -13c-55 0 -85 24 -97 66c-33 -44 -73 -67 -145 -67zM233 80c41 0 72 19 91 46v89c-17 5 -36 7 -62 7
c-72 0 -101 -34 -101 -73c0 -45 27 -69 72 -69z" />
    <glyph glyph-name="amacron" unicode="&#x101;" horiz-adv-x="524" 
d="M395 680v-94h-288v94h288zM192 -7c-90 0 -159 52 -159 151c0 84 73 150 201 150c35 0 64 -4 90 -12v36c0 53 -28 85 -104 85c-81 0 -137 -31 -148 -37v94c11 6 75 32 169 32c133 0 205 -55 205 -162v-195c0 -42 16 -58 40 -58c12 0 21 3 23 4v-74s-25 -13 -75 -13
c-55 0 -85 24 -97 66c-33 -44 -73 -67 -145 -67zM233 80c41 0 72 19 91 46v89c-17 5 -36 7 -62 7c-72 0 -101 -34 -101 -73c0 -45 27 -69 72 -69z" />
    <glyph glyph-name="abreve" unicode="&#x103;" horiz-adv-x="524" 
d="M251 561c-99 0 -153 64 -153 153h91c0 -41 24 -63 62 -63s62 23 62 63h91c0 -88 -54 -153 -153 -153zM192 -7c-90 0 -159 52 -159 151c0 84 73 150 201 150c35 0 64 -4 90 -12v36c0 53 -28 85 -104 85c-81 0 -137 -31 -148 -37v94c11 6 75 32 169 32
c133 0 205 -55 205 -162v-195c0 -42 16 -58 40 -58c12 0 21 3 23 4v-74s-25 -13 -75 -13c-55 0 -85 24 -97 66c-33 -44 -73 -67 -145 -67zM233 80c41 0 72 19 91 46v89c-17 5 -36 7 -62 7c-72 0 -101 -34 -101 -73c0 -45 27 -69 72 -69z" />
    <glyph glyph-name="aogonek" unicode="&#x105;" horiz-adv-x="524" 
d="M192 -7c-90 0 -159 52 -159 151c0 84 73 150 201 150c35 0 64 -4 90 -12v36c0 53 -28 85 -104 85c-81 0 -137 -31 -148 -37v94c11 6 75 32 169 32c133 0 205 -55 205 -162v-193c0 -42 16 -58 40 -58c12 0 21 3 23 4v-74c-53 -21 -98 -66 -98 -125c0 -36 21 -53 55 -53
c18 0 31 4 42 11v-71c-15 -8 -37 -15 -72 -15c-80 0 -126 36 -126 104c0 56 34 108 83 141c-31 10 -48 31 -56 59c-33 -44 -73 -67 -145 -67zM233 80c41 0 72 19 91 46v89c-17 5 -36 7 -62 7c-72 0 -102 -34 -102 -73c0 -45 27 -69 73 -69z" />
    <glyph glyph-name="b" unicode="b" horiz-adv-x="579" 
d="M314 -11c-66 0 -111 25 -146 67c-5 -32 -11 -56 -11 -56h-103c0 6 6 58 6 118v602h123v-280c34 28 84 51 145 51c134 0 213 -105 213 -249s-93 -253 -227 -253zM283 80c80 0 133 58 133 166c0 106 -50 152 -131 152c-43 0 -77 -19 -102 -40v-231c17 -17 48 -47 100 -47z
" />
    <glyph glyph-name="c" unicode="c" horiz-adv-x="485" 
d="M294 -12c-152 0 -257 96 -257 251c0 153 101 252 259 252c61 0 116 -15 145 -31v-108c-26 19 -69 42 -129 42c-95 0 -147 -58 -147 -153c0 -100 53 -155 146 -155c61 0 103 21 130 42v-109c-33 -18 -85 -31 -147 -31z" />
    <glyph glyph-name="ccedilla" unicode="&#xe7;" horiz-adv-x="485" 
d="M242 -176c32 0 51 13 51 34c0 32 -37 40 -97 40l52 93c-127 18 -211 109 -211 248c0 153 101 252 259 252c61 0 116 -15 145 -31v-108c-26 19 -69 42 -129 42c-95 0 -147 -58 -147 -153c0 -100 53 -155 146 -155c61 0 103 21 130 42v-109c-27 -15 -67 -26 -115 -30
l-25 -42c57 -8 90 -40 90 -86c0 -67 -53 -103 -135 -103c-43 0 -78 11 -81 12v66c4 -2 35 -12 67 -12z" />
    <glyph glyph-name="cacute" unicode="&#x107;" horiz-adv-x="485" 
d="M312 567h-106l106 147h148zM294 -12c-152 0 -257 96 -257 251c0 153 101 252 259 252c61 0 116 -15 145 -31v-108c-26 19 -69 42 -129 42c-95 0 -147 -58 -147 -153c0 -100 53 -155 146 -155c61 0 103 21 130 42v-109c-33 -18 -85 -31 -147 -31z" />
    <glyph glyph-name="ccircumflex" unicode="&#x109;" horiz-adv-x="485" 
d="M355 567l-68 73l-68 -73h-100l101 147h135l100 -147h-100zM294 -12c-152 0 -257 96 -257 251c0 153 101 252 259 252c61 0 116 -15 145 -31v-108c-26 19 -69 42 -129 42c-95 0 -147 -58 -147 -153c0 -100 53 -155 146 -155c61 0 103 21 130 42v-109
c-33 -18 -85 -31 -147 -31z" />
    <glyph glyph-name="cdotaccent" unicode="&#x10b;" horiz-adv-x="485" 
d="M290 565c-42 0 -72 30 -72 72s30 73 72 73c41 0 72 -31 72 -73s-32 -72 -72 -72zM294 -12c-152 0 -257 96 -257 251c0 153 101 252 259 252c61 0 116 -15 145 -31v-108c-26 19 -69 42 -129 42c-95 0 -147 -58 -147 -153c0 -100 53 -155 146 -155c61 0 103 21 130 42v-109
c-33 -18 -85 -31 -147 -31z" />
    <glyph glyph-name="ccaron" unicode="&#x10d;" horiz-adv-x="485" 
d="M358 714h100l-100 -147h-135l-101 147h100l68 -72zM294 -12c-152 0 -257 96 -257 251c0 153 101 252 259 252c61 0 116 -15 145 -31v-108c-26 19 -69 42 -129 42c-95 0 -147 -58 -147 -153c0 -100 53 -155 146 -155c61 0 103 21 130 42v-109c-33 -18 -85 -31 -147 -31z
" />
    <glyph glyph-name="d" unicode="d" horiz-adv-x="578" 
d="M253 -12c-132 0 -214 99 -214 244c0 151 93 259 227 259c62 0 99 -22 130 -51v280h124v-601c0 -61 5 -113 6 -119h-105s-6 26 -9 56c-36 -40 -86 -68 -159 -68zM291 79c46 0 81 22 105 47v228c-20 16 -52 44 -102 44c-81 0 -130 -57 -130 -162c0 -108 47 -157 127 -157z
" />
    <glyph glyph-name="dcaron" unicode="&#x10f;" horiz-adv-x="717" 
d="M253 -12c-132 0 -214 99 -214 244c0 151 93 259 227 259c62 0 99 -22 130 -51v280h124v-601c0 -61 5 -113 6 -119h-105s-6 26 -9 56c-36 -40 -86 -68 -159 -68zM698 503h-91l20 217h119zM291 79c46 0 81 22 105 47v228c-20 16 -52 44 -102 44c-81 0 -130 -57 -130 -162
c0 -108 47 -157 127 -157z" />
    <glyph glyph-name="e" unicode="e" horiz-adv-x="549" 
d="M303 -12c-162 0 -265 99 -265 253c0 146 98 250 246 250c133 0 224 -89 224 -219c0 -25 -4 -58 -4 -61h-341c9 -82 57 -128 157 -128c59 0 114 16 163 50v-94c-47 -33 -109 -51 -180 -51zM164 290h227c2 67 -40 114 -113 114c-64 0 -110 -49 -114 -114z" />
    <glyph glyph-name="egrave" unicode="&#xe8;" horiz-adv-x="549" 
d="M251 567l-148 147h148l106 -147h-106zM303 -12c-162 0 -265 99 -265 253c0 146 98 250 246 250c133 0 224 -89 224 -219c0 -25 -4 -58 -4 -61h-341c9 -82 57 -128 157 -128c59 0 114 16 163 50v-94c-47 -33 -109 -51 -180 -51zM164 290h227c2 67 -40 114 -113 114
c-64 0 -110 -49 -114 -114z" />
    <glyph glyph-name="eacute" unicode="&#xe9;" horiz-adv-x="549" 
d="M301 567h-106l106 147h148zM303 -12c-162 0 -265 99 -265 253c0 146 98 250 246 250c133 0 224 -89 224 -219c0 -25 -4 -58 -4 -61h-341c9 -82 57 -128 157 -128c59 0 114 16 163 50v-94c-47 -33 -109 -51 -180 -51zM164 290h227c2 67 -40 114 -113 114
c-64 0 -110 -49 -114 -114z" />
    <glyph glyph-name="ecircumflex" unicode="&#xea;" horiz-adv-x="549" 
d="M344 567l-68 73l-68 -73h-100l101 147h135l100 -147h-100zM303 -12c-162 0 -265 99 -265 253c0 146 98 250 246 250c133 0 224 -89 224 -219c0 -25 -4 -58 -4 -61h-341c9 -82 57 -128 157 -128c59 0 114 16 163 50v-94c-47 -33 -109 -51 -180 -51zM164 290h227
c2 67 -40 114 -113 114c-64 0 -110 -49 -114 -114z" />
    <glyph glyph-name="edieresis" unicode="&#xeb;" horiz-adv-x="549" 
d="M181 571c-39 0 -67 28 -67 66s28 66 67 66c36 0 64 -28 64 -66s-28 -66 -64 -66zM374 571c-39 0 -67 28 -67 66s28 66 67 66c37 0 65 -28 65 -66s-29 -66 -65 -66zM303 -12c-162 0 -265 99 -265 253c0 146 98 250 246 250c133 0 224 -89 224 -219c0 -25 -4 -58 -4 -61
h-341c9 -82 57 -128 157 -128c59 0 114 16 163 50v-94c-47 -33 -109 -51 -180 -51zM164 290h227c2 67 -40 114 -113 114c-64 0 -110 -49 -114 -114z" />
    <glyph glyph-name="emacron" unicode="&#x113;" horiz-adv-x="549" 
d="M420 680v-94h-288v94h288zM303 -12c-162 0 -265 99 -265 253c0 146 98 250 246 250c133 0 224 -89 224 -219c0 -25 -4 -58 -4 -61h-341c9 -82 57 -128 157 -128c59 0 114 16 163 50v-94c-47 -33 -109 -51 -180 -51zM164 290h227c2 67 -40 114 -113 114
c-64 0 -110 -49 -114 -114z" />
    <glyph glyph-name="ebreve" unicode="&#x115;" horiz-adv-x="549" 
d="M276 561c-99 0 -153 64 -153 153h91c0 -41 24 -63 62 -63s62 23 62 63h91c0 -88 -54 -153 -153 -153zM303 -12c-162 0 -265 99 -265 253c0 146 98 250 246 250c133 0 224 -89 224 -219c0 -25 -4 -58 -4 -61h-341c9 -82 57 -128 157 -128c59 0 114 16 163 50v-94
c-47 -33 -109 -51 -180 -51zM164 290h227c2 67 -40 114 -113 114c-64 0 -110 -49 -114 -114z" />
    <glyph glyph-name="edotaccent" unicode="&#x117;" horiz-adv-x="549" 
d="M276 565c-42 0 -72 30 -72 72s30 73 72 73c41 0 72 -31 72 -73s-32 -72 -72 -72zM303 -12c-162 0 -265 99 -265 253c0 146 98 250 246 250c133 0 224 -89 224 -219c0 -25 -4 -58 -4 -61h-341c9 -82 57 -128 157 -128c59 0 114 16 163 50v-94c-47 -33 -109 -51 -180 -51z
M164 290h227c2 67 -40 114 -113 114c-64 0 -110 -49 -114 -114z" />
    <glyph glyph-name="eogonek" unicode="&#x119;" horiz-adv-x="548" 
d="M303 -12c-162 0 -265 99 -265 253c0 146 98 250 246 250c133 0 224 -89 224 -219c0 -21 -4 -61 -4 -61h-341c9 -83 57 -128 157 -128c59 0 114 16 163 50v-94c-25 -18 -40 -21 -68 -39c-46 -30 -67 -74 -67 -116c0 -36 22 -53 59 -53c22 0 37 7 51 14v-70
c-18 -9 -42 -19 -81 -19c-83 0 -130 36 -130 104c0 50 25 96 64 128h-8zM164 290h227c2 66 -40 114 -113 114c-64 0 -110 -50 -114 -114z" />
    <glyph glyph-name="ecaron" unicode="&#x11b;" horiz-adv-x="549" 
d="M344 714h100l-100 -147h-135l-101 147h100l68 -72zM303 -12c-162 0 -265 99 -265 253c0 146 98 250 246 250c133 0 224 -89 224 -219c0 -25 -4 -58 -4 -61h-341c9 -82 57 -128 157 -128c59 0 114 16 163 50v-94c-47 -33 -109 -51 -180 -51zM164 290h227
c2 67 -40 114 -113 114c-64 0 -110 -49 -114 -114z" />
    <glyph glyph-name="f" unicode="f" horiz-adv-x="351" 
d="M102 0v389h-82v90h82v100c0 102 64 149 156 149c37 0 74 -6 91 -10v-95c-4 2 -35 12 -65 12c-36 0 -58 -19 -58 -60v-96h116v-90h-116v-389h-124z" />
    <glyph glyph-name="g" unicode="g" horiz-adv-x="577" 
d="M270 -244c-94 0 -171 33 -199 55v109c30 -23 97 -66 186 -66c92 0 139 43 139 137v46c-33 -29 -74 -44 -128 -44c-149 0 -229 98 -229 241s89 257 227 257c75 0 108 -28 146 -65c3 26 8 47 10 53h105c-1 -6 -7 -51 -7 -115v-374c0 -152 -98 -234 -250 -234zM290 84
c51 0 85 22 106 45v222c-17 14 -46 46 -104 46c-76 0 -128 -58 -128 -163c0 -97 43 -150 126 -150z" />
    <glyph glyph-name="gcircumflex" unicode="&#x11d;" horiz-adv-x="577" 
d="M357 567l-68 73l-68 -73h-100l101 147h135l100 -147h-100zM270 -244c-94 0 -171 33 -199 55v109c30 -23 97 -66 186 -66c92 0 139 43 139 137v46c-33 -29 -74 -44 -128 -44c-149 0 -229 98 -229 241s89 257 227 257c75 0 108 -28 146 -65c3 26 8 47 10 53h105
c-1 -6 -7 -51 -7 -115v-374c0 -152 -98 -234 -250 -234zM290 84c51 0 85 22 106 45v222c-17 14 -46 46 -104 46c-76 0 -128 -58 -128 -163c0 -97 43 -150 126 -150z" />
    <glyph glyph-name="gbreve" unicode="&#x11f;" horiz-adv-x="577" 
d="M289 561c-99 0 -153 64 -153 153h91c0 -41 24 -63 62 -63s62 23 62 63h91c0 -88 -54 -153 -153 -153zM270 -244c-94 0 -171 33 -199 55v109c30 -23 97 -66 186 -66c92 0 139 43 139 137v46c-33 -29 -74 -44 -128 -44c-149 0 -229 98 -229 241s89 257 227 257
c75 0 108 -28 146 -65c3 26 8 47 10 53h105c-1 -6 -7 -51 -7 -115v-374c0 -152 -98 -234 -250 -234zM290 84c51 0 85 22 106 45v222c-17 14 -46 46 -104 46c-76 0 -128 -58 -128 -163c0 -97 43 -150 126 -150z" />
    <glyph glyph-name="gdotaccent" unicode="&#x121;" horiz-adv-x="577" 
d="M289 565c-42 0 -72 30 -72 72s30 73 72 73c41 0 72 -31 72 -73s-32 -72 -72 -72zM270 -244c-94 0 -171 33 -199 55v109c30 -23 97 -66 186 -66c92 0 139 43 139 137v46c-33 -29 -74 -44 -128 -44c-149 0 -229 98 -229 241s89 257 227 257c75 0 108 -28 146 -65
c3 26 8 47 10 53h105c-1 -6 -7 -51 -7 -115v-374c0 -152 -98 -234 -250 -234zM290 84c51 0 85 22 106 45v222c-17 14 -46 46 -104 46c-76 0 -128 -58 -128 -163c0 -97 43 -150 126 -150z" />
    <glyph glyph-name="gcommaaccent" unicode="&#x123;" horiz-adv-x="577" 
d="M327 842l35 -39c-36 -29 -65 -74 -66 -107c43 -4 70 -39 70 -79c0 -44 -32 -77 -77 -77c-47 0 -79 36 -79 94c0 64 33 144 117 208zM270 -244c-94 0 -171 33 -199 55v109c30 -23 97 -66 186 -66c92 0 139 43 139 137v46c-33 -29 -74 -44 -128 -44
c-149 0 -229 98 -229 241s89 257 227 257c75 0 108 -28 146 -65c3 26 8 47 10 53h105c-1 -6 -7 -51 -7 -115v-374c0 -152 -98 -234 -250 -234zM290 84c51 0 85 22 106 45v222c-17 14 -46 46 -104 46c-76 0 -128 -58 -128 -163c0 -97 43 -150 126 -150z" />
    <glyph glyph-name="h" unicode="h" 
d="M339 491c108 0 163 -74 163 -181v-310h-124v287c0 78 -35 103 -86 103c-48 0 -81 -27 -106 -60v-330h-124v720h124v-313c30 39 73 84 153 84z" />
    <glyph glyph-name="hcircumflex" unicode="&#x125;" 
d="M191 788l-68 73l-68 -73h-100l101 147h135l100 -147h-100zM339 491c108 0 163 -74 163 -181v-310h-124v287c0 78 -35 103 -86 103c-48 0 -81 -27 -106 -60v-330h-124v720h124v-313c30 39 73 84 153 84z" />
    <glyph glyph-name="i" unicode="i" horiz-adv-x="259" 
d="M128 548c-45 0 -77 22 -77 64c0 44 32 68 77 68c46 0 79 -24 79 -68c0 -42 -34 -64 -79 -64zM67 0v479h124v-479h-124z" />
    <glyph glyph-name="igrave" unicode="&#xec;" horiz-adv-x="259" 
d="M104 567l-148 147h148l106 -147h-106zM67 0v479h124v-479h-124z" />
    <glyph glyph-name="iacute" unicode="&#xed;" horiz-adv-x="259" 
d="M154 567h-106l106 147h148zM67 0v479h124v-479h-124z" />
    <glyph glyph-name="icircumflex" unicode="&#xee;" horiz-adv-x="259" 
d="M197 567l-68 73l-68 -73h-100l101 147h135l100 -147h-100zM67 0v479h124v-479h-124z" />
    <glyph glyph-name="idieresis" unicode="&#xef;" horiz-adv-x="259" 
d="M41 574c-37 0 -63 28 -63 66c0 37 26 65 63 65c35 0 61 -28 61 -65c0 -38 -27 -66 -61 -66zM221 574c-37 0 -64 28 -64 66c0 37 27 65 64 65c34 0 61 -28 61 -65c0 -38 -27 -66 -61 -66zM67 0v479h124v-479h-124z" />
    <glyph glyph-name="itilde" unicode="&#x129;" horiz-adv-x="259" 
d="M136 684c17 -14 29 -26 47 -26c22 0 31 18 31 48h81c0 -82 -33 -140 -103 -140c-36 0 -54 14 -70 28c-16 13 -28 26 -47 26c-18 0 -29 -17 -29 -49h-81c0 89 33 140 102 140c33 0 53 -13 69 -27zM67 0v479h124v-479h-124z" />
    <glyph glyph-name="imacron" unicode="&#x12b;" horiz-adv-x="259" 
d="M273 680v-94h-288v94h288zM67 0v479h124v-479h-124z" />
    <glyph glyph-name="ibreve" unicode="&#x12d;" horiz-adv-x="259" 
d="M129 561c-99 0 -153 64 -153 153h91c0 -41 24 -63 62 -63s62 23 62 63h91c0 -88 -54 -153 -153 -153zM67 0v479h124v-479h-124z" />
    <glyph glyph-name="iogonek" unicode="&#x12f;" horiz-adv-x="259" 
d="M129 548c-45 0 -77 22 -77 64c0 44 32 68 77 68c46 0 79 -24 79 -68c0 -42 -34 -64 -79 -64zM68 0v479h124v-479h-19c-41 -31 -64 -72 -64 -116c0 -36 22 -53 59 -53c22 0 37 7 51 14v-70c-18 -9 -42 -19 -81 -19c-83 0 -130 36 -130 104c0 56 32 108 80 140h-20z" />
    <glyph glyph-name="j" unicode="j" horiz-adv-x="259" 
d="M128 548c-45 0 -77 22 -77 64c0 44 32 68 77 68c46 0 79 -24 79 -68c0 -42 -34 -64 -79 -64zM30 -244c-38 0 -74 9 -76 10v91c2 -1 24 -6 47 -6c42 0 66 19 66 68v560h124v-557c0 -117 -52 -166 -161 -166z" />
    <glyph glyph-name="jcircumflex" unicode="&#x135;" horiz-adv-x="259" 
d="M196 567l-68 73l-68 -73h-100l101 147h135l100 -147h-100zM30 -244c-38 0 -74 9 -76 10v91c2 -1 24 -6 47 -6c42 0 66 19 66 68v560h124v-557c0 -117 -52 -166 -161 -166z" />
    <glyph glyph-name="k" unicode="k" horiz-adv-x="533" 
d="M371 479h142l-178 -185l196 -294h-143l-134 211l-68 -71v-140h-124v720h124v-454z" />
    <glyph glyph-name="kcommaaccent" unicode="&#x137;" horiz-adv-x="533" 
d="M371 479h142l-178 -185l196 -294h-143l-134 211l-68 -71v-140h-124v720h124v-454zM243 -364l-35 39c36 29 65 74 66 107c-43 5 -70 40 -70 79c0 45 32 77 77 77c47 0 79 -36 79 -94c0 -64 -33 -144 -117 -208z" />
    <glyph glyph-name="l" unicode="l" horiz-adv-x="322" 
d="M221 -7c-108 0 -159 50 -159 168v559h124v-560c0 -50 22 -70 70 -70c26 0 48 6 52 7v-93c-4 -2 -43 -11 -87 -11z" />
    <glyph glyph-name="lacute" unicode="&#x13a;" horiz-adv-x="322" 
d="M150 788h-106l106 147h148zM221 -7c-108 0 -159 50 -159 168v559h124v-560c0 -50 22 -70 70 -70c26 0 48 6 52 7v-93c-4 -2 -43 -11 -87 -11z" />
    <glyph glyph-name="lcommaaccent" unicode="&#x13c;" horiz-adv-x="322" 
d="M221 -7c-108 0 -159 50 -159 168v559h124v-560c0 -50 22 -70 70 -70c26 0 48 6 52 7v-93c-4 -2 -43 -11 -87 -11zM151 -364l-35 39c36 29 65 74 66 107c-43 5 -70 40 -70 79c0 45 32 77 77 77c47 0 79 -36 79 -94c0 -64 -33 -144 -117 -208z" />
    <glyph glyph-name="lcaron" unicode="&#x13e;" horiz-adv-x="383" 
d="M221 -7c-108 0 -159 50 -159 168v559h124v-560c0 -50 22 -70 70 -70c26 0 48 6 52 7v-93c-4 -2 -43 -11 -87 -11zM364 503h-91l20 217h119z" />
    <glyph glyph-name="m" unicode="m" horiz-adv-x="853" 
d="M794 313v-313h-124v288c0 77 -30 102 -81 102c-46 0 -78 -29 -100 -63v-327h-123v289c0 76 -31 101 -81 101c-42 0 -76 -28 -99 -60v-330h-124v364c0 61 -6 109 -7 115h115c2 -4 8 -35 13 -76c27 36 68 88 154 88c79 0 119 -35 141 -93c32 50 79 93 155 93
c115 0 161 -77 161 -178z" />
    <glyph glyph-name="n" unicode="n" 
d="M62 0v362c0 62 -6 111 -7 117h115c2 -4 8 -34 13 -76c29 38 72 88 156 88c108 0 163 -74 163 -181v-310h-123v287c0 78 -36 103 -87 103c-48 0 -81 -27 -106 -60v-330h-124z" />
    <glyph glyph-name="ntilde" unicode="&#xf1;" 
d="M289 684c17 -14 29 -26 47 -26c22 0 31 18 31 48h81c0 -82 -33 -140 -103 -140c-36 0 -54 14 -70 28c-16 13 -28 26 -47 26c-18 0 -29 -17 -29 -49h-81c0 89 33 140 102 140c33 0 53 -13 69 -27zM62 0v362c0 62 -6 111 -7 117h115c2 -4 8 -34 13 -76c29 38 72 88 156 88
c108 0 163 -74 163 -181v-310h-123v287c0 78 -36 103 -87 103c-48 0 -81 -27 -106 -60v-330h-124z" />
    <glyph glyph-name="nacute" unicode="&#x144;" 
d="M307 567h-106l106 147h148zM62 0v362c0 62 -6 111 -7 117h115c2 -4 8 -34 13 -76c29 38 72 88 156 88c108 0 163 -74 163 -181v-310h-123v287c0 78 -36 103 -87 103c-48 0 -81 -27 -106 -60v-330h-124z" />
    <glyph glyph-name="ncommaaccent" unicode="&#x146;" 
d="M62 0v362c0 62 -6 111 -7 117h115c2 -4 8 -34 13 -76c29 38 72 88 156 88c108 0 163 -74 163 -181v-310h-123v287c0 78 -36 103 -87 103c-48 0 -81 -27 -106 -60v-330h-124zM243 -364l-35 39c36 29 65 74 66 107c-43 5 -70 40 -70 79c0 45 32 77 77 77
c47 0 79 -36 79 -94c0 -64 -33 -144 -117 -208z" />
    <glyph glyph-name="ncaron" unicode="&#x148;" 
d="M350 714h100l-100 -147h-135l-101 147h100l68 -72zM62 0v362c0 62 -6 111 -7 117h115c2 -4 8 -34 13 -76c29 38 72 88 156 88c108 0 163 -74 163 -181v-310h-123v287c0 78 -36 103 -87 103c-48 0 -81 -27 -106 -60v-330h-124z" />
    <glyph glyph-name="o" unicode="o" horiz-adv-x="579" 
d="M291 -12c-157 0 -255 106 -255 254c0 149 99 249 255 249c153 0 251 -100 251 -249c0 -148 -97 -254 -251 -254zM291 90c74 0 126 60 126 152s-53 148 -126 148c-75 0 -129 -56 -129 -148s54 -152 129 -152z" />
    <glyph glyph-name="ograve" unicode="&#xf2;" horiz-adv-x="579" 
d="M266 567l-148 147h148l106 -147h-106zM291 -12c-157 0 -255 106 -255 254c0 149 99 249 255 249c153 0 251 -100 251 -249c0 -148 -97 -254 -251 -254zM291 90c74 0 126 60 126 152s-53 148 -126 148c-75 0 -129 -56 -129 -148s54 -152 129 -152z" />
    <glyph glyph-name="oacute" unicode="&#xf3;" horiz-adv-x="579" 
d="M316 567h-106l106 147h148zM291 -12c-157 0 -255 106 -255 254c0 149 99 249 255 249c153 0 251 -100 251 -249c0 -148 -97 -254 -251 -254zM291 90c74 0 126 60 126 152s-53 148 -126 148c-75 0 -129 -56 -129 -148s54 -152 129 -152z" />
    <glyph glyph-name="ocircumflex" unicode="&#xf4;" horiz-adv-x="579" 
d="M359 567l-68 73l-68 -73h-100l101 147h135l100 -147h-100zM291 -12c-157 0 -255 106 -255 254c0 149 99 249 255 249c153 0 251 -100 251 -249c0 -148 -97 -254 -251 -254zM291 90c74 0 126 60 126 152s-53 148 -126 148c-75 0 -129 -56 -129 -148s54 -152 129 -152z" />
    <glyph glyph-name="otilde" unicode="&#xf5;" horiz-adv-x="579" 
d="M298 684c17 -14 29 -26 47 -26c22 0 31 18 31 48h81c0 -82 -33 -140 -103 -140c-36 0 -54 14 -70 28c-16 13 -28 26 -47 26c-18 0 -29 -17 -29 -49h-81c0 89 33 140 102 140c33 0 53 -13 69 -27zM291 -12c-157 0 -255 106 -255 254c0 149 99 249 255 249
c153 0 251 -100 251 -249c0 -148 -97 -254 -251 -254zM291 90c74 0 126 60 126 152s-53 148 -126 148c-75 0 -129 -56 -129 -148s54 -152 129 -152z" />
    <glyph glyph-name="odieresis" unicode="&#xf6;" horiz-adv-x="579" 
d="M196 571c-39 0 -67 28 -67 66s28 66 67 66c36 0 64 -28 64 -66s-28 -66 -64 -66zM389 571c-39 0 -67 28 -67 66s28 66 67 66c37 0 65 -28 65 -66s-29 -66 -65 -66zM291 -12c-157 0 -255 106 -255 254c0 149 99 249 255 249c153 0 251 -100 251 -249
c0 -148 -97 -254 -251 -254zM291 90c74 0 126 60 126 152s-53 148 -126 148c-75 0 -129 -56 -129 -148s54 -152 129 -152z" />
    <glyph glyph-name="omacron" unicode="&#x14d;" horiz-adv-x="579" 
d="M435 680v-94h-288v94h288zM291 -12c-157 0 -255 106 -255 254c0 149 99 249 255 249c153 0 251 -100 251 -249c0 -148 -97 -254 -251 -254zM291 90c74 0 126 60 126 152s-53 148 -126 148c-75 0 -129 -56 -129 -148s54 -152 129 -152z" />
    <glyph glyph-name="obreve" unicode="&#x14f;" horiz-adv-x="579" 
d="M291 561c-99 0 -153 64 -153 153h91c0 -41 24 -63 62 -63s62 23 62 63h91c0 -88 -54 -153 -153 -153zM291 -12c-157 0 -255 106 -255 254c0 149 99 249 255 249c153 0 251 -100 251 -249c0 -148 -97 -254 -251 -254zM291 90c74 0 126 60 126 152s-53 148 -126 148
c-75 0 -129 -56 -129 -148s54 -152 129 -152z" />
    <glyph glyph-name="ohungarumlaut" unicode="&#x151;" horiz-adv-x="579" 
d="M220 567h-101l104 147h143zM412 567h-101l104 147h143zM291 -12c-157 0 -255 106 -255 254c0 149 99 249 255 249c153 0 251 -100 251 -249c0 -148 -97 -254 -251 -254zM291 90c74 0 126 60 126 152s-53 148 -126 148c-75 0 -129 -56 -129 -148s54 -152 129 -152z" />
    <glyph glyph-name="p" unicode="p" horiz-adv-x="579" 
d="M60 -234v593c0 65 -7 114 -7 120h105s7 -27 11 -57c36 38 77 69 149 69c134 0 223 -103 223 -247c0 -146 -91 -256 -227 -256c-62 0 -100 20 -131 49v-271h-123zM282 75c81 0 133 61 133 169c0 105 -49 154 -131 154c-43 0 -75 -20 -101 -43v-233c25 -25 53 -47 99 -47z
" />
    <glyph glyph-name="q" unicode="q" horiz-adv-x="579" 
d="M397 -234v270c-34 -30 -74 -48 -129 -48c-149 0 -229 99 -229 246c0 143 89 257 227 257c75 0 108 -27 145 -64c3 28 10 52 10 52h106c0 -6 -7 -55 -7 -119v-594h-123zM290 79c51 0 85 25 106 47v225c-17 15 -46 46 -104 46c-76 0 -128 -58 -128 -163
c0 -102 43 -155 126 -155z" />
    <glyph glyph-name="r" unicode="r" horiz-adv-x="392" 
d="M62 0v361c0 53 -4 98 -7 118h115c2 -5 9 -41 13 -77c21 35 67 89 136 89c29 0 49 -7 60 -13v-108c-14 6 -36 15 -74 15c-51 0 -95 -22 -119 -48v-337h-124z" />
    <glyph glyph-name="racute" unicode="&#x155;" horiz-adv-x="392" 
d="M248 567h-106l106 147h148zM62 0v361c0 53 -4 98 -7 118h115c2 -5 9 -41 13 -77c21 35 67 89 136 89c29 0 49 -7 60 -13v-108c-14 6 -36 15 -74 15c-51 0 -95 -22 -119 -48v-337h-124z" />
    <glyph glyph-name="rcommaaccent" unicode="&#x157;" horiz-adv-x="392" 
d="M62 0v361c0 53 -4 98 -7 118h115c2 -5 9 -41 13 -77c21 35 67 89 136 89c29 0 49 -7 60 -13v-108c-14 6 -36 15 -74 15c-51 0 -95 -22 -119 -48v-337h-124zM87 -364l-35 39c36 29 65 74 66 107c-43 5 -70 40 -70 79c0 45 32 77 77 77c47 0 79 -36 79 -94
c0 -64 -33 -144 -117 -208z" />
    <glyph glyph-name="rcaron" unicode="&#x159;" horiz-adv-x="392" 
d="M291 714h100l-100 -147h-135l-101 147h100l68 -72zM62 0v361c0 53 -4 98 -7 118h115c2 -5 9 -41 13 -77c21 35 67 89 136 89c29 0 49 -7 60 -13v-108c-14 6 -36 15 -74 15c-51 0 -95 -22 -119 -48v-337h-124z" />
    <glyph glyph-name="s" unicode="s" horiz-adv-x="446" 
d="M204 -12c-68 0 -130 18 -163 36v96c47 -28 110 -45 160 -45c58 0 87 18 87 54c0 43 -58 52 -118 77c-75 30 -121 68 -121 145c0 87 78 140 189 140c65 0 118 -16 145 -30v-94c-34 22 -90 37 -139 37c-51 0 -76 -16 -76 -45c0 -36 35 -44 102 -71c79 -31 139 -67 139 -151
c0 -91 -80 -149 -205 -149z" />
    <glyph glyph-name="sacute" unicode="&#x15b;" horiz-adv-x="446" 
d="M251 567h-106l106 147h148zM204 -12c-68 0 -130 18 -163 36v96c47 -28 110 -45 160 -45c58 0 87 18 87 54c0 43 -58 52 -118 77c-75 30 -121 68 -121 145c0 87 78 140 189 140c65 0 118 -16 145 -30v-94c-34 22 -90 37 -139 37c-51 0 -76 -16 -76 -45
c0 -36 35 -44 102 -71c79 -31 139 -67 139 -151c0 -91 -80 -149 -205 -149z" />
    <glyph glyph-name="scircumflex" unicode="&#x15d;" horiz-adv-x="446" 
d="M294 567l-68 73l-68 -73h-100l101 147h135l100 -147h-100zM204 -12c-68 0 -130 18 -163 36v96c47 -28 110 -45 160 -45c58 0 87 18 87 54c0 43 -58 52 -118 77c-75 30 -121 68 -121 145c0 87 78 140 189 140c65 0 118 -16 145 -30v-94c-34 22 -90 37 -139 37
c-51 0 -76 -16 -76 -45c0 -36 35 -44 102 -71c79 -31 139 -67 139 -151c0 -91 -80 -149 -205 -149z" />
    <glyph glyph-name="scedilla" unicode="&#x15f;" horiz-adv-x="446" 
d="M166 -176c32 0 51 13 51 34c0 32 -37 40 -97 40l51 91c-55 5 -102 20 -130 35v96c47 -28 110 -45 160 -45c58 0 87 18 87 54c0 43 -58 52 -118 77c-75 30 -121 68 -121 145c0 87 78 140 189 140c65 0 118 -16 145 -30v-94c-34 22 -90 37 -139 37c-51 0 -76 -16 -76 -45
c0 -36 35 -44 102 -71c79 -31 139 -67 139 -151c0 -79 -60 -133 -157 -146l-27 -44c57 -8 90 -40 90 -86c0 -67 -53 -103 -135 -103c-43 0 -78 11 -81 12v66c4 -2 35 -12 67 -12z" />
    <glyph glyph-name="scaron" unicode="&#x161;" horiz-adv-x="446" 
d="M294 714h100l-100 -147h-135l-101 147h100l68 -72zM204 -12c-68 0 -130 18 -163 36v96c47 -28 110 -45 160 -45c58 0 87 18 87 54c0 43 -58 52 -118 77c-75 30 -121 68 -121 145c0 87 78 140 189 140c65 0 118 -16 145 -30v-94c-34 22 -90 37 -139 37
c-51 0 -76 -16 -76 -45c0 -36 35 -44 102 -71c79 -31 139 -67 139 -151c0 -91 -80 -149 -205 -149z" />
    <glyph glyph-name="scommaaccent" unicode="&#x219;" horiz-adv-x="446" 
d="M204 -12c-68 0 -130 18 -163 36v96c47 -28 110 -45 160 -45c58 0 87 18 87 54c0 43 -58 52 -118 77c-75 30 -121 68 -121 145c0 87 78 140 189 140c65 0 118 -16 145 -30v-94c-34 22 -90 37 -139 37c-51 0 -76 -16 -76 -45c0 -36 35 -44 102 -71c79 -31 139 -67 139 -151
c0 -91 -80 -149 -205 -149zM176 -364l-35 39c36 29 65 74 66 107c-43 5 -70 40 -70 79c0 45 32 77 77 77c47 0 79 -36 79 -94c0 -64 -33 -144 -117 -208z" />
    <glyph glyph-name="t" unicode="t" horiz-adv-x="383" 
d="M266 -12c-109 0 -164 50 -164 169v232h-85v90h85v104l124 23v-127h124v-90h-124v-232c0 -52 25 -72 72 -72c24 0 43 5 55 10v-95c-17 -6 -44 -12 -87 -12z" />
    <glyph glyph-name="tcaron" unicode="&#x165;" horiz-adv-x="383" 
d="M376 531h-91l20 217h119zM266 -12c-109 0 -164 50 -164 169v232h-85v90h85v104l124 23v-127h124v-90h-124v-232c0 -52 25 -72 72 -72c24 0 43 5 55 10v-95c-17 -6 -44 -12 -87 -12z" />
    <glyph glyph-name="tcommaaccent" unicode="&#x21b;" horiz-adv-x="383" 
d="M266 -12c-109 0 -164 50 -164 169v232h-85v90h85v104l124 23v-127h124v-90h-124v-232c0 -52 25 -72 72 -72c24 0 43 5 55 10v-95c-17 -6 -44 -12 -87 -12zM188 -364l-35 39c36 29 65 74 66 107c-43 5 -70 40 -70 79c0 45 32 77 77 77c47 0 79 -36 79 -94
c0 -64 -33 -144 -117 -208z" />
    <glyph glyph-name="u" unicode="u" 
d="M224 -12c-112 0 -165 73 -165 178v313h124v-287c0 -76 32 -103 89 -103c45 0 80 27 104 59v331h124v-363c0 -61 6 -110 7 -116h-116c-1 4 -7 32 -12 75c-28 -36 -73 -87 -155 -87z" />
    <glyph glyph-name="ugrave" unicode="&#xf9;" 
d="M254 567l-148 147h148l106 -147h-106zM224 -12c-112 0 -165 73 -165 178v313h124v-287c0 -76 32 -103 89 -103c45 0 80 27 104 59v331h124v-363c0 -61 6 -110 7 -116h-116c-1 4 -7 32 -12 75c-28 -36 -73 -87 -155 -87z" />
    <glyph glyph-name="uacute" unicode="&#xfa;" 
d="M304 567h-106l106 147h148zM224 -12c-112 0 -165 73 -165 178v313h124v-287c0 -76 32 -103 89 -103c45 0 80 27 104 59v331h124v-363c0 -61 6 -110 7 -116h-116c-1 4 -7 32 -12 75c-28 -36 -73 -87 -155 -87z" />
    <glyph glyph-name="ucircumflex" unicode="&#xfb;" 
d="M347 567l-68 73l-68 -73h-100l101 147h135l100 -147h-100zM224 -12c-112 0 -165 73 -165 178v313h124v-287c0 -76 32 -103 89 -103c45 0 80 27 104 59v331h124v-363c0 -61 6 -110 7 -116h-116c-1 4 -7 32 -12 75c-28 -36 -73 -87 -155 -87z" />
    <glyph glyph-name="udieresis" unicode="&#xfc;" 
d="M184 571c-39 0 -67 28 -67 66s28 66 67 66c36 0 64 -28 64 -66s-28 -66 -64 -66zM377 571c-39 0 -67 28 -67 66s28 66 67 66c37 0 65 -28 65 -66s-29 -66 -65 -66zM224 -12c-112 0 -165 73 -165 178v313h124v-287c0 -76 32 -103 89 -103c45 0 80 27 104 59v331h124v-363
c0 -61 6 -110 7 -116h-116c-1 4 -7 32 -12 75c-28 -36 -73 -87 -155 -87z" />
    <glyph glyph-name="utilde" unicode="&#x169;" 
d="M286 684c17 -14 29 -26 47 -26c22 0 31 18 31 48h81c0 -82 -33 -140 -103 -140c-36 0 -54 14 -70 28c-16 13 -28 26 -47 26c-18 0 -29 -17 -29 -49h-81c0 89 33 140 102 140c33 0 53 -13 69 -27zM224 -12c-112 0 -165 73 -165 178v313h124v-287c0 -76 32 -103 89 -103
c45 0 80 27 104 59v331h124v-363c0 -61 6 -110 7 -116h-116c-1 4 -7 32 -12 75c-28 -36 -73 -87 -155 -87z" />
    <glyph glyph-name="umacron" unicode="&#x16b;" 
d="M423 680v-94h-288v94h288zM224 -12c-112 0 -165 73 -165 178v313h124v-287c0 -76 32 -103 89 -103c45 0 80 27 104 59v331h124v-363c0 -61 6 -110 7 -116h-116c-1 4 -7 32 -12 75c-28 -36 -73 -87 -155 -87z" />
    <glyph glyph-name="ubreve" unicode="&#x16d;" 
d="M279 561c-99 0 -153 64 -153 153h91c0 -41 24 -63 62 -63s62 23 62 63h91c0 -88 -54 -153 -153 -153zM224 -12c-112 0 -165 73 -165 178v313h124v-287c0 -76 32 -103 89 -103c45 0 80 27 104 59v331h124v-363c0 -61 6 -110 7 -116h-116c-1 4 -7 32 -12 75
c-28 -36 -73 -87 -155 -87z" />
    <glyph glyph-name="uring" unicode="&#x16f;" 
d="M279 533c-70 0 -119 52 -119 118c0 65 49 116 119 116s119 -51 119 -116c0 -66 -49 -118 -119 -118zM279 598c29 0 48 23 48 53c0 28 -19 51 -48 51s-48 -23 -48 -51c0 -30 19 -53 48 -53zM224 -12c-112 0 -165 73 -165 178v313h124v-287c0 -76 32 -103 89 -103
c45 0 80 27 104 59v331h124v-363c0 -61 6 -110 7 -116h-116c-1 4 -7 32 -12 75c-28 -36 -73 -87 -155 -87z" />
    <glyph glyph-name="uhungarumlaut" unicode="&#x171;" 
d="M208 567h-101l104 147h143zM400 567h-101l104 147h143zM224 -12c-112 0 -165 73 -165 178v313h124v-287c0 -76 32 -103 89 -103c45 0 80 27 104 59v331h124v-363c0 -61 6 -110 7 -116h-116c-1 4 -7 32 -12 75c-28 -36 -73 -87 -155 -87z" />
    <glyph glyph-name="uogonek" unicode="&#x173;" 
d="M224 -12c-112 0 -165 73 -165 178v313h124v-287c0 -76 32 -103 89 -103c45 0 80 27 104 59v331h124v-363c0 -61 6 -110 7 -116h-17c-44 -33 -68 -74 -68 -117c0 -35 18 -52 46 -52c16 0 26 3 37 9v-70c-14 -9 -34 -14 -66 -14c-75 0 -117 36 -117 103c0 55 32 108 84 141
h-15c-1 4 -7 32 -12 75c-28 -36 -73 -87 -155 -87z" />
    <glyph glyph-name="v" unicode="v" horiz-adv-x="509" 
d="M214 -2l-211 481h128l127 -314l123 314h125l-210 -481h-82z" />
    <glyph glyph-name="w" unicode="w" horiz-adv-x="771" 
d="M186 -2l-183 481h126l105 -300l115 300h78l117 -300l103 300h121l-183 -481h-78l-121 316l-122 -316h-78z" />
    <glyph glyph-name="wcircumflex" unicode="&#x175;" horiz-adv-x="771" 
d="M454 567l-68 73l-68 -73h-100l101 147h135l100 -147h-100zM186 -2l-183 481h126l105 -300l115 300h78l117 -300l103 300h121l-183 -481h-78l-121 316l-122 -316h-78z" />
    <glyph glyph-name="wgrave" unicode="&#x1e81;" horiz-adv-x="771" 
d="M361 567l-148 147h148l106 -147h-106zM186 -2l-183 481h126l105 -300l115 300h78l117 -300l103 300h121l-183 -481h-78l-121 316l-122 -316h-78z" />
    <glyph glyph-name="wacute" unicode="&#x1e83;" horiz-adv-x="771" 
d="M411 567h-106l106 147h148zM186 -2l-183 481h126l105 -300l115 300h78l117 -300l103 300h121l-183 -481h-78l-121 316l-122 -316h-78z" />
    <glyph glyph-name="wdieresis" unicode="&#x1e85;" horiz-adv-x="771" 
d="M291 571c-39 0 -67 28 -67 66s28 66 67 66c36 0 64 -28 64 -66s-28 -66 -64 -66zM484 571c-39 0 -67 28 -67 66s28 66 67 66c37 0 65 -28 65 -66s-29 -66 -65 -66zM186 -2l-183 481h126l105 -300l115 300h78l117 -300l103 300h121l-183 -481h-78l-121 316l-122 -316h-78z
" />
    <glyph glyph-name="x" unicode="x" horiz-adv-x="518" 
d="M6 0l189 248l-176 231h141l101 -143l100 143h138l-175 -230l188 -249h-140l-114 160l-115 -160h-137z" />
    <glyph glyph-name="y" unicode="y" horiz-adv-x="509" 
d="M56 -244c-28 0 -49 4 -65 12v96c14 -6 31 -9 60 -9c62 0 108 43 137 123l16 42l-201 459h130l131 -323l120 323h122l-199 -495c-64 -159 -130 -228 -251 -228z" />
    <glyph glyph-name="yacute" unicode="&#xfd;" horiz-adv-x="509" 
d="M287 567h-106l106 147h148zM56 -244c-28 0 -49 4 -65 12v96c14 -6 31 -9 60 -9c62 0 108 43 137 123l16 42l-201 459h130l131 -323l120 323h122l-199 -495c-64 -159 -130 -228 -251 -228z" />
    <glyph glyph-name="ydieresis" unicode="&#xff;" horiz-adv-x="509" 
d="M167 571c-39 0 -67 28 -67 66s28 66 67 66c36 0 64 -28 64 -66s-28 -66 -64 -66zM360 571c-39 0 -67 28 -67 66s28 66 67 66c37 0 65 -28 65 -66s-29 -66 -65 -66zM56 -244c-28 0 -49 4 -65 12v96c14 -6 31 -9 60 -9c62 0 108 43 137 123l16 42l-201 459h130l131 -323
l120 323h122l-199 -495c-64 -159 -130 -228 -251 -228z" />
    <glyph glyph-name="ycircumflex" unicode="&#x177;" horiz-adv-x="509" 
d="M330 567l-68 73l-68 -73h-100l101 147h135l100 -147h-100zM56 -244c-28 0 -49 4 -65 12v96c14 -6 31 -9 60 -9c62 0 108 43 137 123l16 42l-201 459h130l131 -323l120 323h122l-199 -495c-64 -159 -130 -228 -251 -228z" />
    <glyph glyph-name="ygrave" unicode="&#x1ef3;" horiz-adv-x="509" 
d="M237 567l-148 147h148l106 -147h-106zM56 -244c-28 0 -49 4 -65 12v96c14 -6 31 -9 60 -9c62 0 108 43 137 123l16 42l-201 459h130l131 -323l120 323h122l-199 -495c-64 -159 -130 -228 -251 -228z" />
    <glyph glyph-name="z" unicode="z" horiz-adv-x="462" 
d="M31 0v59l236 330h-225v90h384v-59l-237 -330h246v-90h-404z" />
    <glyph glyph-name="zacute" unicode="&#x17a;" horiz-adv-x="462" 
d="M254 567h-106l106 147h148zM31 0v59l236 330h-225v90h384v-59l-237 -330h246v-90h-404z" />
    <glyph glyph-name="zdotaccent" unicode="&#x17c;" horiz-adv-x="462" 
d="M233 565c-42 0 -72 30 -72 72s30 73 72 73c41 0 72 -31 72 -73s-32 -72 -72 -72zM31 0v59l236 330h-225v90h384v-59l-237 -330h246v-90h-404z" />
    <glyph glyph-name="zcaron" unicode="&#x17e;" horiz-adv-x="462" 
d="M302 714h100l-100 -147h-135l-101 147h100l68 -72zM31 0v59l236 330h-225v90h384v-59l-237 -330h246v-90h-404z" />
    <glyph glyph-name="ordfeminine" unicode="&#xaa;" horiz-adv-x="454" 
d="M178 354c-65 0 -115 38 -115 110c0 61 53 109 146 109c25 0 45 -3 63 -8v24c0 37 -20 60 -74 60c-58 0 -97 -23 -106 -28v70c8 4 54 24 122 24c96 0 148 -40 148 -117v-141c0 -29 11 -41 28 -41c8 0 14 3 15 4v-55c-1 -2 -20 -10 -53 -10c-40 0 -61 18 -71 48
c-23 -32 -51 -49 -103 -49zM208 418c29 0 51 15 64 33v63c-11 4 -25 5 -43 5c-52 0 -73 -25 -73 -52c0 -32 19 -49 52 -49zM62 215v63h343v-63h-343z" />
    <glyph glyph-name="ordmasculine" unicode="&#xba;" horiz-adv-x="474" 
d="M237 352c-112 0 -181 76 -181 183c0 106 70 179 181 179c110 0 181 -73 181 -179c0 -107 -71 -183 -181 -183zM237 427c53 0 90 42 90 108c0 65 -38 105 -90 105s-90 -40 -90 -105c0 -66 37 -108 90 -108zM63 212v66h348v-66h-348z" />
    <glyph glyph-name="germandbls" unicode="&#xdf;" horiz-adv-x="602" 
d="M309 635c-53 0 -83 -32 -83 -101v-534h-124v389h-82v90h82v57c0 118 68 192 207 192c131 0 203 -67 203 -166c0 -61 -35 -106 -77 -120v-2c85 -17 129 -100 129 -192c0 -152 -101 -248 -265 -248v101c93 0 141 58 141 147c0 91 -53 141 -140 141v90c58 0 88 31 88 79
c0 47 -29 77 -79 77z" />
    <glyph glyph-name="ae" unicode="&#xe6;" horiz-adv-x="817" 
d="M580 -12c-90 0 -162 33 -206 89c-40 -50 -96 -84 -182 -84c-90 0 -159 52 -159 151c0 84 73 150 201 150c35 0 64 -4 90 -12v36c0 53 -28 85 -104 85c-81 0 -137 -31 -148 -37v94c11 6 75 32 169 32c76 0 132 -18 167 -53c40 33 93 52 154 52c128 0 216 -89 216 -219
c0 -25 -4 -58 -4 -61h-327c9 -83 55 -128 150 -128c57 0 109 17 156 50v-94c-45 -32 -104 -51 -173 -51zM448 290h213c2 66 -37 114 -105 114c-61 0 -104 -50 -108 -114zM160 149c0 -45 27 -69 73 -69c44 0 78 20 105 61c-8 23 -13 48 -15 74c-17 5 -36 7 -61 7
c-72 0 -102 -34 -102 -73z" />
    <glyph glyph-name="eth" unicode="&#xf0;" horiz-adv-x="585" 
d="M289 502l-43 58l54 39c-20 18 -40 32 -59 44l51 70c31 -15 61 -34 87 -56l57 41l45 -62l-46 -32c70 -82 113 -192 113 -328c0 -188 -108 -288 -257 -288c-156 0 -253 103 -253 247c0 142 95 238 236 238c63 0 108 -24 137 -52c-12 47 -34 89 -61 124zM291 90
c74 0 126 57 126 145c0 87 -53 141 -126 141c-75 0 -129 -54 -129 -141c0 -88 54 -145 129 -145z" />
    <glyph glyph-name="oslash" unicode="&#xf8;" horiz-adv-x="579" 
d="M32 0l62 74c-37 44 -58 101 -58 168c0 148 99 249 255 249c47 0 90 -11 124 -31l15 19h116l-59 -72c36 -42 55 -99 55 -165c0 -148 -97 -254 -251 -254c-48 0 -92 10 -126 31l-16 -19h-117zM162 242c0 -25 4 -51 12 -71l172 207c-17 8 -35 12 -55 12
c-75 0 -129 -56 -129 -148zM291 90c74 0 126 60 126 152c0 25 -3 50 -10 69l-172 -208c16 -8 35 -13 56 -13z" />
    <glyph glyph-name="thorn" unicode="&#xfe;" horiz-adv-x="582" 
d="M62 -234v954h124v-284c34 32 73 55 134 55c134 0 222 -103 222 -247c0 -146 -91 -256 -226 -256c-62 0 -100 20 -130 49v-271h-124zM284 75c81 0 134 61 134 169c0 105 -50 154 -132 154c-43 0 -74 -20 -100 -43v-233c24 -25 53 -47 98 -47z" />
    <glyph glyph-name="dcroat" unicode="&#x111;" horiz-adv-x="578" 
d="M253 -12c-132 0 -214 99 -214 244c0 151 93 259 227 259c62 0 99 -22 130 -51v109h-129v93h129v78h124v-78h72v-93h-72v-430c0 -61 5 -113 6 -119h-105s-6 26 -9 56c-36 -40 -86 -68 -159 -68zM291 79c46 0 81 22 105 47v228c-20 16 -52 44 -102 44
c-81 0 -130 -57 -130 -162c0 -108 47 -157 127 -157z" />
    <glyph glyph-name="dotlessi" unicode="&#x131;" horiz-adv-x="259" 
d="M67 0v479h124v-479h-124z" />
    <glyph glyph-name="lslash" unicode="&#x142;" horiz-adv-x="368" 
d="M23 239v107l83 31v343h124v-296l94 35v-107l-94 -35v-157c0 -50 22 -70 70 -70c26 0 48 6 52 7v-93c-4 -2 -43 -11 -87 -11c-108 0 -159 50 -159 168v109z" />
    <glyph glyph-name="oe" unicode="&#x153;" horiz-adv-x="926" 
d="M291 -12c-157 0 -255 106 -255 254c0 149 99 249 255 249c80 0 145 -27 189 -75c43 47 106 75 183 75c133 0 224 -89 224 -219c0 -25 -4 -58 -4 -61h-341c9 -82 57 -128 157 -128c59 0 114 16 163 50v-94c-47 -33 -109 -51 -180 -51c-86 0 -156 28 -202 78
c-44 -49 -109 -78 -189 -78zM543 290h227c2 67 -40 114 -113 114c-64 0 -110 -49 -114 -114zM291 90c74 0 126 60 126 152s-53 148 -126 148c-75 0 -129 -56 -129 -148s54 -152 129 -152z" />
    <glyph glyph-name="dotlessj" unicode="&#x237;" horiz-adv-x="259" 
d="M30 -244c-38 0 -74 9 -76 10v91c2 -1 24 -6 47 -6c42 0 66 19 66 68v560h124v-557c0 -117 -52 -166 -161 -166z" />
    <glyph glyph-name="mu" unicode="&#xb5;" horiz-adv-x="587" 
d="M185 -234h-124v713h124v-287c0 -76 31 -103 88 -103c45 0 80 27 104 59v331h124v-341c0 -44 17 -60 47 -60c12 0 22 3 26 5v-77c-4 -2 -30 -14 -77 -14c-69 0 -99 36 -113 85c-29 -34 -75 -89 -158 -89c-12 0 -28 1 -41 8v-230z" />
    <glyph glyph-name="mu" unicode="&#x3bc;" horiz-adv-x="587" 
d="M185 -234h-124v713h124v-287c0 -76 31 -103 88 -103c45 0 80 27 104 59v331h124v-341c0 -44 17 -60 47 -60c12 0 22 3 26 5v-77c-4 -2 -30 -14 -77 -14c-69 0 -99 36 -113 85c-29 -34 -75 -89 -158 -89c-12 0 -28 1 -41 8v-230z" />
    <glyph glyph-name="pi" unicode="&#x3c0;" horiz-adv-x="642" 
d="M563 78c21 0 36 3 40 5v-77c-3 -2 -32 -14 -84 -14c-86 0 -135 49 -135 134v263h-154v-389h-124v389h-86v90h586v-90h-96v-251c0 -44 20 -60 53 -60z" />
    <glyph glyph-name="gravecmb" unicode="&#x300;" horiz-adv-x="0" 
d="M-25 550l-148 147h148l106 -147h-106z" />
    <glyph glyph-name="acutecmb" unicode="&#x301;" horiz-adv-x="0" 
d="M25 550h-106l106 147h148z" />
    <glyph glyph-name="circumflexcmb" unicode="&#x302;" horiz-adv-x="0" 
d="M68 550l-68 73l-68 -73h-100l101 147h135l100 -147h-100z" />
    <glyph glyph-name="tildecmb" unicode="&#x303;" horiz-adv-x="0" 
d="M2 672c17 -14 29 -26 47 -26c22 0 31 18 31 48h81c0 -82 -33 -140 -103 -140c-36 0 -54 14 -70 28c-16 13 -28 26 -47 26c-18 0 -29 -17 -29 -49h-81c0 89 33 140 102 140c33 0 53 -13 69 -27z" />
    <glyph glyph-name="macroncmb" unicode="&#x304;" horiz-adv-x="0" 
d="M144 663v-94h-288v94h288z" />
    <glyph glyph-name="brevecmb" unicode="&#x306;" horiz-adv-x="0" 
d="M0 544c-99 0 -153 64 -153 153h91c0 -41 24 -63 62 -63s62 23 62 63h91c0 -88 -54 -153 -153 -153z" />
    <glyph glyph-name="dotaccentcmb" unicode="&#x307;" horiz-adv-x="0" 
d="M0 548c-42 0 -72 30 -72 72s30 73 72 73c41 0 72 -31 72 -73s-32 -72 -72 -72z" />
    <glyph glyph-name="dieresiscmb" unicode="&#x308;" horiz-adv-x="0" 
d="M-95 554c-39 0 -67 28 -67 66s28 66 67 66c36 0 64 -28 64 -66s-28 -66 -64 -66zM98 554c-39 0 -67 28 -67 66s28 66 67 66c37 0 65 -28 65 -66s-29 -66 -65 -66z" />
    <glyph glyph-name="ringcmb" unicode="&#x30a;" horiz-adv-x="0" 
d="M0 516c-70 0 -119 52 -119 118c0 65 49 116 119 116s119 -51 119 -116c0 -66 -49 -118 -119 -118zM0 581c29 0 48 23 48 53c0 28 -19 51 -48 51s-48 -23 -48 -51c0 -30 19 -53 48 -53z" />
    <glyph glyph-name="hungarumlautcmb" unicode="&#x30b;" horiz-adv-x="0" 
d="M-71 550h-101l104 147h143zM121 550h-101l104 147h143z" />
    <glyph glyph-name="caroncmb" unicode="&#x30c;" horiz-adv-x="0" 
d="M68 697h100l-100 -147h-135l-101 147h100l68 -72z" />
    <glyph glyph-name="commaturnedabovecmb" unicode="&#x312;" horiz-adv-x="0" 
d="M38 842l35 -39c-36 -29 -65 -74 -66 -107c43 -4 70 -39 70 -79c0 -44 -32 -77 -77 -77c-47 0 -79 36 -79 94c0 64 33 144 117 208z" />
    <glyph glyph-name="commabelowcmb" unicode="&#x326;" horiz-adv-x="0" 
d="M-38 -364l-35 39c36 29 65 74 66 107c-43 5 -70 40 -70 79c0 45 32 77 77 77c47 0 79 -36 79 -94c0 -64 -33 -144 -117 -208z" />
    <glyph glyph-name="cedillacmb" unicode="&#x327;" horiz-adv-x="0" 
d="M-48 -176c32 0 51 13 51 34c0 32 -37 40 -97 40l57 102h80l-32 -53c57 -8 90 -40 90 -86c0 -67 -53 -103 -135 -103c-43 0 -78 11 -81 12v66c4 -2 35 -12 67 -12z" />
    <glyph glyph-name="ogonekcmb" unicode="&#x328;" horiz-adv-x="0" 
d="M10 -244c-84 0 -130 36 -130 104c0 56 31 108 79 140h84c-38 -31 -63 -73 -63 -116c0 -36 23 -53 59 -53c22 0 38 7 51 14v-70c-18 -9 -41 -19 -80 -19z" />
    <glyph glyph-name="zero" unicode="0" horiz-adv-x="594" 
d="M296 -14c-156 0 -256 144 -256 363c0 222 100 365 256 365c155 0 258 -143 258 -365c0 -219 -103 -363 -258 -363zM296 93c79 0 132 86 132 256c0 172 -53 259 -132 259c-80 0 -130 -87 -130 -259c0 -170 50 -256 130 -256z" />
    <glyph glyph-name="one" unicode="1" horiz-adv-x="331" 
d="M130 0v602h-116v98h235v-700h-119z" />
    <glyph glyph-name="two" unicode="2" horiz-adv-x="505" 
d="M19 0v52l190 219c78 91 114 154 114 218c0 73 -45 118 -120 118c-69 0 -124 -33 -161 -61v114c48 34 110 54 182 54c136 0 225 -86 225 -217c0 -90 -42 -162 -151 -283l-101 -114h279v-100h-457z" />
    <glyph glyph-name="three" unicode="3" horiz-adv-x="494" 
d="M187 -14c-59 0 -122 12 -160 32v109c41 -24 98 -39 150 -39c100 0 157 46 157 125c0 82 -52 131 -177 131c-14 0 -27 -1 -27 -1v58l152 199h-253v100h405v-54l-170 -223c123 -16 193 -92 193 -210c0 -127 -104 -227 -270 -227z" />
    <glyph glyph-name="four" unicode="4" horiz-adv-x="571" 
d="M341 0v136h-325v71l362 497h81v-470h95v-98h-95v-136h-118zM150 234h191v269z" />
    <glyph glyph-name="five" unicode="5" horiz-adv-x="502" 
d="M200 -14c-63 0 -126 10 -166 31v109c44 -25 98 -38 152 -38c89 0 156 44 156 129s-59 126 -152 126c-57 0 -111 -13 -133 -22l21 379h363v-100h-262l-11 -171c14 4 35 5 57 5c145 0 239 -80 239 -215c0 -126 -99 -233 -264 -233z" />
    <glyph glyph-name="six" unicode="6" horiz-adv-x="563" 
d="M278 -14c-148 0 -240 96 -240 228c0 71 30 138 82 217c46 69 138 198 192 269h127c-57 -75 -147 -198 -188 -260c11 4 39 8 60 8c121 0 215 -77 215 -224c0 -133 -103 -238 -248 -238zM280 85c71 0 122 55 122 136s-50 133 -122 133c-70 0 -119 -58 -119 -136
c0 -82 48 -133 119 -133z" />
    <glyph glyph-name="seven" unicode="7" horiz-adv-x="482" 
d="M51 0l290 600h-322v100h459v-53l-299 -647h-128z" />
    <glyph glyph-name="eight" unicode="8" horiz-adv-x="571" 
d="M285 -14c-144 0 -244 83 -244 196c0 103 83 160 156 182c-77 35 -129 85 -129 167c0 117 104 183 224 183c123 0 216 -70 216 -171c0 -90 -72 -146 -135 -171c87 -39 158 -94 158 -189c0 -117 -104 -197 -246 -197zM300 418c42 20 89 56 89 115c0 53 -37 91 -96 91
c-66 0 -105 -38 -105 -90c0 -58 51 -90 112 -116zM287 79c75 0 123 43 123 104c0 75 -68 105 -137 135c-45 -18 -110 -59 -110 -133c0 -61 50 -106 124 -106z" />
    <glyph glyph-name="nine" unicode="9" horiz-adv-x="563" 
d="M286 714c147 0 239 -95 239 -227c0 -72 -29 -139 -81 -217c-46 -69 -138 -199 -193 -270h-127c58 75 148 198 188 261c-11 -4 -38 -9 -59 -9c-122 0 -215 83 -215 225c0 132 103 237 248 237zM284 615c-72 0 -123 -55 -123 -135c0 -82 51 -134 123 -134
c70 0 118 58 118 137c0 81 -48 132 -118 132z" />
    <glyph glyph-name="onesuperior" unicode="&#xb9;" horiz-adv-x="252" 
d="M104 328v295h-60v77h150v-372h-90z" />
    <glyph glyph-name="twosuperior" unicode="&#xb2;" horiz-adv-x="354" 
d="M50 328v36l104 123c35 42 49 70 49 97c0 28 -19 45 -51 45c-38 0 -69 -17 -89 -33v83c26 18 59 29 102 29c78 0 128 -41 128 -113c0 -46 -23 -90 -85 -158l-29 -32h125v-77h-254z" />
    <glyph glyph-name="threesuperior" unicode="&#xb3;" horiz-adv-x="341" 
d="M140 322c-35 0 -70 8 -88 17v81c28 -15 54 -20 84 -20c41 0 65 21 65 53c0 30 -22 47 -76 47h-19v37l64 86h-117v77h222v-37l-77 -103c62 -11 94 -54 94 -107c0 -74 -59 -131 -152 -131z" />
    <glyph glyph-name="onequarter" unicode="&#xbc;" horiz-adv-x="693" 
d="M95 0l345 700h103l-344 -700h-104zM104 328v295h-60v77h150v-372h-90zM491 0v67h-157v49l198 258h47v-233h46v-74h-46v-67h-88zM491 141v93l-72 -93h72z" />
    <glyph glyph-name="onehalf" unicode="&#xbd;" horiz-adv-x="748" 
d="M95 0l345 700h103l-344 -700h-104zM104 328v295h-60v77h150v-372h-90zM431 0v36l104 123c35 42 49 70 49 97c0 28 -19 45 -51 45c-38 0 -69 -17 -89 -33v83c26 18 59 29 102 29c78 0 128 -41 128 -113c0 -46 -23 -90 -85 -158l-29 -32h125v-77h-254z" />
    <glyph glyph-name="threequarters" unicode="&#xbe;" horiz-adv-x="777" 
d="M167 0l345 700h103l-344 -700h-104zM140 322c-35 0 -70 8 -88 17v81c28 -15 54 -20 84 -20c41 0 65 21 65 53c0 30 -22 47 -76 47h-19v37l64 86h-117v77h222v-37l-77 -103c62 -11 94 -54 94 -107c0 -74 -59 -131 -152 -131zM575 0v67h-157v49l198 258h47v-233h46v-74h-46
v-67h-88zM575 141v93l-72 -93h72z" />
    <glyph glyph-name="underscore" unicode="_" horiz-adv-x="576" 
d="M-17 -147v92h610v-92h-610z" />
    <glyph glyph-name="hyphen" unicode="-" horiz-adv-x="381" 
d="M54 242v109h273v-109h-273z" />
    <glyph glyph-name="hyphen" unicode="&#x2011;" horiz-adv-x="381" 
d="M54 242v109h273v-109h-273z" />
    <glyph glyph-name="hyphen" unicode="&#x2010;" horiz-adv-x="381" 
d="M54 242v109h273v-109h-273z" />
    <glyph glyph-name="hyphen" unicode="&#xad;" horiz-adv-x="381" 
d="M54 242v109h273v-109h-273z" />
    <glyph glyph-name="endash" unicode="&#x2013;" horiz-adv-x="624" 
d="M38 250v102h547v-102h-547z" />
    <glyph glyph-name="emdash" unicode="&#x2014;" horiz-adv-x="1089" 
d="M38 250v102h1012v-102h-1012z" />
    <glyph glyph-name="parenleft" unicode="(" horiz-adv-x="405" 
d="M245 -145c-96 114 -173 275 -173 467c0 193 76 352 173 468h128c-82 -94 -171 -258 -171 -468c0 -209 88 -373 171 -467h-128z" />
    <glyph glyph-name="parenright" unicode=")" horiz-adv-x="405" 
d="M33 -145c82 94 170 258 170 467c0 210 -88 374 -171 468h129c96 -116 172 -275 172 -468c0 -192 -77 -353 -173 -467h-127z" />
    <glyph glyph-name="bracketleft" unicode="[" horiz-adv-x="433" 
d="M112 -145v935h265v-98h-134v-739h134v-98h-265z" />
    <glyph glyph-name="bracketright" unicode="]" horiz-adv-x="433" 
d="M56 -145v98h134v739h-134v98h265v-935h-265z" />
    <glyph glyph-name="braceleft" unicode="{" horiz-adv-x="400" 
d="M340 -145c-157 1 -224 41 -224 139c0 64 34 141 34 199c0 61 -36 85 -98 86v87c62 1 98 26 98 86c0 57 -34 136 -34 199c0 98 66 138 224 139v-87c-69 -1 -93 -22 -93 -65c0 -58 30 -129 30 -188c0 -69 -43 -116 -107 -124v-7c65 -9 107 -55 107 -124
c0 -59 -30 -130 -30 -188c0 -46 29 -64 93 -65v-87z" />
    <glyph glyph-name="braceright" unicode="}" horiz-adv-x="406" 
d="M62 -145v87c65 1 94 19 94 65c0 58 -30 129 -30 188c0 69 42 115 107 124v7c-65 8 -107 55 -107 124c0 59 30 130 30 188c0 43 -24 64 -94 65v87c159 -1 225 -41 225 -139c0 -63 -34 -142 -34 -199c0 -60 35 -85 97 -86v-87c-62 -1 -97 -25 -97 -86
c0 -58 34 -135 34 -199c0 -98 -67 -138 -225 -139z" />
    <glyph glyph-name="numbersign" unicode="#" horiz-adv-x="681" 
d="M126 0l24 181h-99v88h109l22 162h-100v88h111l24 181h93l-24 -181h152l24 181h93l-24 -181h99v-88h-110l-21 -162h99v-88h-110l-24 -181h-93l24 181h-152l-24 -181h-93zM254 269h152l21 162h-152z" />
    <glyph glyph-name="percent" unicode="%" horiz-adv-x="951" 
d="M251 -14l350 728h99l-350 -728h-99zM226 305c-103 0 -179 82 -179 197s76 197 179 197c102 0 178 -82 178 -197s-76 -197 -178 -197zM226 389c47 0 78 44 78 113s-31 113 -78 113c-48 0 -79 -44 -79 -113s31 -113 79 -113zM725 0c-103 0 -177 78 -177 197
c0 115 74 198 177 198s178 -78 178 -198c0 -119 -75 -197 -178 -197zM725 84c47 0 78 44 78 113s-31 114 -78 114s-78 -45 -78 -114s31 -113 78 -113z" />
    <glyph glyph-name="perthousand" unicode="&#x2030;" horiz-adv-x="1367" 
d="M251 -14l350 728h99l-350 -728h-99zM226 305c-103 0 -179 82 -179 197s76 197 179 197c102 0 178 -82 178 -197s-76 -197 -178 -197zM226 389c47 0 78 44 78 113s-31 113 -78 113c-48 0 -79 -44 -79 -113s31 -113 79 -113zM1142 0c-103 0 -178 78 -178 197
c0 115 75 198 178 198c102 0 178 -78 178 -198c0 -119 -76 -197 -178 -197zM725 0c-103 0 -177 78 -177 197c0 115 74 198 177 198s178 -78 178 -198c0 -119 -75 -197 -178 -197zM1142 84c47 0 78 44 78 113s-31 114 -78 114s-78 -45 -78 -114s31 -113 78 -113zM725 84
c47 0 78 44 78 113s-31 114 -78 114s-78 -45 -78 -114s31 -113 78 -113z" />
    <glyph glyph-name="quotesingle" unicode="'" horiz-adv-x="232" 
d="M61 424l-10 294h130l-10 -294h-110z" />
    <glyph glyph-name="quotedbl" unicode="&#x22;" horiz-adv-x="454" 
d="M394 424h-111l-10 294h131zM171 424h-110l-10 294h130z" />
    <glyph glyph-name="quoteleft" unicode="&#x2bb;" horiz-adv-x="246" 
d="M161 729l37 -40c-38 -30 -68 -76 -70 -111c46 -4 73 -39 73 -80c0 -46 -33 -79 -79 -79c-47 0 -81 36 -81 97c0 65 35 148 120 213z" />
    <glyph glyph-name="quoteleft" unicode="&#x2018;" horiz-adv-x="246" 
d="M161 729l37 -40c-38 -30 -68 -76 -70 -111c46 -4 73 -39 73 -80c0 -46 -33 -79 -79 -79c-47 0 -81 36 -81 97c0 65 35 148 120 213z" />
    <glyph glyph-name="quoteright" unicode="&#x2bc;" horiz-adv-x="246" 
d="M85 419l-37 40c38 30 68 76 70 111c-46 4 -73 39 -73 80c0 46 33 79 79 79c47 0 81 -36 81 -97c0 -65 -35 -148 -120 -213z" />
    <glyph glyph-name="quoteright" unicode="&#x2019;" horiz-adv-x="246" 
d="M85 419l-37 40c38 30 68 76 70 111c-46 4 -73 39 -73 80c0 46 33 79 79 79c47 0 81 -36 81 -97c0 -65 -35 -148 -120 -213z" />
    <glyph glyph-name="quotedblleft" unicode="&#x201c;" horiz-adv-x="452" 
d="M161 729l37 -40c-38 -30 -68 -76 -70 -111c46 -4 73 -39 73 -80c0 -46 -33 -79 -79 -79c-47 0 -81 36 -81 97c0 65 35 148 120 213zM367 729l37 -40c-38 -30 -68 -76 -70 -111c46 -4 73 -39 73 -80c0 -46 -33 -79 -79 -79c-47 0 -81 36 -81 97c0 65 35 148 120 213z" />
    <glyph glyph-name="quotedblright" unicode="&#x201d;" horiz-adv-x="452" 
d="M85 419l-37 40c38 30 68 76 70 111c-46 4 -73 39 -73 80c0 46 33 79 79 79c47 0 81 -36 81 -97c0 -65 -35 -148 -120 -213zM291 419l-37 40c38 30 68 76 70 111c-46 4 -73 39 -73 80c0 46 33 79 79 79c47 0 81 -36 81 -97c0 -65 -35 -148 -120 -213z" />
    <glyph glyph-name="quotesinglbase" unicode="&#x201a;" horiz-adv-x="246" 
d="M85 -164l-37 40c38 30 68 76 70 111c-46 4 -73 39 -73 80c0 46 33 79 79 79c47 0 81 -36 81 -97c0 -65 -35 -148 -120 -213z" />
    <glyph glyph-name="quotedblbase" unicode="&#x201e;" horiz-adv-x="452" 
d="M85 -164l-37 40c38 30 68 76 70 111c-46 4 -73 39 -73 80c0 46 33 79 79 79c47 0 81 -36 81 -97c0 -65 -35 -148 -120 -213zM291 -164l-37 40c38 30 68 76 70 111c-46 4 -73 39 -73 80c0 46 33 79 79 79c47 0 81 -36 81 -97c0 -65 -35 -148 -120 -213z" />
    <glyph glyph-name="guilsinglleft" unicode="&#x2039;" horiz-adv-x="368" 
d="M291 48l-231 163v96l231 163v-111l-128 -100l128 -100v-111z" />
    <glyph glyph-name="guilsinglright" unicode="&#x203a;" horiz-adv-x="368" 
d="M77 470l231 -163v-96l-231 -163v111l128 100l-128 100v111z" />
    <glyph glyph-name="asterisk" unicode="*" horiz-adv-x="547" 
d="M188 306l-82 59l99 123l-152 40l30 96l148 -56l-9 157h101l-9 -157l149 56l30 -96l-152 -41l99 -122l-81 -59l-86 131z" />
    <glyph glyph-name="dagger" unicode="&#x2020;" horiz-adv-x="572" 
d="M222 -151l7 552l-177 -6v101l177 -9l-7 227h127l-7 -227l177 9v-101l-177 6l7 -552h-127z" />
    <glyph glyph-name="daggerdbl" unicode="&#x2021;" horiz-adv-x="612" 
d="M242 -151l7 227l-177 -9v101l177 -6l-4 122l4 117l-177 -6v101l177 -9l-7 227h127l-7 -227l177 9v-101l-177 6l4 -117l-4 -122l177 6v-101l-177 9l7 -227h-127z" />
    <glyph glyph-name="period" unicode="." horiz-adv-x="244" 
d="M122 -14c-49 0 -85 36 -85 86c0 49 36 85 85 85s85 -36 85 -85c0 -50 -36 -86 -85 -86z" />
    <glyph glyph-name="comma" unicode="," horiz-adv-x="244" 
d="M81 -176l-40 43c40 32 72 82 74 119c-49 4 -78 42 -78 86c0 50 36 85 85 85c51 0 87 -39 87 -104c0 -70 -37 -158 -128 -229z" />
    <glyph glyph-name="colon" unicode=":" horiz-adv-x="275" 
d="M138 324c-49 0 -86 35 -86 85c0 49 37 85 86 85s85 -36 85 -85c0 -50 -36 -85 -85 -85zM138 -14c-49 0 -86 36 -86 86c0 49 37 85 86 85s85 -36 85 -85c0 -50 -36 -86 -85 -86z" />
    <glyph glyph-name="semicolon" unicode=";" horiz-adv-x="275" 
d="M138 324c-49 0 -86 35 -86 85c0 49 37 85 86 85s85 -36 85 -85c0 -50 -36 -85 -85 -85zM96 -176l-39 43c39 32 72 82 73 119c-48 4 -78 42 -78 86c0 50 36 85 86 85c51 0 86 -39 86 -104c0 -70 -36 -158 -128 -229z" />
    <glyph glyph-name="ellipsis" unicode="&#x2026;" horiz-adv-x="729" 
d="M122 -14c-49 0 -85 36 -85 86c0 49 36 85 85 85s85 -36 85 -85c0 -50 -36 -86 -85 -86zM364 -14c-49 0 -85 36 -85 86c0 49 36 85 85 85s85 -36 85 -85c0 -50 -36 -86 -85 -86zM607 -14c-49 0 -85 36 -85 86c0 49 36 85 85 85s85 -36 85 -85c0 -50 -36 -86 -85 -86z" />
    <glyph glyph-name="exclam" unicode="!" horiz-adv-x="271" 
d="M79 235l-12 465h138l-13 -465h-113zM53 70c0 48 36 83 83 83s82 -35 82 -83s-35 -84 -82 -84s-83 36 -83 84z" />
    <glyph glyph-name="exclamdown" unicode="&#xa1;" horiz-adv-x="271" 
d="M218 391c0 -48 -36 -83 -83 -83s-82 35 -82 83s35 84 82 84s83 -36 83 -84zM192 226l12 -465h-138l13 465h113z" />
    <glyph glyph-name="question" unicode="?" horiz-adv-x="414" 
d="M112 233c-2 12 -2 22 -2 32c0 73 34 122 69 162c33 39 66 70 66 115c0 50 -34 68 -82 68c-39 0 -84 -15 -121 -34v106c46 22 98 32 148 32c114 0 189 -49 188 -161c0 -71 -39 -115 -78 -155c-41 -44 -81 -86 -81 -149c0 -5 0 -12 1 -16h-108zM164 -14
c-47 0 -84 36 -84 84s37 83 84 83c48 0 85 -35 85 -83s-37 -84 -85 -84z" />
    <glyph glyph-name="questiondown" unicode="&#xbf;" horiz-adv-x="377" 
d="M251 475c47 0 84 -36 84 -84s-37 -83 -84 -83c-48 0 -85 35 -85 83s37 84 85 84zM303 228c2 -12 2 -22 2 -32c0 -73 -34 -122 -69 -162c-33 -39 -66 -70 -66 -115c0 -50 34 -68 82 -68c39 0 84 15 121 34v-106c-46 -22 -98 -32 -148 -32c-114 0 -189 49 -188 161
c0 71 39 115 78 155c41 44 81 86 81 149c0 5 0 12 -1 16h108z" />
    <glyph glyph-name="slash" unicode="/" horiz-adv-x="374" 
d="M12 -74l235 848h115l-235 -848h-115z" />
    <glyph glyph-name="backslash" unicode="\" horiz-adv-x="374" 
d="M247 -74l-235 848h115l235 -848h-115z" />
    <glyph glyph-name="fraction" unicode="&#x2044;" horiz-adv-x="417" 
d="M-16 0l345 700h103l-344 -700h-104z" />
    <glyph glyph-name="fraction" unicode="&#x2215;" horiz-adv-x="417" 
d="M-16 0l345 700h103l-344 -700h-104z" />
    <glyph glyph-name="bar" unicode="|" horiz-adv-x="349" 
d="M112 -170v980h125v-980h-125z" />
    <glyph glyph-name="brokenbar" unicode="&#xa6;" horiz-adv-x="349" 
d="M237 379h-125v431h125v-431zM112 -170v431h125v-431h-125z" />
    <glyph glyph-name="at" unicode="@" horiz-adv-x="915" 
d="M434 -101c-222 0 -377 140 -377 369c0 251 175 446 429 446c218 0 372 -148 372 -353c0 -166 -91 -271 -210 -271c-74 0 -103 37 -113 59c-23 -21 -63 -48 -122 -48c-94 0 -149 65 -149 177c0 132 77 235 180 235c39 0 73 -16 98 -47l4 43h91l-26 -279
c-4 -43 16 -60 46 -60c57 0 104 65 104 187c0 162 -113 272 -276 272c-195 0 -331 -153 -331 -356c0 -182 117 -287 288 -287c68 0 126 15 177 46l42 -74c-65 -38 -141 -59 -227 -59zM440 189c34 0 62 17 77 30l17 173c-14 20 -39 35 -70 35c-65 0 -99 -67 -99 -137
c0 -56 21 -101 75 -101z" />
    <glyph glyph-name="ampersand" unicode="&#x26;" horiz-adv-x="664" 
d="M609 340c-12 -71 -36 -138 -72 -193l134 -147h-157l-56 62c-52 -51 -116 -76 -200 -76c-139 0 -225 71 -225 183c0 85 50 148 146 205c-54 64 -75 108 -75 161c0 97 75 179 200 179c114 0 191 -68 191 -163c0 -84 -64 -144 -151 -191l116 -128c14 32 24 69 30 108h119z
M232 536c0 -36 14 -66 49 -107c61 37 89 74 89 117c0 40 -27 68 -65 68c-46 0 -73 -34 -73 -78zM165 187c0 -58 41 -99 110 -99c44 0 84 17 117 47l-152 169c-48 -32 -75 -70 -75 -117z" />
    <glyph glyph-name="section" unicode="&#xa7;" horiz-adv-x="555" 
d="M492 -59c0 -114 -95 -185 -237 -185c-75 0 -133 17 -169 37v115c39 -23 95 -47 157 -47c69 0 111 26 111 76c0 55 -71 78 -142 111c-75 34 -147 82 -147 188c0 61 35 110 87 149c-57 37 -87 79 -87 144c0 114 95 185 237 185c75 0 133 -17 169 -37v-115
c-39 23 -95 47 -157 47c-69 0 -111 -26 -111 -76c0 -55 71 -78 142 -111c75 -34 147 -82 147 -188c0 -60 -35 -109 -88 -149c58 -37 88 -79 88 -144zM193 239c0 -48 48 -77 107 -103c40 24 64 56 64 95c0 48 -48 77 -108 103c-40 -24 -63 -56 -63 -95z" />
    <glyph glyph-name="paragraph" unicode="&#xb6;" horiz-adv-x="752" 
d="M316 -234v455h-10c-163 0 -255 97 -255 239c0 143 92 240 255 240h374v-934h-132v836h-100v-836h-132z" />
    <glyph glyph-name="litre" unicode="&#x2113;" horiz-adv-x="431" 
d="M193 -14c-103 0 -141 87 -141 224c0 270 99 520 229 520c72 0 113 -43 113 -100c0 -118 -98 -270 -216 -361c-2 -26 -4 -49 -4 -71c0 -93 23 -154 77 -154c41 0 72 24 100 49l23 -28c-62 -59 -126 -79 -181 -79zM186 352c63 70 142 188 142 262c0 20 -6 39 -21 43
c-50 0 -102 -171 -121 -305z" />
    <glyph glyph-name="periodcentered" unicode="&#xb7;" horiz-adv-x="244" 
d="M122 282c-49 0 -85 36 -85 86c0 49 36 85 85 85s85 -36 85 -85c0 -50 -36 -86 -85 -86z" />
    <glyph glyph-name="periodcentered" unicode="&#x2219;" horiz-adv-x="244" 
d="M122 282c-49 0 -85 36 -85 86c0 49 36 85 85 85s85 -36 85 -85c0 -50 -36 -86 -85 -86z" />
    <glyph glyph-name="bullet" unicode="&#x2022;" horiz-adv-x="442" 
d="M221 181c-85 0 -149 64 -149 148s65 149 149 149c83 0 149 -65 149 -149c0 -83 -66 -148 -149 -148z" />
    <glyph glyph-name="plus" unicode="+" horiz-adv-x="609" 
d="M254 615h100v-207h194v-100h-194v-208h-100v208h-193v100h193v207z" />
    <glyph glyph-name="minus" unicode="&#x2212;" horiz-adv-x="609" 
d="M61 408h487v-100h-487v100z" />
    <glyph glyph-name="plusminus" unicode="&#xb1;" horiz-adv-x="609" 
d="M254 636h100v-193h194v-100h-194v-194h-100v194h-193v100h193v193zM61 100h487v-100h-487v100z" />
    <glyph glyph-name="divide" unicode="&#xf7;" horiz-adv-x="608" 
d="M305 489c-42 0 -72 30 -72 71c0 42 30 72 72 72c41 0 71 -30 71 -72c0 -41 -30 -71 -71 -71zM59 308v100h491v-100h-491zM305 85c-42 0 -72 30 -72 72c0 41 30 71 72 71c41 0 71 -30 71 -71c0 -42 -30 -72 -71 -72z" />
    <glyph glyph-name="multiply" unicode="&#xd7;" horiz-adv-x="609" 
d="M519 214l-71 -70l-144 144l-145 -144l-70 70l145 144l-145 145l71 70l144 -144l145 144l70 -69l-145 -145z" />
    <glyph glyph-name="equal" unicode="=" horiz-adv-x="609" 
d="M541 490v-99h-473v99h473zM541 297v-100h-473v100h473z" />
    <glyph glyph-name="less" unicode="&#x3c;" horiz-adv-x="609" 
d="M548 216v-111l-487 203v100l487 203v-112l-350 -141z" />
    <glyph glyph-name="greater" unicode="&#x3e;" horiz-adv-x="609" 
d="M61 500v111l487 -203v-100l-487 -203v112l350 141z" />
    <glyph glyph-name="lessequal" unicode="&#x2264;" horiz-adv-x="609" 
d="M548 265v-111l-487 193v99l487 193v-112l-350 -130zM61 100h487v-100h-487v100z" />
    <glyph glyph-name="greaterequal" unicode="&#x2265;" horiz-adv-x="609" 
d="M61 527v112l487 -193v-100l-487 -192v111l350 131zM61 100h487v-100h-487v100z" />
    <glyph glyph-name="approxequal" unicode="&#x2248;" horiz-adv-x="609" 
d="M403 444c28 0 47 23 50 65h96c-2 -83 -43 -157 -140 -157c-103 0 -136 99 -202 99c-30 0 -49 -24 -51 -67h-96c2 85 43 159 140 159c98 0 136 -99 203 -99zM403 242c28 0 47 23 50 65h96c-2 -83 -43 -157 -140 -157c-103 0 -136 99 -202 99c-30 0 -49 -24 -51 -67h-96
c2 85 43 159 140 159c98 0 136 -99 203 -99z" />
    <glyph glyph-name="notequal" unicode="&#x2260;" horiz-adv-x="609" 
d="M284 101h-96l27 96h-147v100h176l27 94h-203v99h231l28 97h96l-28 -97h146v-99h-174l-27 -94h201v-100h-230z" />
    <glyph glyph-name="logicalnot" unicode="&#xac;" horiz-adv-x="609" 
d="M61 408h487v-308h-101v208h-386v100z" />
    <glyph glyph-name="partialdiff" unicode="&#x2202;" horiz-adv-x="602" 
d="M559 427c0 -249 -123 -441 -324 -441c-121 0 -213 84 -213 209c0 119 86 243 246 243c74 0 125 -34 160 -86c3 23 4 48 4 74c0 125 -41 191 -107 191c-53 0 -93 -36 -112 -92h-107c25 116 111 189 231 189c140 0 222 -106 222 -287zM143 195c0 -67 42 -112 99 -112
c72 0 135 62 167 169c-33 51 -72 87 -138 87c-65 0 -128 -53 -128 -144z" />
    <glyph glyph-name="product" unicode="&#x220f;" horiz-adv-x="783" 
d="M132 -120v720h-106v100h731v-100h-108v-720h-133v720h-251v-720h-133z" />
    <glyph glyph-name="summation" unicode="&#x2211;" horiz-adv-x="526" 
d="M3 -120v52l208 370l-197 344v54h484v-99h-316l170 -298l-181 -324h342v-99h-510z" />
    <glyph glyph-name="radical" unicode="&#x221a;" horiz-adv-x="720" 
d="M284 -8l-134 320h-103v100h186l83 -209l232 594h124l-324 -805h-64z" />
    <glyph glyph-name="infinity" unicode="&#x221e;" horiz-adv-x="833" 
d="M781 355c0 -96 -79 -172 -171 -172c-68 0 -126 41 -194 104c-66 -61 -122 -103 -193 -103c-93 0 -171 76 -171 171c0 96 77 172 171 172c67 0 131 -41 193 -103c55 53 115 102 194 102c93 0 171 -74 171 -171zM151 355c0 -42 31 -75 72 -75c44 0 84 38 125 76
c-40 39 -81 74 -125 74c-41 0 -72 -32 -72 -75zM610 430c-44 0 -86 -36 -124 -74c39 -40 80 -76 124 -76c40 0 73 33 73 75c0 43 -33 75 -73 75z" />
    <glyph glyph-name="integral" unicode="&#x222b;" horiz-adv-x="351" 
d="M65 -244c-38 0 -73 9 -75 10v91c2 -1 23 -6 46 -6c42 0 66 19 66 68v660c0 102 64 149 156 149c37 0 74 -6 91 -10v-95c-4 2 -35 12 -65 12c-36 0 -58 -19 -58 -60v-653c0 -117 -52 -166 -161 -166z" />
    <glyph glyph-name="dollar" unicode="$" horiz-adv-x="506" 
d="M213 -89v100c-74 2 -137 25 -169 43v117c46 -31 108 -53 173 -53c81 0 119 37 119 85c0 56 -61 85 -136 121c-80 39 -151 88 -151 192c0 98 64 163 168 182v86h94v-82c52 -4 99 -19 128 -36v-114c-36 22 -92 46 -149 46c-72 0 -112 -29 -112 -74c0 -53 58 -84 130 -118
c88 -42 159 -92 159 -196c0 -100 -67 -167 -160 -191v-108h-94z" />
    <glyph glyph-name="cent" unicode="&#xa2;" horiz-adv-x="501" 
d="M246 644h99v-78c43 -4 80 -16 102 -28v-108c-26 19 -69 42 -129 42c-95 0 -147 -58 -147 -153c0 -100 53 -155 146 -155c61 0 103 21 130 42v-109c-25 -14 -60 -24 -102 -29v-68h-99v70c-122 20 -203 111 -203 247c0 134 77 227 203 247v80z" />
    <glyph glyph-name="sterling" unicode="&#xa3;" horiz-adv-x="507" 
d="M92 -13l-50 81c10 6 113 59 113 155c0 28 -7 55 -16 84h-90v79h65c-10 35 -18 72 -18 114c0 137 95 214 222 214c79 0 136 -27 141 -31v-108c-9 6 -58 37 -122 37c-67 0 -110 -40 -110 -117c0 -41 8 -75 17 -109h167v-79h-147c6 -24 9 -49 9 -77c0 -84 -48 -112 -55 -121
l2 -3c6 3 22 10 48 10c43 0 83 -22 124 -22c61 0 97 26 103 31v-103c-5 -5 -36 -34 -100 -34c-87 0 -119 40 -192 40c-57 0 -105 -37 -111 -41z" />
    <glyph glyph-name="currency" unicode="&#xa4;" horiz-adv-x="630" 
d="M121 70l-69 68l71 71c-23 35 -35 77 -35 123s12 87 35 123l-71 71l69 68l71 -71c35 23 78 36 123 36c44 0 86 -13 122 -36l72 71l68 -68l-71 -71c23 -36 36 -78 36 -123s-13 -88 -36 -123l71 -71l-68 -68l-72 71c-35 -23 -77 -36 -122 -36s-88 13 -123 35zM315 196
c72 0 124 58 124 136s-52 136 -124 136c-73 0 -125 -58 -125 -136s52 -136 125 -136z" />
    <glyph glyph-name="yen" unicode="&#xa5;" horiz-adv-x="587" 
d="M68 106v79h160v70h-160v79h126l-203 366h146l157 -306l156 306h145l-205 -366h130v-79h-161v-70h161v-79h-161v-106h-131v106h-160z" />
    <glyph glyph-name="Euro" unicode="&#x20ac;" horiz-adv-x="580" 
d="M25 238v78h70c-1 11 -1 22 -1 34s0 24 1 36h-70v78h80c32 150 130 250 279 250c62 0 119 -18 157 -45v-116c-38 28 -87 55 -149 55c-74 0 -126 -54 -149 -144h179v-78h-191c-1 -12 -1 -24 -1 -36s0 -23 1 -34h191v-78h-180c23 -92 76 -144 152 -144c62 0 109 26 147 54
v-118c-38 -26 -93 -44 -155 -44c-155 0 -252 98 -282 252h-79z" />
    <glyph glyph-name="asciicircum" unicode="^" horiz-adv-x="560" 
d="M52 365l163 349h131l162 -349h-126l-102 247l-102 -247h-126z" />
    <glyph glyph-name="asciitilde" unicode="~" horiz-adv-x="560" 
d="M44 233c1 114 40 202 134 202c47 0 81 -23 110 -44c28 -21 55 -43 88 -43c43 0 55 41 56 88h84c-1 -114 -41 -202 -135 -202c-43 0 -76 19 -104 39c-32 23 -59 47 -92 47c-43 0 -56 -41 -57 -87h-84z" />
    <glyph glyph-name="acute" unicode="&#xb4;" horiz-adv-x="500" 
d="M275 550h-106l106 147h148z" />
    <glyph glyph-name="grave" unicode="`" horiz-adv-x="500" 
d="M221 560l-167 147h170l118 -147h-121z" />
    <glyph glyph-name="hungarumlaut" unicode="&#x2dd;" horiz-adv-x="500" 
d="M179 550h-101l104 147h143zM371 550h-101l104 147h143z" />
    <glyph glyph-name="circumflex" unicode="&#x2c6;" horiz-adv-x="500" 
d="M318 550l-68 73l-68 -73h-100l101 147h135l100 -147h-100z" />
    <glyph glyph-name="caron" unicode="&#x2c7;" horiz-adv-x="500" 
d="M318 697h100l-100 -147h-135l-101 147h100l68 -72z" />
    <glyph glyph-name="breve" unicode="&#x2d8;" horiz-adv-x="500" 
d="M250 544c-99 0 -153 64 -153 153h91c0 -41 24 -63 62 -63s62 23 62 63h91c0 -88 -54 -153 -153 -153z" />
    <glyph glyph-name="tilde" unicode="&#x2dc;" horiz-adv-x="500" 
d="M252 672c17 -14 29 -26 47 -26c22 0 31 18 31 48h81c0 -82 -33 -140 -103 -140c-36 0 -54 14 -70 28c-16 13 -28 26 -47 26c-18 0 -29 -17 -29 -49h-81c0 89 33 140 102 140c33 0 53 -13 69 -27z" />
    <glyph glyph-name="macron" unicode="&#xaf;" horiz-adv-x="500" 
d="M394 663v-94h-288v94h288z" />
    <glyph glyph-name="macron" unicode="&#x2c9;" horiz-adv-x="500" 
d="M394 663v-94h-288v94h288z" />
    <glyph glyph-name="dieresis" unicode="&#xa8;" horiz-adv-x="500" 
d="M155 554c-39 0 -67 28 -67 66s28 66 67 66c36 0 64 -28 64 -66s-28 -66 -64 -66zM348 554c-39 0 -67 28 -67 66s28 66 67 66c37 0 65 -28 65 -66s-29 -66 -65 -66z" />
    <glyph glyph-name="dotaccent" unicode="&#x2d9;" horiz-adv-x="500" 
d="M250 548c-42 0 -72 30 -72 72s30 73 72 73c41 0 72 -31 72 -73s-32 -72 -72 -72z" />
    <glyph glyph-name="ring" unicode="&#x2da;" horiz-adv-x="500" 
d="M250 516c-70 0 -119 52 -119 118c0 65 49 116 119 116s119 -51 119 -116c0 -66 -49 -118 -119 -118zM250 581c29 0 48 23 48 53c0 28 -19 51 -48 51s-48 -23 -48 -51c0 -30 19 -53 48 -53z" />
    <glyph glyph-name="cedilla" unicode="&#xb8;" horiz-adv-x="500" 
d="M202 -176c32 0 51 13 51 34c0 32 -37 40 -97 40l57 102h80l-32 -53c57 -8 90 -40 90 -86c0 -67 -53 -103 -135 -103c-43 0 -78 11 -81 12v66c4 -2 35 -12 67 -12z" />
    <glyph glyph-name="ogonek" unicode="&#x2db;" horiz-adv-x="500" 
d="M260 -244c-84 0 -130 36 -130 104c0 56 31 108 79 140h84c-38 -31 -63 -73 -63 -116c0 -36 23 -53 59 -53c22 0 38 7 51 14v-70c-18 -9 -41 -19 -80 -19z" />
    <glyph glyph-name="copyright" unicode="&#xa9;" horiz-adv-x="854" 
d="M427 -14c-201 0 -364 163 -364 364s163 364 364 364s364 -163 364 -364s-163 -364 -364 -364zM427 62c155 0 277 122 277 288s-122 288 -277 288s-277 -122 -277 -288s122 -288 277 -288zM440 146c-111 0 -195 85 -195 204s84 203 195 203c47 0 86 -13 106 -27v-79
c-26 21 -59 35 -98 35c-73 0 -120 -55 -120 -132c0 -78 47 -133 120 -133c39 0 73 15 98 36v-77c-20 -16 -59 -30 -106 -30z" />
    <glyph glyph-name="registered" unicode="&#xae;" horiz-adv-x="854" 
d="M427 -14c-201 0 -364 163 -364 364s163 364 364 364s364 -163 364 -364s-163 -364 -364 -364zM427 62c154 0 277 124 277 288s-123 288 -277 288s-277 -124 -277 -288s123 -288 277 -288zM296 155v390h131c91 0 142 -55 142 -125c0 -49 -24 -92 -68 -112l100 -153h-88
l-86 137h-53v-137h-78zM374 357h42c44 0 72 21 72 63s-28 61 -72 61h-42v-124z" />
    <glyph glyph-name="trademark" unicode="&#x2122;" horiz-adv-x="958" 
d="M154 300v326h-126v74h343v-74h-126v-326h-91zM422 300v400h72l152 -208l152 208h70v-400h-88v245l-122 -167h-24l-122 167v-245h-90z" />
    <glyph glyph-name="servicemark" unicode="&#x2120;" horiz-adv-x="895" 
d="M157 292c-47 0 -87 15 -110 28v82c30 -22 70 -35 104 -35c42 0 63 18 63 43c0 30 -38 46 -80 68s-85 52 -85 113c0 70 56 114 139 114c41 0 76 -10 97 -24v-81c-24 16 -59 31 -92 31c-34 0 -55 -14 -55 -37c0 -29 38 -44 77 -64c45 -24 89 -54 89 -116
c0 -75 -63 -122 -147 -122zM360 300v400h71l152 -208l152 208h71v-400h-89v245l-122 -167h-24l-121 167v-245h-90z" />
    <glyph glyph-name="degree" unicode="&#xb0;" horiz-adv-x="400" 
d="M199 379c-93 0 -167 74 -167 167s74 168 167 168c94 0 168 -75 168 -168s-74 -167 -168 -167zM199 468c45 0 76 34 76 78c0 45 -31 79 -76 79c-43 0 -74 -34 -74 -79c0 -44 31 -78 74 -78z" />
    <glyph glyph-name="copyrightsound" unicode="&#x2117;" horiz-adv-x="854" 
d="M427 -14c-201 0 -364 163 -364 364s163 364 364 364s364 -163 364 -364s-163 -364 -364 -364zM427 62c154 0 277 124 277 288s-123 288 -277 288s-277 -124 -277 -288s123 -288 277 -288zM315 155v390h131c91 0 142 -56 142 -126c0 -68 -44 -130 -142 -130h-53v-134h-78z
M393 354h41c44 0 73 22 73 65c0 42 -28 62 -73 62h-41v-127z" />
    <glyph glyph-name="estimated" unicode="&#x212e;" horiz-adv-x="672" 
d="M336 -14c-164 0 -284 116 -284 274s120 274 284 274c162 0 284 -113 284 -284h-422v-163c38 -27 83 -41 138 -41c62 0 113 18 159 66h84c-53 -83 -143 -126 -243 -126zM198 310h276v120c-38 28 -88 42 -138 42s-100 -14 -138 -42v-120z" />
    <glyph glyph-name="uni250C" unicode="&#x250c;" horiz-adv-x="719" 
d="M269 -312v705h462v-124h-333v-581h-129z" />
    <glyph glyph-name="uni2510" unicode="&#x2510;" horiz-adv-x="719" 
d="M320 -312v581h-332v124h461v-705h-129z" />
    <glyph glyph-name="uni2514" unicode="&#x2514;" horiz-adv-x="712" 
d="M269 218v695h129v-571h333v-124h-462z" />
    <glyph glyph-name="uni2518" unicode="&#x2518;" horiz-adv-x="712" 
d="M-19 218v124h333v571h129v-695h-462z" />
    <glyph glyph-name="lozenge" unicode="&#x25ca;" horiz-adv-x="661" 
d="M362 -8h-63l-247 358l247 358h63l247 -358zM330 134l149 216l-149 216l-148 -216z" />
    <glyph glyph-name="Omega" unicode="&#x3a9;" horiz-adv-x="826" 
d="M453 53c110 68 183 157 183 307c0 145 -100 246 -223 246c-127 0 -223 -101 -223 -246c0 -131 65 -226 183 -307v-53h-315v97h122c-74 57 -128 144 -128 263c0 201 158 354 361 354s361 -153 361 -354c0 -119 -57 -207 -129 -263h123v-97h-315v53z" />
    <glyph glyph-name="Omega" unicode="&#x2126;" horiz-adv-x="826" 
d="M453 53c110 68 183 157 183 307c0 145 -100 246 -223 246c-127 0 -223 -101 -223 -246c0 -131 65 -226 183 -307v-53h-315v97h122c-74 57 -128 144 -128 263c0 201 158 354 361 354s361 -153 361 -354c0 -119 -57 -207 -129 -263h123v-97h-315v53z" />
    <glyph glyph-name="Eszett" unicode="&#x1e9e;" horiz-adv-x="712" 
d="M422 89c83 0 122 57 122 129c0 95 -67 141 -208 141v77l126 140c-26 21 -61 30 -106 30c-97 0 -150 -52 -150 -178v-428h-134v445c0 179 114 269 288 269c118 0 208 -49 256 -125l-142 -147c139 -24 203 -111 203 -224c0 -137 -96 -231 -244 -231c-66 0 -118 18 -151 35
v113c40 -29 90 -46 140 -46z" />
    <glyph glyph-name="NULL" horiz-adv-x="500" 
 />
    <glyph glyph-name="block" unicode="&#x2588;" horiz-adv-x="707" 
d="M-12 -303v1213h730v-1213h-730z" />
    <glyph glyph-name="commaaccent" unicode="&#xf6c3;" horiz-adv-x="500" 
d="M211 -364l-35 39c36 29 65 74 66 107c-43 5 -70 40 -70 79c0 45 32 77 77 77c47 0 79 -36 79 -94c0 -64 -33 -144 -117 -208z" />
    <glyph glyph-name="florin" unicode="&#x192;" horiz-adv-x="359" 
d="M65 -244c-38 0 -73 9 -75 10v91c2 -1 23 -6 46 -6c42 0 66 19 66 68v470h-82v90h82v100c0 102 64 149 156 149c37 0 74 -6 91 -10v-95c-4 2 -35 12 -65 12c-36 0 -58 -19 -58 -60v-96h116v-90h-116v-467c0 -117 -52 -166 -161 -166z" />
    <glyph glyph-name="foursuperior" unicode="&#x2074;" horiz-adv-x="500" 
d="M253 328v67h-157v49l198 258h47v-233h46v-74h-46v-67h-88zM253 469v93l-72 -93h72z" />
    <glyph glyph-name="guillemotleft" unicode="&#xab;" horiz-adv-x="608" 
d="M291 48l-231 163v96l231 163v-111l-128 -100l128 -100v-111zM531 48l-231 163v96l231 163v-111l-128 -100l128 -100v-111z" />
    <glyph glyph-name="guillemotright" unicode="&#xbb;" horiz-adv-x="608" 
d="M77 470l231 -163v-96l-231 -163v111l128 100l-128 100v111zM317 470l231 -163v-96l-231 -163v111l128 100l-128 100v111z" />
    <glyph glyph-name="musicalnote" unicode="&#x266a;" horiz-adv-x="525" 
d="M157 -14c-76 0 -136 52 -136 118c0 67 60 120 136 120c33 0 64 -9 89 -25v501h50c118 0 208 -72 208 -168v-85h-57v26c0 66 -56 113 -136 113h-8v-470c0 -77 -63 -130 -146 -130z" />
    <glyph glyph-name="musicalnotedbl" unicode="&#x266b;" horiz-adv-x="744" 
d="M157 -62c-76 0 -136 52 -136 118c0 67 60 120 136 120c33 0 64 -8 89 -25v470l399 124v-579c0 -77 -63 -130 -146 -130c-76 0 -135 52 -135 118c0 67 59 120 135 120c34 0 64 -8 89 -25v348l-285 -91v-438c0 -77 -63 -130 -146 -130z" />
    <glyph glyph-name="caroncmb.vert" horiz-adv-x="0" orientation="v" 
d="M36 503h-91l20 217h119z" />
    </font>
</defs>
</svg>
