<?xml version="1.0" standalone="no"?>
<!DOCTYPE svg PUBLIC "-//W3C//DTD SVG 1.1//EN" "http://www.w3.org/Graphics/SVG/1.1/DTD/svg11.dtd" >
<svg xmlns="http://www.w3.org/2000/svg" xmlns:xlink="http://www.w3.org/1999/xlink" version="1.1">
<metadata>
Created by FontForge 20150804 at Fri Nov 15 00:08:02 2019
 By cloudconvert
Copyright 2019 Disney Enterprises Inc. This font may not be used without the express permission of The Walt Disney Company.
</metadata>
<defs>
<font id="InspireTWDC-Medium" horiz-adv-x="545" >
  <font-face 
    font-family="InspireTWDC"
    font-weight="500"
    font-stretch="normal"
    units-per-em="1000"
    panose-1="0 0 0 0 0 0 0 2 0 0"
    ascent="750"
    descent="-250"
    x-height="472"
    cap-height="700"
    bbox="-164 -332 1282 976"
    underline-thickness="74"
    underline-position="-137"
    unicode-range="U+0020-FB02"
  />
<missing-glyph horiz-adv-x="500" 
d="M50 -250v1000h400v-1000h-400zM100 -200h300v900h-300v-900z" />
    <glyph glyph-name="fi" unicode="fi" horiz-adv-x="577" 
d="M101 0v400h-81v72h81v112c0 98 54 143 140 143c28 0 56 -6 69 -10v-73c-7 2 -27 10 -49 10c-40 0 -62 -24 -62 -73v-109h110v-72h-110v-400h-98zM450 549c-36 0 -63 20 -63 55c0 36 27 58 63 58s64 -22 64 -58c0 -35 -28 -55 -64 -55zM402 0v472h97v-472h-97z" />
    <glyph glyph-name="fl" unicode="fl" horiz-adv-x="630" 
d="M101 0v400h-81v72h81v112c0 98 54 143 140 143c28 0 56 -6 69 -10v-73c-7 2 -28 10 -49 10c-40 0 -62 -24 -62 -73v-109h110v-72h-110v-400h-98zM539 -8c-98 0 -142 44 -142 151v577h98v-578c0 -52 21 -74 70 -74c21 0 44 5 50 7v-72c-8 -3 -39 -11 -76 -11z" />
    <glyph glyph-name=".notdef" horiz-adv-x="500" 
d="M50 -250v1000h400v-1000h-400zM100 -200h300v900h-300v-900z" />
    <glyph glyph-name="space" unicode=" " horiz-adv-x="272" 
 />
    <glyph glyph-name="uni00A0" unicode="&#xa0;" horiz-adv-x="500" 
 />
    <glyph glyph-name="A" unicode="A" horiz-adv-x="667" 
d="M3 0l309 704h53l298 -704h-111l-59 142h-321l-59 -142h-110zM204 221h257l-125 314z" />
    <glyph glyph-name="Agrave" unicode="&#xc0;" horiz-adv-x="667" 
d="M324 789l-142 147h119l108 -147h-85zM3 0l309 704h53l298 -704h-111l-59 142h-321l-59 -142h-110zM204 221h257l-125 314z" />
    <glyph glyph-name="Aacute" unicode="&#xc1;" horiz-adv-x="667" 
d="M350 789h-85l108 147h119zM3 0l309 704h53l298 -704h-111l-59 142h-321l-59 -142h-110zM204 221h257l-125 314z" />
    <glyph glyph-name="Acircumflex" unicode="&#xc2;" horiz-adv-x="667" 
d="M414 789l-77 86l-76 -86h-81l99 147h116l99 -147h-80zM3 0l309 704h53l298 -704h-111l-59 142h-321l-59 -142h-110zM204 221h257l-125 314z" />
    <glyph glyph-name="Atilde" unicode="&#xc3;" horiz-adv-x="667" 
d="M348 896c16 -17 27 -32 46 -32c21 0 31 20 31 56h69c0 -83 -36 -131 -95 -131c-38 0 -55 16 -72 33c-16 17 -27 31 -45 31c-20 0 -31 -19 -31 -56h-69c0 87 36 131 95 131c36 0 55 -16 71 -32zM3 0l309 704h53l298 -704h-111l-59 142h-321l-59 -142h-110zM204 221h257
l-125 314z" />
    <glyph glyph-name="Adieresis" unicode="&#xc4;" horiz-adv-x="667" 
d="M248 799c-33 0 -56 24 -56 57c0 31 23 55 56 55c31 0 56 -24 56 -55c0 -33 -25 -57 -56 -57zM427 799c-33 0 -56 24 -56 57c0 31 23 55 56 55c32 0 56 -24 56 -55c0 -33 -25 -57 -56 -57zM3 0l309 704h53l298 -704h-111l-59 142h-321l-59 -142h-110zM204 221h257
l-125 314z" />
    <glyph glyph-name="Aring" unicode="&#xc5;" horiz-adv-x="667" 
d="M3 0l288 657c-38 17 -62 55 -62 99c0 60 43 107 108 107s108 -47 108 -107c0 -43 -23 -81 -61 -98l279 -658h-111l-59 142h-321l-59 -142h-110zM337 705c27 0 47 22 47 51c0 28 -20 52 -47 52s-47 -24 -47 -52c0 -29 20 -51 47 -51zM204 221h257l-125 314z" />
    <glyph glyph-name="Amacron" unicode="&#x100;" horiz-adv-x="667" 
d="M473 892v-78h-272v78h272zM3 0l309 704h53l298 -704h-111l-59 142h-321l-59 -142h-110zM204 221h257l-125 314z" />
    <glyph glyph-name="Abreve" unicode="&#x102;" horiz-adv-x="667" 
d="M337 784c-95 0 -147 65 -147 152h77c0 -51 27 -78 70 -78s70 27 70 78h77c0 -87 -52 -152 -147 -152zM3 0l309 704h53l298 -704h-111l-59 142h-321l-59 -142h-110zM204 221h257l-125 314z" />
    <glyph glyph-name="Aogonek" unicode="&#x104;" horiz-adv-x="667" 
d="M3 0l309 704h53l298 -704h-14c-52 -32 -77 -78 -77 -126c0 -36 22 -54 61 -54c23 0 39 7 51 12v-59c-14 -7 -35 -17 -70 -17c-78 0 -123 34 -123 103c0 56 30 109 75 141h-14l-59 142h-321l-59 -142h-110zM204 221h257l-125 314z" />
    <glyph glyph-name="B" unicode="B" horiz-adv-x="621" 
d="M83 0v700h232c146 0 229 -70 229 -171c0 -69 -32 -128 -108 -153v-1c98 -22 149 -87 149 -172c0 -115 -96 -203 -263 -203h-239zM187 408h124c92 0 128 54 128 114c0 61 -43 100 -128 100h-124v-214zM187 78h130c108 0 161 55 161 130c0 78 -57 123 -161 123h-130v-253z
" />
    <glyph glyph-name="C" unicode="C" horiz-adv-x="637" 
d="M397 -13c-218 0 -353 144 -353 363c0 210 138 364 351 364c74 0 145 -15 195 -44v-101c-47 34 -113 59 -189 59c-151 0 -248 -116 -248 -278c0 -168 98 -277 249 -277c77 0 141 27 188 58v-99c-51 -29 -120 -45 -193 -45z" />
    <glyph glyph-name="Ccedilla" unicode="&#xc7;" horiz-adv-x="637" 
d="M354 -182c33 0 54 14 54 37c0 34 -38 43 -97 43l49 90c-196 16 -316 156 -316 362c0 210 138 364 351 364c74 0 145 -15 195 -44v-101c-47 34 -113 59 -189 59c-151 0 -248 -116 -248 -278c0 -168 98 -277 249 -277c77 0 141 27 188 58v-99c-44 -25 -101 -40 -163 -44
l-28 -46c57 -8 89 -39 89 -85c0 -61 -48 -97 -125 -97c-39 0 -68 9 -74 13v56c10 -3 34 -11 65 -11z" />
    <glyph glyph-name="Cacute" unicode="&#x106;" horiz-adv-x="637" 
d="M391 789h-85l108 147h119zM397 -13c-218 0 -353 144 -353 363c0 210 138 364 351 364c74 0 145 -15 195 -44v-101c-47 34 -113 59 -189 59c-151 0 -248 -116 -248 -278c0 -168 98 -277 249 -277c77 0 141 27 188 58v-99c-51 -29 -120 -45 -193 -45z" />
    <glyph glyph-name="Ccircumflex" unicode="&#x108;" horiz-adv-x="637" 
d="M455 789l-77 86l-76 -86h-81l99 147h116l99 -147h-80zM397 -13c-218 0 -353 144 -353 363c0 210 138 364 351 364c74 0 145 -15 195 -44v-101c-47 34 -113 59 -189 59c-151 0 -248 -116 -248 -278c0 -168 98 -277 249 -277c77 0 141 27 188 58v-99
c-51 -29 -120 -45 -193 -45z" />
    <glyph glyph-name="Cdotaccent" unicode="&#x10a;" horiz-adv-x="637" 
d="M378 796c-35 0 -60 24 -60 60c0 34 25 59 60 59c34 0 60 -25 60 -59c0 -36 -27 -60 -60 -60zM397 -13c-218 0 -353 144 -353 363c0 210 138 364 351 364c74 0 145 -15 195 -44v-101c-47 34 -113 59 -189 59c-151 0 -248 -116 -248 -278c0 -168 98 -277 249 -277
c77 0 141 27 188 58v-99c-51 -29 -120 -45 -193 -45z" />
    <glyph glyph-name="Ccaron" unicode="&#x10c;" horiz-adv-x="637" 
d="M455 936h80l-99 -147h-116l-99 147h81l76 -86zM397 -13c-218 0 -353 144 -353 363c0 210 138 364 351 364c74 0 145 -15 195 -44v-101c-47 34 -113 59 -189 59c-151 0 -248 -116 -248 -278c0 -168 98 -277 249 -277c77 0 141 27 188 58v-99c-51 -29 -120 -45 -193 -45z
" />
    <glyph glyph-name="D" unicode="D" horiz-adv-x="718" 
d="M83 0v700h191c266 0 399 -138 399 -350s-133 -350 -399 -350h-191zM189 79h76c196 0 299 99 299 271c0 181 -103 271 -299 271h-76v-542z" />
    <glyph glyph-name="Dcaron" unicode="&#x10e;" horiz-adv-x="718" 
d="M433 936h80l-99 -147h-116l-99 147h81l76 -86zM83 0v700h191c266 0 399 -138 399 -350s-133 -350 -399 -350h-191zM189 79h76c196 0 299 99 299 271c0 181 -103 271 -299 271h-76v-542z" />
    <glyph glyph-name="E" unicode="E" horiz-adv-x="558" 
d="M83 0v700h425v-79h-319v-207h283v-78h-283v-257h319v-79h-425z" />
    <glyph glyph-name="Egrave" unicode="&#xc8;" horiz-adv-x="558" 
d="M286 789l-142 147h119l108 -147h-85zM83 0v700h425v-79h-319v-207h283v-78h-283v-257h319v-79h-425z" />
    <glyph glyph-name="Eacute" unicode="&#xc9;" horiz-adv-x="558" 
d="M312 789h-85l108 147h119zM83 0v700h425v-79h-319v-207h283v-78h-283v-257h319v-79h-425z" />
    <glyph glyph-name="Ecircumflex" unicode="&#xca;" horiz-adv-x="558" 
d="M376 789l-77 86l-76 -86h-81l99 147h116l99 -147h-80zM83 0v700h425v-79h-319v-207h283v-78h-283v-257h319v-79h-425z" />
    <glyph glyph-name="Edieresis" unicode="&#xcb;" horiz-adv-x="558" 
d="M210 799c-33 0 -56 24 -56 57c0 31 23 55 56 55c31 0 56 -24 56 -55c0 -33 -25 -57 -56 -57zM389 799c-33 0 -56 24 -56 57c0 31 23 55 56 55c32 0 56 -24 56 -55c0 -33 -25 -57 -56 -57zM83 0v700h425v-79h-319v-207h283v-78h-283v-257h319v-79h-425z" />
    <glyph glyph-name="Emacron" unicode="&#x112;" horiz-adv-x="558" 
d="M435 892v-78h-272v78h272zM83 0v700h425v-79h-319v-207h283v-78h-283v-257h319v-79h-425z" />
    <glyph glyph-name="Ebreve" unicode="&#x114;" horiz-adv-x="558" 
d="M299 784c-95 0 -147 65 -147 152h77c0 -51 27 -78 70 -78s70 27 70 78h77c0 -87 -52 -152 -147 -152zM83 0v700h425v-79h-319v-207h283v-78h-283v-257h319v-79h-425z" />
    <glyph glyph-name="Edotaccent" unicode="&#x116;" horiz-adv-x="558" 
d="M299 796c-35 0 -60 24 -60 60c0 34 25 59 60 59c34 0 60 -25 60 -59c0 -36 -27 -60 -60 -60zM83 0v700h425v-79h-319v-207h283v-78h-283v-257h319v-79h-425z" />
    <glyph glyph-name="Eogonek" unicode="&#x118;" horiz-adv-x="558" 
d="M83 0v700h425v-79h-319v-207h283v-78h-283v-257h319v-79h-47c-42 -33 -69 -78 -69 -126c0 -36 24 -54 64 -54c23 0 40 6 52 12v-59c-14 -8 -36 -17 -72 -17c-79 0 -125 35 -125 103c0 56 32 108 77 141h-305z" />
    <glyph glyph-name="Ecaron" unicode="&#x11a;" horiz-adv-x="558" 
d="M376 936h80l-99 -147h-116l-99 147h81l76 -86zM83 0v700h425v-79h-319v-207h283v-78h-283v-257h319v-79h-425z" />
    <glyph glyph-name="F" unicode="F" horiz-adv-x="519" 
d="M83 0v700h402v-79h-296v-227h271v-79h-271v-315h-106z" />
    <glyph glyph-name="G" unicode="G" horiz-adv-x="706" 
d="M412 -13c-233 0 -368 135 -368 362c0 218 140 365 364 365c82 0 157 -18 214 -43v-98c-51 29 -126 55 -210 55c-159 0 -259 -104 -259 -279c0 -174 101 -276 265 -276c40 0 85 7 122 18v156h-124v75h224v-293c-58 -25 -143 -42 -228 -42z" />
    <glyph glyph-name="Gcircumflex" unicode="&#x11c;" horiz-adv-x="706" 
d="M458 789l-77 86l-76 -86h-81l99 147h116l99 -147h-80zM412 -13c-233 0 -368 135 -368 362c0 218 140 365 364 365c82 0 157 -18 214 -43v-98c-51 29 -126 55 -210 55c-159 0 -259 -104 -259 -279c0 -174 101 -276 265 -276c40 0 85 7 122 18v156h-124v75h224v-293
c-58 -25 -143 -42 -228 -42z" />
    <glyph glyph-name="Gbreve" unicode="&#x11e;" horiz-adv-x="706" 
d="M381 784c-95 0 -147 65 -147 152h77c0 -51 27 -78 70 -78s70 27 70 78h77c0 -87 -52 -152 -147 -152zM412 -13c-233 0 -368 135 -368 362c0 218 140 365 364 365c82 0 157 -18 214 -43v-98c-51 29 -126 55 -210 55c-159 0 -259 -104 -259 -279c0 -174 101 -276 265 -276
c40 0 85 7 122 18v156h-124v75h224v-293c-58 -25 -143 -42 -228 -42z" />
    <glyph glyph-name="Gdotaccent" unicode="&#x120;" horiz-adv-x="706" 
d="M381 796c-35 0 -60 24 -60 60c0 34 25 59 60 59c34 0 60 -25 60 -59c0 -36 -27 -60 -60 -60zM412 -13c-233 0 -368 135 -368 362c0 218 140 365 364 365c82 0 157 -18 214 -43v-98c-51 29 -126 55 -210 55c-159 0 -259 -104 -259 -279c0 -174 101 -276 265 -276
c40 0 85 7 122 18v156h-124v75h224v-293c-58 -25 -143 -42 -228 -42z" />
    <glyph glyph-name="Gcommaaccent" unicode="&#x122;" horiz-adv-x="706" 
d="M412 -13c-233 0 -368 135 -368 362c0 218 140 365 364 365c82 0 157 -18 214 -43v-98c-51 29 -126 55 -210 55c-159 0 -259 -104 -259 -279c0 -174 101 -276 265 -276c40 0 85 7 122 18v156h-124v75h224v-293c-58 -25 -143 -42 -228 -42zM373 -332l-30 32
c37 30 62 77 62 105c-43 3 -65 36 -65 67c0 37 28 66 66 66c41 0 69 -33 69 -82c0 -57 -30 -131 -102 -188z" />
    <glyph glyph-name="H" unicode="H" horiz-adv-x="725" 
d="M83 0v700h106v-287h347v287h107v-700h-107v329h-347v-329h-106z" />
    <glyph glyph-name="Hcircumflex" unicode="&#x124;" horiz-adv-x="725" 
d="M440 789l-77 86l-76 -86h-81l99 147h116l99 -147h-80zM83 0v700h106v-287h347v287h107v-700h-107v329h-347v-329h-106z" />
    <glyph glyph-name="I" unicode="I" horiz-adv-x="280" 
d="M193 700v-700h-106v700h106z" />
    <glyph glyph-name="Igrave" unicode="&#xcc;" horiz-adv-x="280" 
d="M127 789l-142 147h119l108 -147h-85zM193 700v-700h-106v700h106z" />
    <glyph glyph-name="Iacute" unicode="&#xcd;" horiz-adv-x="280" 
d="M153 789h-85l108 147h119zM193 700v-700h-106v700h106z" />
    <glyph glyph-name="Icircumflex" unicode="&#xce;" horiz-adv-x="280" 
d="M217 789l-77 86l-76 -86h-81l99 147h116l99 -147h-80zM193 700v-700h-106v700h106z" />
    <glyph glyph-name="Idieresis" unicode="&#xcf;" horiz-adv-x="280" 
d="M51 799c-33 0 -56 24 -56 57c0 31 23 55 56 55c31 0 56 -24 56 -55c0 -33 -25 -57 -56 -57zM230 799c-33 0 -56 24 -56 57c0 31 23 55 56 55c32 0 56 -24 56 -55c0 -33 -25 -57 -56 -57zM193 700v-700h-106v700h106z" />
    <glyph glyph-name="Itilde" unicode="&#x128;" horiz-adv-x="280" 
d="M152 896c16 -17 27 -32 46 -32c21 0 31 20 31 56h69c0 -83 -36 -131 -95 -131c-38 0 -55 16 -72 33c-16 17 -27 31 -45 31c-20 0 -31 -19 -31 -56h-69c0 87 36 131 95 131c36 0 55 -16 71 -32zM193 700v-700h-106v700h106z" />
    <glyph glyph-name="Imacron" unicode="&#x12a;" horiz-adv-x="280" 
d="M276 892v-78h-272v78h272zM193 700v-700h-106v700h106z" />
    <glyph glyph-name="Ibreve" unicode="&#x12c;" horiz-adv-x="280" 
d="M140 784c-95 0 -147 65 -147 152h77c0 -51 27 -78 70 -78s70 27 70 78h77c0 -87 -52 -152 -147 -152zM193 700v-700h-106v700h106z" />
    <glyph glyph-name="Iogonek" unicode="&#x12e;" horiz-adv-x="280" 
d="M152 -244c-79 0 -125 34 -125 103c0 56 29 109 74 141h-14v700h106v-700h-12c-46 -31 -73 -78 -73 -126c0 -36 23 -54 64 -54c23 0 39 7 52 12v-59c-14 -8 -36 -17 -72 -17z" />
    <glyph glyph-name="Idotaccent" unicode="&#x130;" horiz-adv-x="280" 
d="M140 796c-35 0 -60 24 -60 60c0 34 25 59 60 59c34 0 60 -25 60 -59c0 -36 -27 -60 -60 -60zM193 700v-700h-106v700h106z" />
    <glyph glyph-name="J" unicode="J" horiz-adv-x="437" 
d="M144 -13c-53 0 -95 10 -125 26v91c34 -20 75 -31 112 -31c79 0 119 48 119 123v504h106v-506c0 -133 -88 -207 -212 -207z" />
    <glyph glyph-name="Jcircumflex" unicode="&#x134;" horiz-adv-x="437" 
d="M382 789l-77 86l-76 -86h-81l99 147h116l99 -147h-80zM144 -13c-53 0 -95 10 -125 26v91c34 -20 75 -31 112 -31c79 0 119 48 119 123v504h106v-506c0 -133 -88 -207 -212 -207z" />
    <glyph glyph-name="K" unicode="K" horiz-adv-x="644" 
d="M83 0v700h106v-374l309 374h119l-267 -308l290 -392h-126l-232 320l-93 -104v-216h-106z" />
    <glyph glyph-name="Kcommaaccent" unicode="&#x136;" horiz-adv-x="644" 
d="M83 0v700h106v-374l309 374h119l-267 -308l290 -392h-126l-232 320l-93 -104v-216h-106zM311 -332l-30 32c37 30 62 77 62 105c-43 3 -65 36 -65 67c0 37 28 66 66 66c41 0 69 -33 69 -82c0 -57 -30 -131 -102 -188z" />
    <glyph glyph-name="L" unicode="L" horiz-adv-x="523" 
d="M83 0v700h106v-621h314v-79h-420z" />
    <glyph glyph-name="Lacute" unicode="&#x139;" horiz-adv-x="523" 
d="M150 789h-85l108 147h119zM83 0v700h106v-621h314v-79h-420z" />
    <glyph glyph-name="Lcommaaccent" unicode="&#x13b;" horiz-adv-x="523" 
d="M83 0v700h106v-621h314v-79h-420zM265 -332l-30 32c37 30 62 77 62 105c-43 3 -65 36 -65 67c0 37 28 66 66 66c41 0 69 -33 69 -82c0 -57 -30 -131 -102 -188z" />
    <glyph glyph-name="Lcaron" unicode="&#x13d;" horiz-adv-x="523" 
d="M421 503h-71l18 217h98zM83 0v700h106v-621h314v-79h-420z" />
    <glyph glyph-name="M" unicode="M" horiz-adv-x="900" 
d="M83 0v705h62l306 -424l305 424h62v-705h-103v492l-246 -339h-37l-247 339v-492h-102z" />
    <glyph glyph-name="N" unicode="N" horiz-adv-x="763" 
d="M616 -4l-431 506v-502h-102v705h63l432 -511v506h102v-704h-64z" />
    <glyph glyph-name="Ntilde" unicode="&#xd1;" horiz-adv-x="763" 
d="M399 896c16 -17 27 -32 46 -32c21 0 31 20 31 56h69c0 -83 -36 -131 -95 -131c-38 0 -55 16 -72 33c-16 17 -27 31 -45 31c-20 0 -31 -19 -31 -56h-69c0 87 36 131 95 131c36 0 55 -16 71 -32zM616 -4l-431 506v-502h-102v705h63l432 -511v506h102v-704h-64z" />
    <glyph glyph-name="Nacute" unicode="&#x143;" horiz-adv-x="763" 
d="M401 789h-85l108 147h119zM616 -4l-431 506v-502h-102v705h63l432 -511v506h102v-704h-64z" />
    <glyph glyph-name="Ncommaaccent" unicode="&#x145;" horiz-adv-x="763" 
d="M616 -4l-431 506v-502h-102v705h63l432 -511v506h102v-704h-64zM355 -332l-30 32c37 30 62 77 62 105c-43 3 -65 36 -65 67c0 37 28 66 66 66c41 0 69 -33 69 -82c0 -57 -30 -131 -102 -188z" />
    <glyph glyph-name="Ncaron" unicode="&#x147;" horiz-adv-x="763" 
d="M465 936h80l-99 -147h-116l-99 147h81l76 -86zM616 -4l-431 506v-502h-102v705h63l432 -511v506h102v-704h-64z" />
    <glyph glyph-name="O" unicode="O" horiz-adv-x="794" 
d="M397 -13c-210 0 -353 148 -353 363c0 216 143 364 353 364c211 0 352 -148 352 -364c0 -215 -141 -363 -352 -363zM397 73c144 0 243 114 243 277s-99 278 -243 278c-145 0 -243 -115 -243 -278s98 -277 243 -277z" />
    <glyph glyph-name="Ograve" unicode="&#xd2;" horiz-adv-x="794" 
d="M384 789l-142 147h119l108 -147h-85zM397 -13c-210 0 -353 148 -353 363c0 216 143 364 353 364c211 0 352 -148 352 -364c0 -215 -141 -363 -352 -363zM397 73c144 0 243 114 243 277s-99 278 -243 278c-145 0 -243 -115 -243 -278s98 -277 243 -277z" />
    <glyph glyph-name="Oacute" unicode="&#xd3;" horiz-adv-x="794" 
d="M410 789h-85l108 147h119zM397 -13c-210 0 -353 148 -353 363c0 216 143 364 353 364c211 0 352 -148 352 -364c0 -215 -141 -363 -352 -363zM397 73c144 0 243 114 243 277s-99 278 -243 278c-145 0 -243 -115 -243 -278s98 -277 243 -277z" />
    <glyph glyph-name="Ocircumflex" unicode="&#xd4;" horiz-adv-x="794" 
d="M474 789l-77 86l-76 -86h-81l99 147h116l99 -147h-80zM397 -13c-210 0 -353 148 -353 363c0 216 143 364 353 364c211 0 352 -148 352 -364c0 -215 -141 -363 -352 -363zM397 73c144 0 243 114 243 277s-99 278 -243 278c-145 0 -243 -115 -243 -278s98 -277 243 -277z
" />
    <glyph glyph-name="Otilde" unicode="&#xd5;" horiz-adv-x="794" 
d="M408 896c16 -17 27 -32 46 -32c21 0 31 20 31 56h69c0 -83 -36 -131 -95 -131c-38 0 -55 16 -72 33c-16 17 -27 31 -45 31c-20 0 -31 -19 -31 -56h-69c0 87 36 131 95 131c36 0 55 -16 71 -32zM397 -13c-210 0 -353 148 -353 363c0 216 143 364 353 364
c211 0 352 -148 352 -364c0 -215 -141 -363 -352 -363zM397 73c144 0 243 114 243 277s-99 278 -243 278c-145 0 -243 -115 -243 -278s98 -277 243 -277z" />
    <glyph glyph-name="Odieresis" unicode="&#xd6;" horiz-adv-x="794" 
d="M308 799c-33 0 -56 24 -56 57c0 31 23 55 56 55c31 0 56 -24 56 -55c0 -33 -25 -57 -56 -57zM487 799c-33 0 -56 24 -56 57c0 31 23 55 56 55c32 0 56 -24 56 -55c0 -33 -25 -57 -56 -57zM397 -13c-210 0 -353 148 -353 363c0 216 143 364 353 364
c211 0 352 -148 352 -364c0 -215 -141 -363 -352 -363zM397 73c144 0 243 114 243 277s-99 278 -243 278c-145 0 -243 -115 -243 -278s98 -277 243 -277z" />
    <glyph glyph-name="Omacron" unicode="&#x14c;" horiz-adv-x="794" 
d="M533 892v-78h-272v78h272zM397 -13c-210 0 -353 148 -353 363c0 216 143 364 353 364c211 0 352 -148 352 -364c0 -215 -141 -363 -352 -363zM397 73c144 0 243 114 243 277s-99 278 -243 278c-145 0 -243 -115 -243 -278s98 -277 243 -277z" />
    <glyph glyph-name="Obreve" unicode="&#x14e;" horiz-adv-x="794" 
d="M397 784c-95 0 -147 65 -147 152h77c0 -51 27 -78 70 -78s70 27 70 78h77c0 -87 -52 -152 -147 -152zM397 -13c-210 0 -353 148 -353 363c0 216 143 364 353 364c211 0 352 -148 352 -364c0 -215 -141 -363 -352 -363zM397 73c144 0 243 114 243 277s-99 278 -243 278
c-145 0 -243 -115 -243 -278s98 -277 243 -277z" />
    <glyph glyph-name="Ohungarumlaut" unicode="&#x150;" horiz-adv-x="794" 
d="M323 789h-82l107 147h117zM502 789h-83l108 147h116zM397 -13c-210 0 -353 148 -353 363c0 216 143 364 353 364c211 0 352 -148 352 -364c0 -215 -141 -363 -352 -363zM397 73c144 0 243 114 243 277s-99 278 -243 278c-145 0 -243 -115 -243 -278s98 -277 243 -277z
" />
    <glyph glyph-name="P" unicode="P" horiz-adv-x="593" 
d="M83 0v700h213c170 0 263 -86 263 -222c0 -130 -96 -222 -266 -222h-104v-256h-106zM189 335h95c109 0 167 49 167 143s-56 143 -164 143h-98v-286z" />
    <glyph glyph-name="Q" unicode="Q" horiz-adv-x="794" 
d="M397 -13c-210 0 -353 148 -353 363c0 216 143 364 353 364c211 0 352 -148 352 -364c0 -104 -33 -193 -91 -256l85 -94h-108l-39 42c-54 -35 -122 -55 -199 -55zM397 73c51 0 97 14 134 41l-117 129l64 50l110 -122c33 47 52 108 52 179c0 163 -99 278 -243 278
c-145 0 -243 -115 -243 -278s98 -277 243 -277z" />
    <glyph glyph-name="R" unicode="R" horiz-adv-x="634" 
d="M83 0v700h218c161 0 253 -79 253 -211c0 -90 -49 -166 -138 -194l218 -295h-123l-199 275h-123v-275h-106zM189 354h93c105 0 164 47 164 135s-59 132 -164 132h-93v-267z" />
    <glyph glyph-name="Racute" unicode="&#x154;" horiz-adv-x="634" 
d="M320 789h-85l108 147h119zM83 0v700h218c161 0 253 -79 253 -211c0 -90 -49 -166 -138 -194l218 -295h-123l-199 275h-123v-275h-106zM189 354h93c105 0 164 47 164 135s-59 132 -164 132h-93v-267z" />
    <glyph glyph-name="Rcommaaccent" unicode="&#x156;" horiz-adv-x="634" 
d="M83 0v700h218c161 0 253 -79 253 -211c0 -90 -49 -166 -138 -194l218 -295h-123l-199 275h-123v-275h-106zM189 354h93c105 0 164 47 164 135s-59 132 -164 132h-93v-267zM308 -332l-30 32c37 30 62 77 62 105c-43 3 -65 36 -65 67c0 37 28 66 66 66c41 0 69 -33 69 -82
c0 -57 -30 -131 -102 -188z" />
    <glyph glyph-name="Rcaron" unicode="&#x158;" horiz-adv-x="634" 
d="M384 936h80l-99 -147h-116l-99 147h81l76 -86zM83 0v700h218c161 0 253 -79 253 -211c0 -90 -49 -166 -138 -194l218 -295h-123l-199 275h-123v-275h-106zM189 354h93c105 0 164 47 164 135s-59 132 -164 132h-93v-267z" />
    <glyph glyph-name="S" unicode="S" horiz-adv-x="532" 
d="M237 -13c-84 0 -151 23 -186 45v95c47 -33 118 -57 184 -57c94 0 144 40 144 115c0 68 -70 102 -156 143c-83 39 -167 92 -167 203c0 109 83 183 225 183c70 0 131 -18 168 -38v-96c-40 26 -100 52 -166 52c-80 0 -125 -32 -125 -96c0 -65 66 -97 138 -131
c101 -48 186 -100 186 -217c0 -118 -94 -201 -245 -201z" />
    <glyph glyph-name="Sacute" unicode="&#x15a;" horiz-adv-x="532" 
d="M281 789h-85l108 147h119zM237 -13c-84 0 -151 23 -186 45v95c47 -33 118 -57 184 -57c94 0 144 40 144 115c0 68 -70 102 -156 143c-83 39 -167 92 -167 203c0 109 83 183 225 183c70 0 131 -18 168 -38v-96c-40 26 -100 52 -166 52c-80 0 -125 -32 -125 -96
c0 -65 66 -97 138 -131c101 -48 186 -100 186 -217c0 -118 -94 -201 -245 -201z" />
    <glyph glyph-name="Scircumflex" unicode="&#x15c;" horiz-adv-x="532" 
d="M345 789l-77 86l-76 -86h-81l99 147h116l99 -147h-80zM237 -13c-84 0 -151 23 -186 45v95c47 -33 118 -57 184 -57c94 0 144 40 144 115c0 68 -70 102 -156 143c-83 39 -167 92 -167 203c0 109 83 183 225 183c70 0 131 -18 168 -38v-96c-40 26 -100 52 -166 52
c-80 0 -125 -32 -125 -96c0 -65 66 -97 138 -131c101 -48 186 -100 186 -217c0 -118 -94 -201 -245 -201z" />
    <glyph glyph-name="Scedilla" unicode="&#x15e;" horiz-adv-x="532" 
d="M206 -182c33 0 54 14 54 37c0 34 -38 43 -97 43l48 90c-72 4 -129 24 -160 44v95c47 -33 118 -57 184 -57c94 0 144 40 144 115c0 68 -70 102 -156 143c-83 39 -167 92 -167 203c0 109 83 183 225 183c70 0 131 -18 168 -38v-96c-40 26 -100 52 -166 52
c-80 0 -125 -32 -125 -96c0 -65 66 -97 138 -131c101 -48 186 -100 186 -217c0 -106 -77 -184 -202 -199l-29 -47c57 -8 89 -39 89 -85c0 -61 -48 -97 -125 -97c-39 0 -68 9 -74 13v56c10 -3 34 -11 65 -11z" />
    <glyph glyph-name="Scaron" unicode="&#x160;" horiz-adv-x="532" 
d="M345 936h80l-99 -147h-116l-99 147h81l76 -86zM237 -13c-84 0 -151 23 -186 45v95c47 -33 118 -57 184 -57c94 0 144 40 144 115c0 68 -70 102 -156 143c-83 39 -167 92 -167 203c0 109 83 183 225 183c70 0 131 -18 168 -38v-96c-40 26 -100 52 -166 52
c-80 0 -125 -32 -125 -96c0 -65 66 -97 138 -131c101 -48 186 -100 186 -217c0 -118 -94 -201 -245 -201z" />
    <glyph glyph-name="Scommaaccent" unicode="&#x218;" horiz-adv-x="532" 
d="M237 -13c-84 0 -151 23 -186 45v95c47 -33 118 -57 184 -57c94 0 144 40 144 115c0 68 -70 102 -156 143c-83 39 -167 92 -167 203c0 109 83 183 225 183c70 0 131 -18 168 -38v-96c-40 26 -100 52 -166 52c-80 0 -125 -32 -125 -96c0 -65 66 -97 138 -131
c101 -48 186 -100 186 -217c0 -118 -94 -201 -245 -201zM213 -332l-30 32c37 30 62 77 62 105c-43 3 -65 36 -65 67c0 37 28 66 66 66c41 0 69 -33 69 -82c0 -57 -30 -131 -102 -188z" />
    <glyph glyph-name="T" unicode="T" horiz-adv-x="553" 
d="M223 0v618h-217v82h542v-82h-218v-618h-107z" />
    <glyph glyph-name="Tcaron" unicode="&#x164;" horiz-adv-x="553" 
d="M354 936h80l-99 -147h-116l-99 147h81l76 -86zM223 0v618h-217v82h542v-82h-218v-618h-107z" />
    <glyph glyph-name="Tcommaaccent" unicode="&#x21a;" horiz-adv-x="553" 
d="M223 0v618h-217v82h542v-82h-218v-618h-107zM244 -332l-30 32c37 30 62 77 62 105c-43 3 -65 36 -65 67c0 37 28 66 66 66c41 0 69 -33 69 -82c0 -57 -30 -131 -102 -188z" />
    <glyph glyph-name="U" unicode="U" horiz-adv-x="720" 
d="M360 -13c-174 0 -280 89 -280 260v453h107v-442c0 -127 57 -185 175 -185c111 0 171 58 171 185v442h106v-453c0 -170 -106 -260 -279 -260z" />
    <glyph glyph-name="Ugrave" unicode="&#xd9;" horiz-adv-x="720" 
d="M345 789l-142 147h119l108 -147h-85zM360 -13c-174 0 -280 89 -280 260v453h107v-442c0 -127 57 -185 175 -185c111 0 171 58 171 185v442h106v-453c0 -170 -106 -260 -279 -260z" />
    <glyph glyph-name="Uacute" unicode="&#xda;" horiz-adv-x="720" 
d="M371 789h-85l108 147h119zM360 -13c-174 0 -280 89 -280 260v453h107v-442c0 -127 57 -185 175 -185c111 0 171 58 171 185v442h106v-453c0 -170 -106 -260 -279 -260z" />
    <glyph glyph-name="Ucircumflex" unicode="&#xdb;" horiz-adv-x="720" 
d="M435 789l-77 86l-76 -86h-81l99 147h116l99 -147h-80zM360 -13c-174 0 -280 89 -280 260v453h107v-442c0 -127 57 -185 175 -185c111 0 171 58 171 185v442h106v-453c0 -170 -106 -260 -279 -260z" />
    <glyph glyph-name="Udieresis" unicode="&#xdc;" horiz-adv-x="720" 
d="M269 799c-33 0 -56 24 -56 57c0 31 23 55 56 55c31 0 56 -24 56 -55c0 -33 -25 -57 -56 -57zM448 799c-33 0 -56 24 -56 57c0 31 23 55 56 55c32 0 56 -24 56 -55c0 -33 -25 -57 -56 -57zM360 -13c-174 0 -280 89 -280 260v453h107v-442c0 -127 57 -185 175 -185
c111 0 171 58 171 185v442h106v-453c0 -170 -106 -260 -279 -260z" />
    <glyph glyph-name="Utilde" unicode="&#x168;" horiz-adv-x="720" 
d="M369 896c16 -17 27 -32 46 -32c21 0 31 20 31 56h69c0 -83 -36 -131 -95 -131c-38 0 -55 16 -72 33c-16 17 -27 31 -45 31c-20 0 -31 -19 -31 -56h-69c0 87 36 131 95 131c36 0 55 -16 71 -32zM360 -13c-174 0 -280 89 -280 260v453h107v-442c0 -127 57 -185 175 -185
c111 0 171 58 171 185v442h106v-453c0 -170 -106 -260 -279 -260z" />
    <glyph glyph-name="Umacron" unicode="&#x16a;" horiz-adv-x="720" 
d="M494 892v-78h-272v78h272zM360 -13c-174 0 -280 89 -280 260v453h107v-442c0 -127 57 -185 175 -185c111 0 171 58 171 185v442h106v-453c0 -170 -106 -260 -279 -260z" />
    <glyph glyph-name="Ubreve" unicode="&#x16c;" horiz-adv-x="720" 
d="M358 784c-95 0 -147 65 -147 152h77c0 -51 27 -78 70 -78s70 27 70 78h77c0 -87 -52 -152 -147 -152zM360 -13c-174 0 -280 89 -280 260v453h107v-442c0 -127 57 -185 175 -185c111 0 171 58 171 185v442h106v-453c0 -170 -106 -260 -279 -260z" />
    <glyph glyph-name="Uring" unicode="&#x16e;" horiz-adv-x="720" 
d="M358 761c-65 0 -108 49 -108 108c0 60 43 107 108 107s108 -47 108 -107c0 -59 -43 -108 -108 -108zM358 818c27 0 47 22 47 51c0 28 -20 52 -47 52s-47 -24 -47 -52c0 -29 20 -51 47 -51zM360 -13c-174 0 -280 89 -280 260v453h107v-442c0 -127 57 -185 175 -185
c111 0 171 58 171 185v442h106v-453c0 -170 -106 -260 -279 -260z" />
    <glyph glyph-name="Uhungarumlaut" unicode="&#x170;" horiz-adv-x="720" 
d="M284 789h-82l107 147h117zM463 789h-83l108 147h116zM360 -13c-174 0 -280 89 -280 260v453h107v-442c0 -127 57 -185 175 -185c111 0 171 58 171 185v442h106v-453c0 -170 -106 -260 -279 -260z" />
    <glyph glyph-name="Uogonek" unicode="&#x172;" horiz-adv-x="715" 
d="M358 -13c-174 0 -280 89 -280 260v453h106v-442c0 -127 57 -185 176 -185c111 0 171 58 171 185v442h106v-453c0 -125 -53 -183 -128 -246c-42 -35 -69 -78 -69 -127c0 -36 23 -54 63 -54c24 0 40 7 53 12v-59c-15 -8 -37 -17 -73 -17c-79 0 -124 34 -124 103
c0 51 26 100 66 133c-21 -4 -43 -5 -67 -5z" />
    <glyph glyph-name="V" unicode="V" horiz-adv-x="639" 
d="M289 -4l-286 704h113l206 -528l204 528h110l-290 -704h-57z" />
    <glyph glyph-name="W" unicode="W" horiz-adv-x="974" 
d="M739 -4h-56l-198 525l-198 -525h-56l-226 704h107l154 -512l191 515h56l194 -516l159 513h103z" />
    <glyph glyph-name="Wcircumflex" unicode="&#x174;" horiz-adv-x="974" 
d="M563 789l-77 86l-76 -86h-81l99 147h116l99 -147h-80zM739 -4h-56l-198 525l-198 -525h-56l-226 704h107l154 -512l191 515h56l194 -516l159 513h103z" />
    <glyph glyph-name="Wgrave" unicode="&#x1e80;" horiz-adv-x="974" 
d="M473 789l-142 147h119l108 -147h-85zM739 -4h-56l-198 525l-198 -525h-56l-226 704h107l154 -512l191 515h56l194 -516l159 513h103z" />
    <glyph glyph-name="Wacute" unicode="&#x1e82;" horiz-adv-x="974" 
d="M499 789h-85l108 147h119zM739 -4h-56l-198 525l-198 -525h-56l-226 704h107l154 -512l191 515h56l194 -516l159 513h103z" />
    <glyph glyph-name="Wdieresis" unicode="&#x1e84;" horiz-adv-x="974" 
d="M397 799c-33 0 -56 24 -56 57c0 31 23 55 56 55c31 0 56 -24 56 -55c0 -33 -25 -57 -56 -57zM576 799c-33 0 -56 24 -56 57c0 31 23 55 56 55c32 0 56 -24 56 -55c0 -33 -25 -57 -56 -57zM739 -4h-56l-198 525l-198 -525h-56l-226 704h107l154 -512l191 515h56l194 -516
l159 513h103z" />
    <glyph glyph-name="X" unicode="X" horiz-adv-x="617" 
d="M488 0l-183 280l-180 -280h-113l239 363l-224 337h117l167 -255l165 255h113l-224 -337l241 -363h-118z" />
    <glyph glyph-name="Y" unicode="Y" horiz-adv-x="576" 
d="M235 0v283l-237 417h115l177 -323l175 323h113l-237 -417v-283h-106z" />
    <glyph glyph-name="Yacute" unicode="&#xdd;" horiz-adv-x="576" 
d="M302 789h-85l108 147h119zM235 0v283l-237 417h115l177 -323l175 323h113l-237 -417v-283h-106z" />
    <glyph glyph-name="Ycircumflex" unicode="&#x176;" horiz-adv-x="576" 
d="M366 789l-77 86l-76 -86h-81l99 147h116l99 -147h-80zM235 0v283l-237 417h115l177 -323l175 323h113l-237 -417v-283h-106z" />
    <glyph glyph-name="Ydieresis" unicode="&#x178;" horiz-adv-x="576" 
d="M200 799c-33 0 -56 24 -56 57c0 31 23 55 56 55c31 0 56 -24 56 -55c0 -33 -25 -57 -56 -57zM379 799c-33 0 -56 24 -56 57c0 31 23 55 56 55c32 0 56 -24 56 -55c0 -33 -25 -57 -56 -57zM235 0v283l-237 417h115l177 -323l175 323h113l-237 -417v-283h-106z" />
    <glyph glyph-name="Ygrave" unicode="&#x1ef2;" horiz-adv-x="576" 
d="M276 789l-142 147h119l108 -147h-85zM235 0v283l-237 417h115l177 -323l175 323h113l-237 -417v-283h-106z" />
    <glyph glyph-name="Z" unicode="Z" horiz-adv-x="550" 
d="M31 0v35l336 586h-326v79h464v-36l-338 -585h353v-79h-489z" />
    <glyph glyph-name="Zacute" unicode="&#x179;" horiz-adv-x="550" 
d="M282 789h-85l108 147h119zM31 0v35l336 586h-326v79h464v-36l-338 -585h353v-79h-489z" />
    <glyph glyph-name="Zdotaccent" unicode="&#x17b;" horiz-adv-x="550" 
d="M269 796c-35 0 -60 24 -60 60c0 34 25 59 60 59c34 0 60 -25 60 -59c0 -36 -27 -60 -60 -60zM31 0v35l336 586h-326v79h464v-36l-338 -585h353v-79h-489z" />
    <glyph glyph-name="Zcaron" unicode="&#x17d;" horiz-adv-x="550" 
d="M346 936h80l-99 -147h-116l-99 147h81l76 -86zM31 0v35l336 586h-326v79h464v-36l-338 -585h353v-79h-489z" />
    <glyph glyph-name="AE" unicode="&#xc6;" horiz-adv-x="937" 
d="M462 0v142h-265l-88 -142h-110l445 700h443v-79h-319v-207h283v-78h-283v-257h319v-79h-425zM246 221h216v347z" />
    <glyph glyph-name="Eth" unicode="&#xd0;" horiz-adv-x="739" 
d="M104 0v307h-80v83h80v310h191c266 0 399 -138 399 -350s-133 -350 -399 -350h-191zM210 79h76c196 0 299 99 299 271c0 181 -103 271 -299 271h-76v-231h153v-83h-153v-228z" />
    <glyph glyph-name="Oslash" unicode="&#xd8;" horiz-adv-x="794" 
d="M173 0h-108l73 92c-60 63 -94 153 -94 258c0 216 143 364 353 364c74 0 140 -18 194 -52l30 38h108l-73 -91c59 -64 93 -153 93 -259c0 -215 -141 -363 -352 -363c-74 0 -139 18 -193 51zM154 350c0 -69 18 -130 49 -176l328 413c-37 26 -83 41 -134 41
c-145 0 -243 -115 -243 -278zM397 73c144 0 243 114 243 277c0 69 -18 129 -49 176l-328 -413c37 -26 83 -40 134 -40z" />
    <glyph glyph-name="Thorn" unicode="&#xde;" horiz-adv-x="596" 
d="M83 0v700h106v-118h107c171 0 266 -86 266 -222c0 -131 -98 -222 -269 -222h-104v-138h-106zM189 216h95c109 0 167 50 167 144c0 93 -56 143 -164 143h-98v-287z" />
    <glyph glyph-name="Dcroat" unicode="&#x110;" horiz-adv-x="739" 
d="M104 0v307h-80v83h80v310h191c266 0 399 -138 399 -350s-133 -350 -399 -350h-191zM210 79h76c196 0 299 99 299 271c0 181 -103 271 -299 271h-76v-231h153v-83h-153v-228z" />
    <glyph glyph-name="Lslash" unicode="&#x141;" horiz-adv-x="540" 
d="M100 0v266l-73 -27v86l73 27v348h106v-308l139 52v-87l-139 -52v-226h314v-79h-420z" />
    <glyph glyph-name="OE" unicode="&#x152;" horiz-adv-x="1004" 
d="M44 350c0 212 134 350 400 350h510v-79h-319v-207h283v-78h-283v-257h319v-79h-510c-266 0 -400 138 -400 350zM529 621h-76c-197 0 -300 -99 -300 -271c0 -181 103 -271 300 -271h76v542z" />
    <glyph glyph-name="Delta" unicode="&#x394;" horiz-adv-x="667" 
d="M3 0l309 704h53l298 -704h-660zM145 79h375l-184 456z" />
    <glyph glyph-name="Delta" unicode="&#x2206;" horiz-adv-x="667" 
d="M3 0l309 704h53l298 -704h-660zM145 79h375l-184 456z" />
    <glyph glyph-name="a" unicode="a" horiz-adv-x="497" 
d="M189 -8c-92 0 -153 56 -153 148c0 84 73 149 194 149c35 0 65 -4 92 -14v40c0 64 -31 98 -108 98c-66 0 -118 -24 -141 -36v76c21 12 82 31 158 31c122 0 188 -53 188 -158v-201c0 -46 15 -67 39 -67c11 0 19 3 24 6v-57s-19 -13 -60 -13c-45 0 -81 17 -92 68
c-33 -47 -74 -70 -141 -70zM219 63c46 0 84 27 103 64v91c-19 7 -42 11 -74 11c-76 0 -110 -38 -110 -87c0 -51 29 -79 81 -79z" />
    <glyph glyph-name="agrave" unicode="&#xe0;" horiz-adv-x="497" 
d="M226 561l-142 147h119l108 -147h-85zM189 -8c-92 0 -153 56 -153 148c0 84 73 149 194 149c35 0 65 -4 92 -14v40c0 64 -31 98 -108 98c-66 0 -118 -24 -141 -36v76c21 12 82 31 158 31c122 0 188 -53 188 -158v-201c0 -46 15 -67 39 -67c11 0 19 3 24 6v-57
s-19 -13 -60 -13c-45 0 -81 17 -92 68c-33 -47 -74 -70 -141 -70zM219 63c46 0 84 27 103 64v91c-19 7 -42 11 -74 11c-76 0 -110 -38 -110 -87c0 -51 29 -79 81 -79z" />
    <glyph glyph-name="aacute" unicode="&#xe1;" horiz-adv-x="497" 
d="M252 561h-85l108 147h119zM189 -8c-92 0 -153 56 -153 148c0 84 73 149 194 149c35 0 65 -4 92 -14v40c0 64 -31 98 -108 98c-66 0 -118 -24 -141 -36v76c21 12 82 31 158 31c122 0 188 -53 188 -158v-201c0 -46 15 -67 39 -67c11 0 19 3 24 6v-57s-19 -13 -60 -13
c-45 0 -81 17 -92 68c-33 -47 -74 -70 -141 -70zM219 63c46 0 84 27 103 64v91c-19 7 -42 11 -74 11c-76 0 -110 -38 -110 -87c0 -51 29 -79 81 -79z" />
    <glyph glyph-name="acircumflex" unicode="&#xe2;" horiz-adv-x="497" 
d="M316 561l-77 86l-76 -86h-81l99 147h116l99 -147h-80zM189 -8c-92 0 -153 56 -153 148c0 84 73 149 194 149c35 0 65 -4 92 -14v40c0 64 -31 98 -108 98c-66 0 -118 -24 -141 -36v76c21 12 82 31 158 31c122 0 188 -53 188 -158v-201c0 -46 15 -67 39 -67c11 0 19 3 24 6
v-57s-19 -13 -60 -13c-45 0 -81 17 -92 68c-33 -47 -74 -70 -141 -70zM219 63c46 0 84 27 103 64v91c-19 7 -42 11 -74 11c-76 0 -110 -38 -110 -87c0 -51 29 -79 81 -79z" />
    <glyph glyph-name="atilde" unicode="&#xe3;" horiz-adv-x="497" 
d="M251 667c16 -17 27 -32 46 -32c21 0 31 20 31 56h69c0 -83 -36 -131 -95 -131c-38 0 -55 16 -72 33c-16 17 -27 31 -45 31c-20 0 -31 -19 -31 -56h-69c0 87 36 131 95 131c36 0 55 -16 71 -32zM189 -8c-92 0 -153 56 -153 148c0 84 73 149 194 149c35 0 65 -4 92 -14v40
c0 64 -31 98 -108 98c-66 0 -118 -24 -141 -36v76c21 12 82 31 158 31c122 0 188 -53 188 -158v-201c0 -46 15 -67 39 -67c11 0 19 3 24 6v-57s-19 -13 -60 -13c-45 0 -81 17 -92 68c-33 -47 -74 -70 -141 -70zM219 63c46 0 84 27 103 64v91c-19 7 -42 11 -74 11
c-76 0 -110 -38 -110 -87c0 -51 29 -79 81 -79z" />
    <glyph glyph-name="adieresis" unicode="&#xe4;" horiz-adv-x="497" 
d="M150 571c-33 0 -56 24 -56 57c0 31 23 55 56 55c31 0 56 -24 56 -55c0 -33 -25 -57 -56 -57zM329 571c-33 0 -56 24 -56 57c0 31 23 55 56 55c32 0 56 -24 56 -55c0 -33 -25 -57 -56 -57zM189 -8c-92 0 -153 56 -153 148c0 84 73 149 194 149c35 0 65 -4 92 -14v40
c0 64 -31 98 -108 98c-66 0 -118 -24 -141 -36v76c21 12 82 31 158 31c122 0 188 -53 188 -158v-201c0 -46 15 -67 39 -67c11 0 19 3 24 6v-57s-19 -13 -60 -13c-45 0 -81 17 -92 68c-33 -47 -74 -70 -141 -70zM219 63c46 0 84 27 103 64v91c-19 7 -42 11 -74 11
c-76 0 -110 -38 -110 -87c0 -51 29 -79 81 -79z" />
    <glyph glyph-name="aring" unicode="&#xe5;" horiz-adv-x="497" 
d="M240 534c-65 0 -108 49 -108 108c0 60 43 107 108 107s108 -47 108 -107c0 -59 -43 -108 -108 -108zM240 591c27 0 47 22 47 51c0 28 -20 52 -47 52s-47 -24 -47 -52c0 -29 20 -51 47 -51zM189 -8c-92 0 -153 56 -153 148c0 84 73 149 194 149c35 0 65 -4 92 -14v40
c0 64 -31 98 -108 98c-66 0 -118 -24 -141 -36v76c21 12 82 31 158 31c122 0 188 -53 188 -158v-201c0 -46 15 -67 39 -67c11 0 19 3 24 6v-57s-19 -13 -60 -13c-45 0 -81 17 -92 68c-33 -47 -74 -70 -141 -70zM219 63c46 0 84 27 103 64v91c-19 7 -42 11 -74 11
c-76 0 -110 -38 -110 -87c0 -51 29 -79 81 -79z" />
    <glyph glyph-name="amacron" unicode="&#x101;" horiz-adv-x="497" 
d="M375 664v-78h-272v78h272zM189 -8c-92 0 -153 56 -153 148c0 84 73 149 194 149c35 0 65 -4 92 -14v40c0 64 -31 98 -108 98c-66 0 -118 -24 -141 -36v76c21 12 82 31 158 31c122 0 188 -53 188 -158v-201c0 -46 15 -67 39 -67c11 0 19 3 24 6v-57s-19 -13 -60 -13
c-45 0 -81 17 -92 68c-33 -47 -74 -70 -141 -70zM219 63c46 0 84 27 103 64v91c-19 7 -42 11 -74 11c-76 0 -110 -38 -110 -87c0 -51 29 -79 81 -79z" />
    <glyph glyph-name="abreve" unicode="&#x103;" horiz-adv-x="497" 
d="M239 556c-95 0 -147 65 -147 152h77c0 -51 27 -78 70 -78s70 27 70 78h77c0 -87 -52 -152 -147 -152zM189 -8c-92 0 -153 56 -153 148c0 84 73 149 194 149c35 0 65 -4 92 -14v40c0 64 -31 98 -108 98c-66 0 -118 -24 -141 -36v76c21 12 82 31 158 31
c122 0 188 -53 188 -158v-201c0 -46 15 -67 39 -67c11 0 19 3 24 6v-57s-19 -13 -60 -13c-45 0 -81 17 -92 68c-33 -47 -74 -70 -141 -70zM219 63c46 0 84 27 103 64v91c-19 7 -42 11 -74 11c-76 0 -110 -38 -110 -87c0 -51 29 -79 81 -79z" />
    <glyph glyph-name="aogonek" unicode="&#x105;" horiz-adv-x="497" 
d="M189 -8c-92 0 -153 56 -153 148c0 84 73 149 194 149c35 0 65 -4 92 -14v40c0 64 -31 98 -108 98c-66 0 -118 -24 -141 -36v76c21 12 82 31 158 31c122 0 188 -53 188 -158v-200c0 -46 15 -67 39 -67c11 0 19 3 24 6v-58c-51 -23 -102 -68 -102 -134c0 -35 21 -53 56 -53
c21 0 35 4 46 10v-59c-13 -8 -33 -15 -66 -15c-74 0 -117 34 -117 102c0 56 35 109 82 143c-26 10 -44 28 -51 61c-33 -47 -74 -70 -141 -70zM219 63c46 0 84 27 103 64v91c-19 7 -42 11 -74 11c-77 0 -113 -38 -113 -87c0 -51 31 -79 84 -79z" />
    <glyph glyph-name="b" unicode="b" horiz-adv-x="558" 
d="M301 -11c-60 0 -110 22 -150 67c-6 -36 -11 -56 -11 -56h-81c1 11 5 63 5 118v602h98v-292c38 33 86 56 149 56c129 0 206 -101 206 -244s-85 -251 -216 -251zM278 62c86 0 139 68 139 180c0 111 -52 167 -139 167c-48 0 -86 -24 -116 -53v-236c15 -16 53 -58 116 -58z
" />
    <glyph glyph-name="c" unicode="c" horiz-adv-x="464" 
d="M284 -12c-146 0 -244 99 -244 248c0 153 99 248 248 248c55 0 107 -15 134 -31v-86c-28 20 -72 40 -125 40c-101 0 -155 -66 -155 -170c0 -108 56 -172 154 -172c53 0 96 17 126 39v-84c-34 -20 -83 -32 -138 -32z" />
    <glyph glyph-name="ccedilla" unicode="&#xe7;" horiz-adv-x="464" 
d="M235 -182c33 0 54 14 54 37c0 34 -38 43 -97 43l50 93c-122 17 -202 111 -202 245c0 153 99 248 248 248c55 0 107 -15 134 -31v-86c-28 20 -72 40 -125 40c-101 0 -155 -66 -155 -170c0 -108 56 -172 154 -172c53 0 96 17 126 39v-84c-29 -17 -69 -28 -114 -31l-28 -47
c57 -8 89 -39 89 -85c0 -61 -48 -97 -125 -97c-39 0 -68 9 -74 13v56c10 -3 34 -11 65 -11z" />
    <glyph glyph-name="cacute" unicode="&#x107;" horiz-adv-x="464" 
d="M287 561h-85l108 147h119zM284 -12c-146 0 -244 99 -244 248c0 153 99 248 248 248c55 0 107 -15 134 -31v-86c-28 20 -72 40 -125 40c-101 0 -155 -66 -155 -170c0 -108 56 -172 154 -172c53 0 96 17 126 39v-84c-34 -20 -83 -32 -138 -32z" />
    <glyph glyph-name="ccircumflex" unicode="&#x109;" horiz-adv-x="464" 
d="M351 561l-77 86l-76 -86h-81l99 147h116l99 -147h-80zM284 -12c-146 0 -244 99 -244 248c0 153 99 248 248 248c55 0 107 -15 134 -31v-86c-28 20 -72 40 -125 40c-101 0 -155 -66 -155 -170c0 -108 56 -172 154 -172c53 0 96 17 126 39v-84c-34 -20 -83 -32 -138 -32z
" />
    <glyph glyph-name="cdotaccent" unicode="&#x10b;" horiz-adv-x="464" 
d="M280 568c-35 0 -60 24 -60 60c0 34 25 59 60 59c34 0 60 -25 60 -59c0 -36 -27 -60 -60 -60zM284 -12c-146 0 -244 99 -244 248c0 153 99 248 248 248c55 0 107 -15 134 -31v-86c-28 20 -72 40 -125 40c-101 0 -155 -66 -155 -170c0 -108 56 -172 154 -172
c53 0 96 17 126 39v-84c-34 -20 -83 -32 -138 -32z" />
    <glyph glyph-name="ccaron" unicode="&#x10d;" horiz-adv-x="464" 
d="M357 708h80l-99 -147h-116l-99 147h81l76 -86zM284 -12c-146 0 -244 99 -244 248c0 153 99 248 248 248c55 0 107 -15 134 -31v-86c-28 20 -72 40 -125 40c-101 0 -155 -66 -155 -170c0 -108 56 -172 154 -172c53 0 96 17 126 39v-84c-34 -20 -83 -32 -138 -32z" />
    <glyph glyph-name="d" unicode="d" horiz-adv-x="557" 
d="M249 -11c-129 0 -208 97 -208 241c0 146 87 254 217 254c62 0 102 -22 138 -57v293h98v-601c0 -55 4 -107 5 -119h-83s-7 24 -10 55c-39 -41 -88 -66 -157 -66zM276 62c50 0 90 24 120 57v233c-18 19 -56 57 -118 57c-87 0 -137 -67 -137 -177c0 -113 48 -170 135 -170z
" />
    <glyph glyph-name="dcaron" unicode="&#x10f;" horiz-adv-x="681" 
d="M249 -11c-129 0 -208 97 -208 241c0 146 87 254 217 254c62 0 102 -22 138 -57v293h98v-601c0 -55 4 -107 5 -119h-83s-7 24 -10 55c-39 -41 -88 -66 -157 -66zM662 503h-71l18 217h98zM276 62c50 0 90 24 120 57v233c-18 19 -56 57 -118 57c-87 0 -137 -67 -137 -177
c0 -113 48 -170 135 -170z" />
    <glyph glyph-name="e" unicode="e" horiz-adv-x="523" 
d="M288 -12c-153 0 -248 98 -248 249c0 146 92 247 232 247c127 0 211 -88 211 -215c0 -19 -2 -44 -2 -49h-341c6 -97 55 -156 159 -156c60 0 114 16 160 49v-76c-45 -33 -107 -49 -171 -49zM142 284h246c2 76 -42 129 -120 129c-71 0 -119 -54 -126 -129z" />
    <glyph glyph-name="egrave" unicode="&#xe8;" horiz-adv-x="523" 
d="M252 561l-142 147h119l108 -147h-85zM288 -12c-153 0 -248 98 -248 249c0 146 92 247 232 247c127 0 211 -88 211 -215c0 -19 -2 -44 -2 -49h-341c6 -97 55 -156 159 -156c60 0 114 16 160 49v-76c-45 -33 -107 -49 -171 -49zM142 284h246c2 76 -42 129 -120 129
c-71 0 -119 -54 -126 -129z" />
    <glyph glyph-name="eacute" unicode="&#xe9;" horiz-adv-x="523" 
d="M278 561h-85l108 147h119zM288 -12c-153 0 -248 98 -248 249c0 146 92 247 232 247c127 0 211 -88 211 -215c0 -19 -2 -44 -2 -49h-341c6 -97 55 -156 159 -156c60 0 114 16 160 49v-76c-45 -33 -107 -49 -171 -49zM142 284h246c2 76 -42 129 -120 129
c-71 0 -119 -54 -126 -129z" />
    <glyph glyph-name="ecircumflex" unicode="&#xea;" horiz-adv-x="523" 
d="M342 561l-77 86l-76 -86h-81l99 147h116l99 -147h-80zM288 -12c-153 0 -248 98 -248 249c0 146 92 247 232 247c127 0 211 -88 211 -215c0 -19 -2 -44 -2 -49h-341c6 -97 55 -156 159 -156c60 0 114 16 160 49v-76c-45 -33 -107 -49 -171 -49zM142 284h246
c2 76 -42 129 -120 129c-71 0 -119 -54 -126 -129z" />
    <glyph glyph-name="edieresis" unicode="&#xeb;" horiz-adv-x="523" 
d="M176 571c-33 0 -56 24 -56 57c0 31 23 55 56 55c31 0 56 -24 56 -55c0 -33 -25 -57 -56 -57zM355 571c-33 0 -56 24 -56 57c0 31 23 55 56 55c32 0 56 -24 56 -55c0 -33 -25 -57 -56 -57zM288 -12c-153 0 -248 98 -248 249c0 146 92 247 232 247c127 0 211 -88 211 -215
c0 -19 -2 -44 -2 -49h-341c6 -97 55 -156 159 -156c60 0 114 16 160 49v-76c-45 -33 -107 -49 -171 -49zM142 284h246c2 76 -42 129 -120 129c-71 0 -119 -54 -126 -129z" />
    <glyph glyph-name="emacron" unicode="&#x113;" horiz-adv-x="523" 
d="M401 664v-78h-272v78h272zM288 -12c-153 0 -248 98 -248 249c0 146 92 247 232 247c127 0 211 -88 211 -215c0 -19 -2 -44 -2 -49h-341c6 -97 55 -156 159 -156c60 0 114 16 160 49v-76c-45 -33 -107 -49 -171 -49zM142 284h246c2 76 -42 129 -120 129
c-71 0 -119 -54 -126 -129z" />
    <glyph glyph-name="ebreve" unicode="&#x115;" horiz-adv-x="523" 
d="M265 556c-95 0 -147 65 -147 152h77c0 -51 27 -78 70 -78s70 27 70 78h77c0 -87 -52 -152 -147 -152zM288 -12c-153 0 -248 98 -248 249c0 146 92 247 232 247c127 0 211 -88 211 -215c0 -19 -2 -44 -2 -49h-341c6 -97 55 -156 159 -156c60 0 114 16 160 49v-76
c-45 -33 -107 -49 -171 -49zM142 284h246c2 76 -42 129 -120 129c-71 0 -119 -54 -126 -129z" />
    <glyph glyph-name="edotaccent" unicode="&#x117;" horiz-adv-x="523" 
d="M265 568c-35 0 -60 24 -60 60c0 34 25 59 60 59c34 0 60 -25 60 -59c0 -36 -27 -60 -60 -60zM288 -12c-153 0 -248 98 -248 249c0 146 92 247 232 247c127 0 211 -88 211 -215c0 -19 -2 -44 -2 -49h-341c6 -97 55 -156 159 -156c60 0 114 16 160 49v-76
c-45 -33 -107 -49 -171 -49zM142 284h246c2 76 -42 129 -120 129c-71 0 -119 -54 -126 -129z" />
    <glyph glyph-name="eogonek" unicode="&#x119;" horiz-adv-x="522" 
d="M288 -12c-152 0 -246 98 -246 249c0 146 91 247 230 247c127 0 211 -89 211 -215c0 -12 -2 -49 -2 -49h-341c6 -97 55 -156 159 -156c60 0 114 16 160 49v-76c-24 -18 -39 -21 -64 -38c-49 -32 -73 -79 -73 -125c0 -36 23 -54 63 -54c24 0 40 7 53 12v-59
c-15 -8 -36 -17 -72 -17c-80 0 -125 34 -125 103c0 50 25 97 62 130c-5 -1 -10 -1 -15 -1zM142 284h246c2 76 -42 129 -120 129c-71 0 -119 -54 -126 -129z" />
    <glyph glyph-name="ecaron" unicode="&#x11b;" horiz-adv-x="523" 
d="M342 708h80l-99 -147h-116l-99 147h81l76 -86zM288 -12c-153 0 -248 98 -248 249c0 146 92 247 232 247c127 0 211 -88 211 -215c0 -19 -2 -44 -2 -49h-341c6 -97 55 -156 159 -156c60 0 114 16 160 49v-76c-45 -33 -107 -49 -171 -49zM142 284h246
c2 76 -42 129 -120 129c-71 0 -119 -54 -126 -129z" />
    <glyph glyph-name="f" unicode="f" horiz-adv-x="317" 
d="M101 0v400h-81v72h81v112c0 98 54 143 140 143c32 0 62 -5 77 -10v-73c-7 2 -32 10 -57 10c-40 0 -62 -24 -62 -73v-109h115v-72h-115v-400h-98z" />
    <glyph glyph-name="g" unicode="g" horiz-adv-x="556" 
d="M252 -244c-78 0 -150 26 -182 50v85c32 -22 95 -58 174 -58c101 0 152 53 152 156v54c-37 -34 -81 -50 -139 -50c-138 0 -216 96 -216 238s85 253 217 253c70 0 109 -26 149 -67c3 27 7 44 10 55h82c0 -12 -5 -54 -5 -111v-372c0 -151 -95 -233 -242 -233zM276 66
c52 0 92 23 120 54v230c-16 18 -52 59 -119 59c-84 0 -136 -68 -136 -178c0 -106 46 -165 135 -165z" />
    <glyph glyph-name="gcircumflex" unicode="&#x11d;" horiz-adv-x="556" 
d="M355 561l-77 86l-76 -86h-81l99 147h116l99 -147h-80zM252 -244c-78 0 -150 26 -182 50v85c32 -22 95 -58 174 -58c101 0 152 53 152 156v54c-37 -34 -81 -50 -139 -50c-138 0 -216 96 -216 238s85 253 217 253c70 0 109 -26 149 -67c3 27 7 44 10 55h82
c0 -12 -5 -54 -5 -111v-372c0 -151 -95 -233 -242 -233zM276 66c52 0 92 23 120 54v230c-16 18 -52 59 -119 59c-84 0 -136 -68 -136 -178c0 -106 46 -165 135 -165z" />
    <glyph glyph-name="gbreve" unicode="&#x11f;" horiz-adv-x="556" 
d="M278 556c-95 0 -147 65 -147 152h77c0 -51 27 -78 70 -78s70 27 70 78h77c0 -87 -52 -152 -147 -152zM252 -244c-78 0 -150 26 -182 50v85c32 -22 95 -58 174 -58c101 0 152 53 152 156v54c-37 -34 -81 -50 -139 -50c-138 0 -216 96 -216 238s85 253 217 253
c70 0 109 -26 149 -67c3 27 7 44 10 55h82c0 -12 -5 -54 -5 -111v-372c0 -151 -95 -233 -242 -233zM276 66c52 0 92 23 120 54v230c-16 18 -52 59 -119 59c-84 0 -136 -68 -136 -178c0 -106 46 -165 135 -165z" />
    <glyph glyph-name="gdotaccent" unicode="&#x121;" horiz-adv-x="556" 
d="M278 568c-35 0 -60 24 -60 60c0 34 25 59 60 59c34 0 60 -25 60 -59c0 -36 -27 -60 -60 -60zM252 -244c-78 0 -150 26 -182 50v85c32 -22 95 -58 174 -58c101 0 152 53 152 156v54c-37 -34 -81 -50 -139 -50c-138 0 -216 96 -216 238s85 253 217 253
c70 0 109 -26 149 -67c3 27 7 44 10 55h82c0 -12 -5 -54 -5 -111v-372c0 -151 -95 -233 -242 -233zM276 66c52 0 92 23 120 54v230c-16 18 -52 59 -119 59c-84 0 -136 -68 -136 -178c0 -106 46 -165 135 -165z" />
    <glyph glyph-name="gcommaaccent" unicode="&#x123;" horiz-adv-x="556" 
d="M311 811l30 -31c-37 -31 -62 -77 -62 -106c43 -3 65 -36 65 -67c0 -37 -28 -66 -66 -66c-41 0 -69 34 -69 83c0 57 30 131 102 187zM252 -244c-78 0 -150 26 -182 50v85c32 -22 95 -58 174 -58c101 0 152 53 152 156v54c-37 -34 -81 -50 -139 -50
c-138 0 -216 96 -216 238s85 253 217 253c70 0 109 -26 149 -67c3 27 7 44 10 55h82c0 -12 -5 -54 -5 -111v-372c0 -151 -95 -233 -242 -233zM276 66c52 0 92 23 120 54v230c-16 18 -52 59 -119 59c-84 0 -136 -68 -136 -178c0 -106 46 -165 135 -165z" />
    <glyph glyph-name="h" unicode="h" 
d="M321 484c85 0 159 -50 159 -176v-308h-98v295c0 81 -38 108 -92 108c-49 0 -90 -27 -123 -68v-335h-98v720h97v-319c37 45 84 83 155 83z" />
    <glyph glyph-name="hcircumflex" unicode="&#x125;" 
d="M195 789l-77 86l-76 -86h-81l99 147h116l99 -147h-80zM321 484c85 0 159 -50 159 -176v-308h-98v295c0 81 -38 108 -92 108c-49 0 -90 -27 -123 -68v-335h-98v720h97v-319c37 45 84 83 155 83z" />
    <glyph glyph-name="i" unicode="i" horiz-adv-x="252" 
d="M125 549c-36 0 -63 20 -63 55c0 36 27 58 63 58s64 -22 64 -58c0 -35 -28 -55 -64 -55zM77 0v472h97v-472h-97z" />
    <glyph glyph-name="igrave" unicode="&#xec;" horiz-adv-x="252" 
d="M112 561l-142 147h119l108 -147h-85zM77 0v472h97v-472h-97z" />
    <glyph glyph-name="iacute" unicode="&#xed;" horiz-adv-x="252" 
d="M139 561h-85l108 147h119zM77 0v472h97v-472h-97z" />
    <glyph glyph-name="icircumflex" unicode="&#xee;" horiz-adv-x="252" 
d="M203 561l-77 86l-76 -86h-81l99 147h116l99 -147h-80zM77 0v472h97v-472h-97z" />
    <glyph glyph-name="idieresis" unicode="&#xef;" horiz-adv-x="252" 
d="M41 573c-32 0 -55 23 -55 56c0 31 23 56 55 56c30 0 53 -25 53 -56c0 -33 -24 -56 -53 -56zM212 573c-32 0 -54 23 -54 56c0 31 22 56 54 56c30 0 54 -25 54 -56c0 -33 -24 -56 -54 -56zM77 0v472h97v-472h-97z" />
    <glyph glyph-name="itilde" unicode="&#x129;" horiz-adv-x="252" 
d="M137 667c16 -17 27 -32 46 -32c21 0 31 20 31 56h69c0 -83 -36 -131 -95 -131c-38 0 -55 16 -72 33c-16 17 -27 31 -45 31c-20 0 -31 -19 -31 -56h-69c0 87 36 131 95 131c36 0 55 -16 71 -32zM77 0v472h97v-472h-97z" />
    <glyph glyph-name="imacron" unicode="&#x12b;" horiz-adv-x="252" 
d="M262 664v-78h-272v78h272zM77 0v472h97v-472h-97z" />
    <glyph glyph-name="ibreve" unicode="&#x12d;" horiz-adv-x="252" 
d="M126 556c-95 0 -147 65 -147 152h77c0 -51 27 -78 70 -78s70 27 70 78h77c0 -87 -52 -152 -147 -152zM77 0v472h97v-472h-97z" />
    <glyph glyph-name="iogonek" unicode="&#x12f;" horiz-adv-x="252" 
d="M126 549c-36 0 -63 20 -63 55c0 36 27 58 63 58s64 -22 64 -58c0 -35 -28 -55 -64 -55zM78 0v472h97v-472h-10c-47 -34 -72 -78 -72 -126c0 -36 24 -54 64 -54c23 0 40 7 52 12v-59c-14 -8 -36 -17 -72 -17c-79 0 -125 34 -125 103c0 56 32 108 77 141h-11z" />
    <glyph glyph-name="j" unicode="j" horiz-adv-x="252" 
d="M125 549c-36 0 -63 20 -63 55c0 36 27 58 63 58s64 -22 64 -58c0 -35 -28 -55 -64 -55zM32 -244c-27 0 -55 6 -59 8v73c4 -2 23 -6 39 -6c43 0 65 20 65 71v570h97v-571c0 -103 -49 -145 -142 -145z" />
    <glyph glyph-name="jcircumflex" unicode="&#x135;" horiz-adv-x="252" 
d="M202 561l-77 86l-76 -86h-81l99 147h116l99 -147h-80zM32 -244c-27 0 -55 6 -59 8v73c4 -2 23 -6 39 -6c43 0 65 20 65 71v570h97v-571c0 -103 -49 -145 -142 -145z" />
    <glyph glyph-name="k" unicode="k" horiz-adv-x="499" 
d="M366 472h113l-174 -186l189 -286h-114l-138 218l-75 -80v-138h-98v720h98v-478z" />
    <glyph glyph-name="kcommaaccent" unicode="&#x137;" horiz-adv-x="499" 
d="M366 472h113l-174 -186l189 -286h-114l-138 218l-75 -80v-138h-98v720h98v-478zM232 -332l-30 32c37 30 62 77 62 105c-43 3 -65 36 -65 67c0 37 28 66 66 66c41 0 69 -33 69 -82c0 -57 -30 -131 -102 -188z" />
    <glyph glyph-name="l" unicode="l" horiz-adv-x="302" 
d="M211 -8c-98 0 -142 44 -142 151v577h98v-578c0 -52 21 -74 70 -74c21 0 44 5 50 7v-72c-8 -3 -39 -11 -76 -11z" />
    <glyph glyph-name="lacute" unicode="&#x13a;" horiz-adv-x="302" 
d="M134 789h-85l108 147h119zM211 -8c-98 0 -142 44 -142 151v577h98v-578c0 -52 21 -74 70 -74c21 0 44 5 50 7v-72c-8 -3 -39 -11 -76 -11z" />
    <glyph glyph-name="lcommaaccent" unicode="&#x13c;" horiz-adv-x="302" 
d="M211 -8c-98 0 -142 44 -142 151v577h98v-578c0 -52 21 -74 70 -74c21 0 44 5 50 7v-72c-8 -3 -39 -11 -76 -11zM148 -332l-30 32c37 30 62 77 62 105c-43 3 -65 36 -65 67c0 37 28 66 66 66c41 0 69 -33 69 -82c0 -57 -30 -131 -102 -188z" />
    <glyph glyph-name="lcaron" unicode="&#x13e;" horiz-adv-x="357" 
d="M211 -8c-98 0 -142 44 -142 151v577h98v-578c0 -52 21 -74 70 -74c21 0 44 5 50 7v-72c-8 -3 -39 -11 -76 -11zM338 503h-71l18 217h98z" />
    <glyph glyph-name="m" unicode="m" horiz-adv-x="828" 
d="M762 310v-310h-98v296c0 81 -32 107 -86 107c-52 0 -89 -33 -115 -73v-330h-96v298c0 80 -34 105 -84 105c-46 0 -87 -29 -116 -68v-335h-98v361c0 55 -5 99 -7 111h90c2 -8 9 -35 12 -73c35 41 74 85 152 85c74 0 116 -33 137 -92c36 53 83 92 152 92
c98 0 157 -58 157 -174z" />
    <glyph glyph-name="n" unicode="n" 
d="M69 0v360c0 56 -5 100 -7 112h90c2 -8 9 -35 12 -73c37 44 84 85 157 85c85 0 159 -50 159 -176v-308h-98v295c0 81 -38 108 -92 108c-49 0 -90 -27 -123 -68v-335h-98z" />
    <glyph glyph-name="ntilde" unicode="&#xf1;" 
d="M288 667c16 -17 27 -32 46 -32c21 0 31 20 31 56h69c0 -83 -36 -131 -95 -131c-38 0 -55 16 -72 33c-16 17 -27 31 -45 31c-20 0 -31 -19 -31 -56h-69c0 87 36 131 95 131c36 0 55 -16 71 -32zM69 0v360c0 56 -5 100 -7 112h90c2 -8 9 -35 12 -73c37 44 84 85 157 85
c85 0 159 -50 159 -176v-308h-98v295c0 81 -38 108 -92 108c-49 0 -90 -27 -123 -68v-335h-98z" />
    <glyph glyph-name="nacute" unicode="&#x144;" 
d="M290 561h-85l108 147h119zM69 0v360c0 56 -5 100 -7 112h90c2 -8 9 -35 12 -73c37 44 84 85 157 85c85 0 159 -50 159 -176v-308h-98v295c0 81 -38 108 -92 108c-49 0 -90 -27 -123 -68v-335h-98z" />
    <glyph glyph-name="ncommaaccent" unicode="&#x146;" 
d="M69 0v360c0 56 -5 100 -7 112h90c2 -8 9 -35 12 -73c37 44 84 85 157 85c85 0 159 -50 159 -176v-308h-98v295c0 81 -38 108 -92 108c-49 0 -90 -27 -123 -68v-335h-98zM240 -332l-30 32c37 30 62 77 62 105c-43 3 -65 36 -65 67c0 37 28 66 66 66c41 0 69 -33 69 -82
c0 -57 -30 -131 -102 -188z" />
    <glyph glyph-name="ncaron" unicode="&#x148;" 
d="M354 708h80l-99 -147h-116l-99 147h81l76 -86zM69 0v360c0 56 -5 100 -7 112h90c2 -8 9 -35 12 -73c37 44 84 85 157 85c85 0 159 -50 159 -176v-308h-98v295c0 81 -38 108 -92 108c-49 0 -90 -27 -123 -68v-335h-98z" />
    <glyph glyph-name="o" unicode="o" horiz-adv-x="554" 
d="M278 -12c-146 0 -239 106 -239 250c0 150 94 246 239 246c143 0 237 -96 237 -246c0 -144 -92 -250 -237 -250zM278 67c83 0 136 73 136 171c0 104 -54 167 -136 167c-83 0 -138 -63 -138 -167c0 -98 54 -171 138 -171z" />
    <glyph glyph-name="ograve" unicode="&#xf2;" horiz-adv-x="554" 
d="M265 561l-142 147h119l108 -147h-85zM278 -12c-146 0 -239 106 -239 250c0 150 94 246 239 246c143 0 237 -96 237 -246c0 -144 -92 -250 -237 -250zM278 67c83 0 136 73 136 171c0 104 -54 167 -136 167c-83 0 -138 -63 -138 -167c0 -98 54 -171 138 -171z" />
    <glyph glyph-name="oacute" unicode="&#xf3;" horiz-adv-x="554" 
d="M291 561h-85l108 147h119zM278 -12c-146 0 -239 106 -239 250c0 150 94 246 239 246c143 0 237 -96 237 -246c0 -144 -92 -250 -237 -250zM278 67c83 0 136 73 136 171c0 104 -54 167 -136 167c-83 0 -138 -63 -138 -167c0 -98 54 -171 138 -171z" />
    <glyph glyph-name="ocircumflex" unicode="&#xf4;" horiz-adv-x="554" 
d="M355 561l-77 86l-76 -86h-81l99 147h116l99 -147h-80zM278 -12c-146 0 -239 106 -239 250c0 150 94 246 239 246c143 0 237 -96 237 -246c0 -144 -92 -250 -237 -250zM278 67c83 0 136 73 136 171c0 104 -54 167 -136 167c-83 0 -138 -63 -138 -167
c0 -98 54 -171 138 -171z" />
    <glyph glyph-name="otilde" unicode="&#xf5;" horiz-adv-x="554" 
d="M289 667c16 -17 27 -32 46 -32c21 0 31 20 31 56h69c0 -83 -36 -131 -95 -131c-38 0 -55 16 -72 33c-16 17 -27 31 -45 31c-20 0 -31 -19 -31 -56h-69c0 87 36 131 95 131c36 0 55 -16 71 -32zM278 -12c-146 0 -239 106 -239 250c0 150 94 246 239 246
c143 0 237 -96 237 -246c0 -144 -92 -250 -237 -250zM278 67c83 0 136 73 136 171c0 104 -54 167 -136 167c-83 0 -138 -63 -138 -167c0 -98 54 -171 138 -171z" />
    <glyph glyph-name="odieresis" unicode="&#xf6;" horiz-adv-x="554" 
d="M189 571c-33 0 -56 24 -56 57c0 31 23 55 56 55c31 0 56 -24 56 -55c0 -33 -25 -57 -56 -57zM368 571c-33 0 -56 24 -56 57c0 31 23 55 56 55c32 0 56 -24 56 -55c0 -33 -25 -57 -56 -57zM278 -12c-146 0 -239 106 -239 250c0 150 94 246 239 246c143 0 237 -96 237 -246
c0 -144 -92 -250 -237 -250zM278 67c83 0 136 73 136 171c0 104 -54 167 -136 167c-83 0 -138 -63 -138 -167c0 -98 54 -171 138 -171z" />
    <glyph glyph-name="omacron" unicode="&#x14d;" horiz-adv-x="554" 
d="M414 664v-78h-272v78h272zM278 -12c-146 0 -239 106 -239 250c0 150 94 246 239 246c143 0 237 -96 237 -246c0 -144 -92 -250 -237 -250zM278 67c83 0 136 73 136 171c0 104 -54 167 -136 167c-83 0 -138 -63 -138 -167c0 -98 54 -171 138 -171z" />
    <glyph glyph-name="obreve" unicode="&#x14f;" horiz-adv-x="554" 
d="M278 556c-95 0 -147 65 -147 152h77c0 -51 27 -78 70 -78s70 27 70 78h77c0 -87 -52 -152 -147 -152zM278 -12c-146 0 -239 106 -239 250c0 150 94 246 239 246c143 0 237 -96 237 -246c0 -144 -92 -250 -237 -250zM278 67c83 0 136 73 136 171c0 104 -54 167 -136 167
c-83 0 -138 -63 -138 -167c0 -98 54 -171 138 -171z" />
    <glyph glyph-name="ohungarumlaut" unicode="&#x151;" horiz-adv-x="554" 
d="M204 561h-82l107 147h117zM383 561h-83l108 147h116zM278 -12c-146 0 -239 106 -239 250c0 150 94 246 239 246c143 0 237 -96 237 -246c0 -144 -92 -250 -237 -250zM278 67c83 0 136 73 136 171c0 104 -54 167 -136 167c-83 0 -138 -63 -138 -167
c0 -98 54 -171 138 -171z" />
    <glyph glyph-name="p" unicode="p" horiz-adv-x="558" 
d="M64 -234v586c0 57 -5 108 -6 120h83s9 -25 12 -57c40 41 80 69 149 69c132 0 215 -100 215 -244c0 -143 -86 -251 -219 -251c-62 0 -101 20 -136 54v-277h-98zM275 59c89 0 141 69 141 181c0 111 -51 169 -139 169c-48 0 -85 -24 -115 -55v-236c30 -34 64 -59 113 -59z
" />
    <glyph glyph-name="q" unicode="q" horiz-adv-x="558" 
d="M398 -234v278c-38 -36 -82 -55 -141 -55c-138 0 -216 96 -216 242c0 142 85 253 217 253c70 0 109 -24 148 -64c3 30 10 52 10 52h85c-2 -12 -7 -62 -7 -119v-587h-96zM276 62c52 0 92 26 120 57v231c-16 18 -52 59 -119 59c-84 0 -136 -68 -136 -178
c0 -109 46 -169 135 -169z" />
    <glyph glyph-name="r" unicode="r" horiz-adv-x="367" 
d="M69 0v360c0 51 -4 92 -7 112h90c3 -9 10 -38 12 -68c27 40 72 80 127 80c29 0 51 -8 62 -13v-86c-13 7 -37 16 -71 16c-44 0 -86 -19 -115 -55v-346h-98z" />
    <glyph glyph-name="racute" unicode="&#x155;" horiz-adv-x="367" 
d="M227 561h-85l108 147h119zM69 0v360c0 51 -4 92 -7 112h90c3 -9 10 -38 12 -68c27 40 72 80 127 80c29 0 51 -8 62 -13v-86c-13 7 -37 16 -71 16c-44 0 -86 -19 -115 -55v-346h-98z" />
    <glyph glyph-name="rcommaaccent" unicode="&#x157;" horiz-adv-x="367" 
d="M69 0v360c0 51 -4 92 -7 112h90c3 -9 10 -38 12 -68c27 40 72 80 127 80c29 0 51 -8 62 -13v-86c-13 7 -37 16 -71 16c-44 0 -86 -19 -115 -55v-346h-98zM85 -332l-30 32c37 30 62 77 62 105c-43 3 -65 36 -65 67c0 37 28 66 66 66c41 0 69 -33 69 -82
c0 -57 -30 -131 -102 -188z" />
    <glyph glyph-name="rcaron" unicode="&#x159;" horiz-adv-x="367" 
d="M291 708h80l-99 -147h-116l-99 147h81l76 -86zM69 0v360c0 51 -4 92 -7 112h90c3 -9 10 -38 12 -68c27 40 72 80 127 80c29 0 51 -8 62 -13v-86c-13 7 -37 16 -71 16c-44 0 -86 -19 -115 -55v-346h-98z" />
    <glyph glyph-name="s" unicode="s" horiz-adv-x="414" 
d="M190 -12c-61 0 -116 17 -148 35v80c42 -28 98 -45 146 -45c60 0 93 22 93 66c0 47 -56 61 -114 85c-75 31 -118 70 -118 141c0 82 71 134 169 134c60 0 106 -15 133 -31v-77c-33 23 -83 37 -129 37c-51 0 -78 -21 -78 -57c0 -43 39 -55 98 -80c73 -31 134 -65 134 -146
c0 -86 -70 -142 -186 -142z" />
    <glyph glyph-name="sacute" unicode="&#x15b;" horiz-adv-x="414" 
d="M221 561h-85l108 147h119zM190 -12c-61 0 -116 17 -148 35v80c42 -28 98 -45 146 -45c60 0 93 22 93 66c0 47 -56 61 -114 85c-75 31 -118 70 -118 141c0 82 71 134 169 134c60 0 106 -15 133 -31v-77c-33 23 -83 37 -129 37c-51 0 -78 -21 -78 -57c0 -43 39 -55 98 -80
c73 -31 134 -65 134 -146c0 -86 -70 -142 -186 -142z" />
    <glyph glyph-name="scircumflex" unicode="&#x15d;" horiz-adv-x="414" 
d="M285 561l-77 86l-76 -86h-81l99 147h116l99 -147h-80zM190 -12c-61 0 -116 17 -148 35v80c42 -28 98 -45 146 -45c60 0 93 22 93 66c0 47 -56 61 -114 85c-75 31 -118 70 -118 141c0 82 71 134 169 134c60 0 106 -15 133 -31v-77c-33 23 -83 37 -129 37
c-51 0 -78 -21 -78 -57c0 -43 39 -55 98 -80c73 -31 134 -65 134 -146c0 -86 -70 -142 -186 -142z" />
    <glyph glyph-name="scedilla" unicode="&#x15f;" horiz-adv-x="414" 
d="M154 -182c33 0 54 14 54 37c0 34 -38 43 -97 43l49 91c-49 5 -91 19 -118 34v80c42 -28 98 -45 146 -45c60 0 93 22 93 66c0 47 -56 61 -114 85c-75 31 -118 70 -118 141c0 82 71 134 169 134c60 0 106 -15 133 -31v-77c-33 23 -83 37 -129 37c-51 0 -78 -21 -78 -57
c0 -43 39 -55 98 -80c73 -31 134 -65 134 -146c0 -76 -55 -129 -148 -140l-29 -48c57 -8 89 -39 89 -85c0 -61 -48 -97 -125 -97c-39 0 -68 9 -74 13v56c10 -3 34 -11 65 -11z" />
    <glyph glyph-name="scaron" unicode="&#x161;" horiz-adv-x="414" 
d="M285 708h80l-99 -147h-116l-99 147h81l76 -86zM190 -12c-61 0 -116 17 -148 35v80c42 -28 98 -45 146 -45c60 0 93 22 93 66c0 47 -56 61 -114 85c-75 31 -118 70 -118 141c0 82 71 134 169 134c60 0 106 -15 133 -31v-77c-33 23 -83 37 -129 37c-51 0 -78 -21 -78 -57
c0 -43 39 -55 98 -80c73 -31 134 -65 134 -146c0 -86 -70 -142 -186 -142z" />
    <glyph glyph-name="scommaaccent" unicode="&#x219;" horiz-adv-x="414" 
d="M190 -12c-61 0 -116 17 -148 35v80c42 -28 98 -45 146 -45c60 0 93 22 93 66c0 47 -56 61 -114 85c-75 31 -118 70 -118 141c0 82 71 134 169 134c60 0 106 -15 133 -31v-77c-33 23 -83 37 -129 37c-51 0 -78 -21 -78 -57c0 -43 39 -55 98 -80c73 -31 134 -65 134 -146
c0 -86 -70 -142 -186 -142zM165 -332l-30 32c37 30 62 77 62 105c-43 3 -65 36 -65 67c0 37 28 66 66 66c41 0 69 -33 69 -82c0 -57 -30 -131 -102 -188z" />
    <glyph glyph-name="t" unicode="t" horiz-adv-x="356" 
d="M249 -12c-98 0 -148 45 -148 151v261h-86v72h86v106l98 18v-124h124v-72h-124v-258c0 -57 23 -77 73 -77c23 0 42 4 55 9v-74c-16 -6 -42 -12 -78 -12z" />
    <glyph glyph-name="tcaron" unicode="&#x165;" horiz-adv-x="356" 
d="M336 529h-71l18 217h98zM249 -12c-98 0 -148 45 -148 151v261h-86v72h86v106l98 18v-124h124v-72h-124v-258c0 -57 23 -77 73 -77c23 0 42 4 55 9v-74c-16 -6 -42 -12 -78 -12z" />
    <glyph glyph-name="tcommaaccent" unicode="&#x21b;" horiz-adv-x="356" 
d="M249 -12c-98 0 -148 45 -148 151v261h-86v72h86v106l98 18v-124h124v-72h-124v-258c0 -57 23 -77 73 -77c23 0 42 4 55 9v-74c-16 -6 -42 -12 -78 -12zM179 -332l-30 32c37 30 62 77 62 105c-43 3 -65 36 -65 67c0 37 28 66 66 66c41 0 69 -33 69 -82
c0 -57 -30 -131 -102 -188z" />
    <glyph glyph-name="u" unicode="u" 
d="M226 -12c-88 0 -160 48 -160 174v310h97v-295c0 -81 36 -109 93 -109c48 0 91 27 123 69v335h98v-361c0 -55 5 -99 6 -111h-89c-3 7 -10 33 -13 73c-36 -44 -83 -85 -155 -85z" />
    <glyph glyph-name="ugrave" unicode="&#xf9;" 
d="M259 561l-142 147h119l108 -147h-85zM226 -12c-88 0 -160 48 -160 174v310h97v-295c0 -81 36 -109 93 -109c48 0 91 27 123 69v335h98v-361c0 -55 5 -99 6 -111h-89c-3 7 -10 33 -13 73c-36 -44 -83 -85 -155 -85z" />
    <glyph glyph-name="uacute" unicode="&#xfa;" 
d="M285 561h-85l108 147h119zM226 -12c-88 0 -160 48 -160 174v310h97v-295c0 -81 36 -109 93 -109c48 0 91 27 123 69v335h98v-361c0 -55 5 -99 6 -111h-89c-3 7 -10 33 -13 73c-36 -44 -83 -85 -155 -85z" />
    <glyph glyph-name="ucircumflex" unicode="&#xfb;" 
d="M349 561l-77 86l-76 -86h-81l99 147h116l99 -147h-80zM226 -12c-88 0 -160 48 -160 174v310h97v-295c0 -81 36 -109 93 -109c48 0 91 27 123 69v335h98v-361c0 -55 5 -99 6 -111h-89c-3 7 -10 33 -13 73c-36 -44 -83 -85 -155 -85z" />
    <glyph glyph-name="udieresis" unicode="&#xfc;" 
d="M183 571c-33 0 -56 24 -56 57c0 31 23 55 56 55c31 0 56 -24 56 -55c0 -33 -25 -57 -56 -57zM362 571c-33 0 -56 24 -56 57c0 31 23 55 56 55c32 0 56 -24 56 -55c0 -33 -25 -57 -56 -57zM226 -12c-88 0 -160 48 -160 174v310h97v-295c0 -81 36 -109 93 -109
c48 0 91 27 123 69v335h98v-361c0 -55 5 -99 6 -111h-89c-3 7 -10 33 -13 73c-36 -44 -83 -85 -155 -85z" />
    <glyph glyph-name="utilde" unicode="&#x169;" 
d="M283 667c16 -17 27 -32 46 -32c21 0 31 20 31 56h69c0 -83 -36 -131 -95 -131c-38 0 -55 16 -72 33c-16 17 -27 31 -45 31c-20 0 -31 -19 -31 -56h-69c0 87 36 131 95 131c36 0 55 -16 71 -32zM226 -12c-88 0 -160 48 -160 174v310h97v-295c0 -81 36 -109 93 -109
c48 0 91 27 123 69v335h98v-361c0 -55 5 -99 6 -111h-89c-3 7 -10 33 -13 73c-36 -44 -83 -85 -155 -85z" />
    <glyph glyph-name="umacron" unicode="&#x16b;" 
d="M408 664v-78h-272v78h272zM226 -12c-88 0 -160 48 -160 174v310h97v-295c0 -81 36 -109 93 -109c48 0 91 27 123 69v335h98v-361c0 -55 5 -99 6 -111h-89c-3 7 -10 33 -13 73c-36 -44 -83 -85 -155 -85z" />
    <glyph glyph-name="ubreve" unicode="&#x16d;" 
d="M272 556c-95 0 -147 65 -147 152h77c0 -51 27 -78 70 -78s70 27 70 78h77c0 -87 -52 -152 -147 -152zM226 -12c-88 0 -160 48 -160 174v310h97v-295c0 -81 36 -109 93 -109c48 0 91 27 123 69v335h98v-361c0 -55 5 -99 6 -111h-89c-3 7 -10 33 -13 73
c-36 -44 -83 -85 -155 -85z" />
    <glyph glyph-name="uring" unicode="&#x16f;" 
d="M272 533c-65 0 -108 49 -108 108c0 60 43 107 108 107s108 -47 108 -107c0 -59 -43 -108 -108 -108zM272 590c27 0 47 22 47 51c0 28 -20 52 -47 52s-47 -24 -47 -52c0 -29 20 -51 47 -51zM226 -12c-88 0 -160 48 -160 174v310h97v-295c0 -81 36 -109 93 -109
c48 0 91 27 123 69v335h98v-361c0 -55 5 -99 6 -111h-89c-3 7 -10 33 -13 73c-36 -44 -83 -85 -155 -85z" />
    <glyph glyph-name="uhungarumlaut" unicode="&#x171;" 
d="M198 561h-82l107 147h117zM377 561h-83l108 147h116zM226 -12c-88 0 -160 48 -160 174v310h97v-295c0 -81 36 -109 93 -109c48 0 91 27 123 69v335h98v-361c0 -55 5 -99 6 -111h-89c-3 7 -10 33 -13 73c-36 -44 -83 -85 -155 -85z" />
    <glyph glyph-name="uogonek" unicode="&#x173;" 
d="M226 -12c-88 0 -160 48 -160 174v310h97v-295c0 -81 36 -109 93 -109c48 0 91 27 123 69v335h98v-361c0 -55 5 -99 6 -111h-9c-53 -38 -79 -82 -79 -129c0 -34 17 -51 47 -51c18 0 30 3 40 9v-59c-12 -8 -30 -14 -59 -14c-70 0 -109 34 -109 101c0 54 31 108 86 143h-6
c-3 7 -10 33 -13 73c-36 -44 -83 -85 -155 -85z" />
    <glyph glyph-name="v" unicode="v" horiz-adv-x="471" 
d="M211 -4l-206 476h102l131 -324l128 324h101l-205 -476h-51z" />
    <glyph glyph-name="w" unicode="w" horiz-adv-x="724" 
d="M187 -4l-182 476h101l110 -314l124 314h47l126 -314l108 314h99l-182 -476h-48l-127 322l-128 -322h-48z" />
    <glyph glyph-name="wcircumflex" unicode="&#x175;" horiz-adv-x="724" 
d="M439 561l-77 86l-76 -86h-81l99 147h116l99 -147h-80zM187 -4l-182 476h101l110 -314l124 314h47l126 -314l108 314h99l-182 -476h-48l-127 322l-128 -322h-48z" />
    <glyph glyph-name="wgrave" unicode="&#x1e81;" horiz-adv-x="724" 
d="M349 561l-142 147h119l108 -147h-85zM187 -4l-182 476h101l110 -314l124 314h47l126 -314l108 314h99l-182 -476h-48l-127 322l-128 -322h-48z" />
    <glyph glyph-name="wacute" unicode="&#x1e83;" horiz-adv-x="724" 
d="M375 561h-85l108 147h119zM187 -4l-182 476h101l110 -314l124 314h47l126 -314l108 314h99l-182 -476h-48l-127 322l-128 -322h-48z" />
    <glyph glyph-name="wdieresis" unicode="&#x1e85;" horiz-adv-x="724" 
d="M273 571c-33 0 -56 24 -56 57c0 31 23 55 56 55c31 0 56 -24 56 -55c0 -33 -25 -57 -56 -57zM452 571c-33 0 -56 24 -56 57c0 31 23 55 56 55c32 0 56 -24 56 -55c0 -33 -25 -57 -56 -57zM187 -4l-182 476h101l110 -314l124 314h47l126 -314l108 314h99l-182 -476h-48
l-127 322l-128 -322h-48z" />
    <glyph glyph-name="x" unicode="x" horiz-adv-x="483" 
d="M8 0l181 245l-168 227h111l111 -159l110 159h109l-169 -227l182 -245h-110l-125 176l-124 -176h-108z" />
    <glyph glyph-name="y" unicode="y" horiz-adv-x="471" 
d="M36 -244c-23 0 -42 3 -55 10v78c13 -6 27 -8 51 -8c71 0 113 61 146 149l18 46l-191 441h103l135 -333l124 333h100l-197 -491c-58 -145 -117 -225 -234 -225z" />
    <glyph glyph-name="yacute" unicode="&#xfd;" horiz-adv-x="471" 
d="M253 561h-85l108 147h119zM36 -244c-23 0 -42 3 -55 10v78c13 -6 27 -8 51 -8c71 0 113 61 146 149l18 46l-191 441h103l135 -333l124 333h100l-197 -491c-58 -145 -117 -225 -234 -225z" />
    <glyph glyph-name="ydieresis" unicode="&#xff;" horiz-adv-x="471" 
d="M151 571c-33 0 -56 24 -56 57c0 31 23 55 56 55c31 0 56 -24 56 -55c0 -33 -25 -57 -56 -57zM330 571c-33 0 -56 24 -56 57c0 31 23 55 56 55c32 0 56 -24 56 -55c0 -33 -25 -57 -56 -57zM36 -244c-23 0 -42 3 -55 10v78c13 -6 27 -8 51 -8c71 0 113 61 146 149l18 46
l-191 441h103l135 -333l124 333h100l-197 -491c-58 -145 -117 -225 -234 -225z" />
    <glyph glyph-name="ycircumflex" unicode="&#x177;" horiz-adv-x="471" 
d="M317 561l-77 86l-76 -86h-81l99 147h116l99 -147h-80zM36 -244c-23 0 -42 3 -55 10v78c13 -6 27 -8 51 -8c71 0 113 61 146 149l18 46l-191 441h103l135 -333l124 333h100l-197 -491c-58 -145 -117 -225 -234 -225z" />
    <glyph glyph-name="ygrave" unicode="&#x1ef3;" horiz-adv-x="471" 
d="M227 561l-142 147h119l108 -147h-85zM36 -244c-23 0 -42 3 -55 10v78c13 -6 27 -8 51 -8c71 0 113 61 146 149l18 46l-191 441h103l135 -333l124 333h100l-197 -491c-58 -145 -117 -225 -234 -225z" />
    <glyph glyph-name="z" unicode="z" horiz-adv-x="432" 
d="M32 0v41l237 359h-228v72h355v-41l-238 -360h248v-71h-374z" />
    <glyph glyph-name="zacute" unicode="&#x17a;" horiz-adv-x="432" 
d="M228 561h-85l108 147h119zM32 0v41l237 359h-228v72h355v-41l-238 -360h248v-71h-374z" />
    <glyph glyph-name="zdotaccent" unicode="&#x17c;" horiz-adv-x="432" 
d="M217 568c-35 0 -60 24 -60 60c0 34 25 59 60 59c34 0 60 -25 60 -59c0 -36 -27 -60 -60 -60zM32 0v41l237 359h-228v72h355v-41l-238 -360h248v-71h-374z" />
    <glyph glyph-name="zcaron" unicode="&#x17e;" horiz-adv-x="432" 
d="M295 708h80l-99 -147h-116l-99 147h81l76 -86zM32 0v41l237 359h-228v72h355v-41l-238 -360h248v-71h-374z" />
    <glyph glyph-name="ordfeminine" unicode="&#xaa;" horiz-adv-x="444" 
d="M179 354c-68 0 -113 41 -113 108c0 63 53 112 142 112c26 0 46 -4 65 -10v27c0 44 -22 67 -76 67c-48 0 -86 -19 -104 -27v59c17 9 61 24 117 24c89 0 137 -38 137 -115v-148c0 -32 10 -46 26 -46c7 0 13 3 17 5v-46c-4 -3 -19 -8 -44 -8c-32 0 -59 12 -67 49
c-25 -34 -53 -51 -100 -51zM200 410c33 0 60 18 73 43v65c-13 5 -29 8 -51 8c-55 0 -80 -28 -80 -62c0 -35 21 -54 58 -54zM65 220v53h324v-53h-324z" />
    <glyph glyph-name="ordmasculine" unicode="&#xba;" horiz-adv-x="465" 
d="M231 353c-104 0 -170 77 -170 182c0 109 67 179 170 179c105 0 173 -70 173 -179c0 -105 -68 -182 -173 -182zM231 414c60 0 98 51 98 121c0 73 -39 118 -98 118c-57 0 -94 -45 -94 -118c0 -70 37 -121 94 -121zM65 218v55h335v-55h-335z" />
    <glyph glyph-name="germandbls" unicode="&#xdf;" horiz-adv-x="570" 
d="M290 654c-61 0 -91 -42 -91 -124v-530h-98v400h-81v72h81v59c0 124 63 196 189 196c119 0 189 -64 189 -161c0 -64 -39 -108 -86 -124v-1c88 -18 136 -101 136 -201c0 -148 -97 -240 -256 -240v80c103 0 157 59 157 160c0 110 -60 160 -155 160v72c72 0 105 39 105 92
c0 54 -33 90 -90 90z" />
    <glyph glyph-name="ae" unicode="&#xe6;" horiz-adv-x="791" 
d="M563 -12c-90 0 -158 35 -199 95c-39 -55 -94 -91 -175 -91c-92 0 -153 56 -153 148c0 84 73 149 194 149c35 0 65 -4 92 -14v40c0 64 -31 98 -108 98c-66 0 -118 -24 -141 -36v76c21 12 82 31 158 31c75 0 130 -20 161 -60c39 38 92 60 155 60c125 0 207 -89 207 -215
c0 -19 -2 -44 -2 -49h-332c5 -97 53 -156 155 -156c58 0 110 16 155 49v-76c-44 -33 -104 -49 -167 -49zM421 284h239c2 76 -41 129 -117 129c-68 0 -114 -54 -122 -129zM135 142c0 -51 31 -79 84 -79c47 0 86 25 117 77c-8 24 -13 50 -15 78c-18 7 -41 11 -73 11
c-77 0 -113 -38 -113 -87z" />
    <glyph glyph-name="eth" unicode="&#xf0;" horiz-adv-x="557" 
d="M259 508l-34 52l67 44c-22 21 -44 39 -67 53l40 55c34 -17 65 -38 94 -64l71 47l36 -56l-61 -39c69 -83 113 -196 113 -332c0 -177 -98 -280 -240 -280c-145 0 -237 105 -237 246c0 146 91 239 227 239c59 0 105 -22 135 -50c-15 50 -39 95 -68 133zM278 67
c83 0 136 71 136 167c0 101 -54 163 -136 163c-83 0 -138 -62 -138 -163c0 -96 54 -167 138 -167z" />
    <glyph glyph-name="oslash" unicode="&#xf8;" horiz-adv-x="554" 
d="M35 0l59 72c-35 43 -55 100 -55 166c0 150 94 246 239 246c49 0 92 -12 127 -35l19 23h95l-57 -69c34 -42 53 -98 53 -165c0 -144 -92 -250 -237 -250c-50 0 -94 13 -128 37l-21 -25h-94zM140 238c0 -32 6 -64 17 -90l194 236c-20 14 -45 21 -73 21
c-83 0 -138 -64 -138 -167zM278 67c83 0 136 73 136 171c0 33 -5 63 -16 88l-194 -235c20 -15 45 -24 74 -24z" />
    <glyph glyph-name="thorn" unicode="&#xfe;" horiz-adv-x="563" 
d="M69 -234v954h97v-297c38 37 77 61 141 61c130 0 213 -100 213 -244c0 -143 -86 -251 -217 -251c-62 0 -101 20 -136 54v-277h-98zM280 59c89 0 141 69 141 181c0 111 -51 169 -139 169c-48 0 -85 -24 -115 -55v-236c30 -34 64 -59 113 -59z" />
    <glyph glyph-name="dcroat" unicode="&#x111;" horiz-adv-x="557" 
d="M249 -11c-129 0 -208 97 -208 241c0 146 87 254 217 254c62 0 102 -22 138 -57v126h-131v75h131v92h98v-92h76v-75h-76v-434c0 -55 4 -107 5 -119h-83s-7 24 -10 55c-39 -41 -88 -66 -157 -66zM276 62c50 0 90 24 120 57v233c-18 19 -56 57 -118 57
c-87 0 -137 -67 -137 -177c0 -113 48 -170 135 -170z" />
    <glyph glyph-name="dotlessi" unicode="&#x131;" horiz-adv-x="252" 
d="M77 0v472h97v-472h-97z" />
    <glyph glyph-name="lslash" unicode="&#x142;" horiz-adv-x="342" 
d="M245 -8c-98 0 -142 44 -142 151v143l-84 -32v85l84 32v349h98v-313l97 37v-85l-97 -37v-180c0 -52 21 -74 70 -74c21 0 44 5 50 7v-72c-8 -3 -39 -11 -76 -11z" />
    <glyph glyph-name="oe" unicode="&#x153;" horiz-adv-x="892" 
d="M278 -12c-146 0 -239 106 -239 250c0 150 94 246 239 246c80 0 144 -30 186 -82c40 51 103 82 180 82c127 0 211 -88 211 -215c0 -19 -2 -44 -2 -49h-338c-1 -5 -1 -10 -2 -15c10 -88 60 -141 158 -141c60 0 114 16 160 49v-76c-45 -33 -107 -49 -171 -49
c-86 0 -154 31 -197 85c-41 -53 -105 -85 -185 -85zM514 284h246c2 76 -42 129 -120 129c-71 0 -119 -54 -126 -129zM278 67c76 0 127 61 135 146c-1 8 -1 16 -1 24c0 9 0 17 1 25c-8 90 -60 143 -135 143c-83 0 -138 -63 -138 -167c0 -98 54 -171 138 -171z" />
    <glyph glyph-name="dotlessj" unicode="&#x237;" horiz-adv-x="252" 
d="M32 -244c-27 0 -55 6 -59 8v73c4 -2 23 -6 39 -6c43 0 65 20 65 71v570h97v-571c0 -103 -49 -145 -142 -145z" />
    <glyph glyph-name="mu" unicode="&#xb5;" horiz-adv-x="573" 
d="M164 -234h-98v706h98v-295c0 -81 36 -109 93 -109c48 0 91 27 123 69v335h98v-341c0 -52 17 -70 52 -70c13 0 23 2 30 7v-65c-6 -4 -29 -13 -64 -13c-65 0 -97 31 -111 84c-37 -43 -85 -86 -158 -86c-18 0 -42 2 -63 14v-236z" />
    <glyph glyph-name="mu" unicode="&#x3bc;" horiz-adv-x="573" 
d="M164 -234h-98v706h98v-295c0 -81 36 -109 93 -109c48 0 91 27 123 69v335h98v-341c0 -52 17 -70 52 -70c13 0 23 2 30 7v-65c-6 -4 -29 -13 -64 -13c-65 0 -97 31 -111 84c-37 -43 -85 -86 -158 -86c-18 0 -42 2 -63 14v-236z" />
    <glyph glyph-name="pi" unicode="&#x3c0;" horiz-adv-x="613" 
d="M540 61c17 0 30 2 38 7v-65c-6 -4 -30 -13 -68 -13c-81 0 -125 44 -125 131v279h-178v-401h-99v401h-88v72h561v-72h-98v-269c0 -52 19 -70 57 -70z" />
    <glyph glyph-name="gravecmb" unicode="&#x300;" horiz-adv-x="0" 
d="M-13 551l-142 147h119l108 -147h-85z" />
    <glyph glyph-name="acutecmb" unicode="&#x301;" horiz-adv-x="0" 
d="M13 551h-85l108 147h119z" />
    <glyph glyph-name="circumflexcmb" unicode="&#x302;" horiz-adv-x="0" 
d="M77 551l-77 86l-76 -86h-81l99 147h116l99 -147h-80z" />
    <glyph glyph-name="tildecmb" unicode="&#x303;" horiz-adv-x="0" 
d="M2 668c16 -17 27 -32 46 -32c21 0 31 20 31 56h69c0 -83 -36 -131 -95 -131c-38 0 -55 16 -72 33c-16 17 -27 31 -45 31c-20 0 -31 -19 -31 -56h-69c0 87 36 131 95 131c36 0 55 -16 71 -32z" />
    <glyph glyph-name="macroncmb" unicode="&#x304;" horiz-adv-x="0" 
d="M136 654v-78h-272v78h272z" />
    <glyph glyph-name="brevecmb" unicode="&#x306;" horiz-adv-x="0" 
d="M0 546c-95 0 -147 65 -147 152h77c0 -51 27 -78 70 -78s70 27 70 78h77c0 -87 -52 -152 -147 -152z" />
    <glyph glyph-name="dotaccentcmb" unicode="&#x307;" horiz-adv-x="0" 
d="M0 558c-35 0 -60 24 -60 60c0 34 25 59 60 59c34 0 60 -25 60 -59c0 -36 -27 -60 -60 -60z" />
    <glyph glyph-name="dieresiscmb" unicode="&#x308;" horiz-adv-x="0" 
d="M-89 561c-33 0 -56 24 -56 57c0 31 23 55 56 55c31 0 56 -24 56 -55c0 -33 -25 -57 -56 -57zM90 561c-33 0 -56 24 -56 57c0 31 23 55 56 55c32 0 56 -24 56 -55c0 -33 -25 -57 -56 -57z" />
    <glyph glyph-name="ringcmb" unicode="&#x30a;" horiz-adv-x="0" 
d="M0 523c-65 0 -108 49 -108 108c0 60 43 107 108 107s108 -47 108 -107c0 -59 -43 -108 -108 -108zM0 580c27 0 47 22 47 51c0 28 -20 52 -47 52s-47 -24 -47 -52c0 -29 20 -51 47 -51z" />
    <glyph glyph-name="hungarumlautcmb" unicode="&#x30b;" horiz-adv-x="0" 
d="M-74 551h-82l107 147h117zM105 551h-83l108 147h116z" />
    <glyph glyph-name="caroncmb" unicode="&#x30c;" horiz-adv-x="0" 
d="M77 698h80l-99 -147h-116l-99 147h81l76 -86z" />
    <glyph glyph-name="commaturnedabovecmb" unicode="&#x312;" horiz-adv-x="0" 
d="M33 811l30 -31c-37 -31 -62 -77 -62 -106c43 -3 65 -36 65 -67c0 -37 -28 -66 -66 -66c-41 0 -69 34 -69 83c0 57 30 131 102 187z" />
    <glyph glyph-name="commabelowcmb" unicode="&#x326;" horiz-adv-x="0" 
d="M-33 -332l-30 32c37 30 62 77 62 105c-43 3 -65 36 -65 67c0 37 28 66 66 66c41 0 69 -33 69 -82c0 -57 -30 -131 -102 -188z" />
    <glyph glyph-name="cedillacmb" unicode="&#x327;" horiz-adv-x="0" 
d="M-44 -182c33 0 54 14 54 37c0 34 -38 43 -97 43l55 102h68l-35 -58c57 -8 89 -39 89 -85c0 -61 -48 -97 -125 -97c-39 0 -68 9 -74 13v56c10 -3 34 -11 65 -11z" />
    <glyph glyph-name="ogonekcmb" unicode="&#x328;" horiz-adv-x="0" 
d="M13 -244c-79 0 -125 35 -125 103c0 56 32 108 77 141h73c-42 -33 -69 -78 -69 -126c0 -36 24 -54 64 -54c23 0 40 6 52 12v-59c-14 -8 -36 -17 -72 -17z" />
    <glyph glyph-name="zero" unicode="0" horiz-adv-x="596" 
d="M297 -13c-150 0 -252 138 -252 363s102 364 252 364s253 -139 253 -364c0 -224 -103 -363 -253 -363zM297 71c91 0 152 96 152 279s-61 280 -152 280c-90 0 -151 -97 -151 -280s61 -279 151 -279z" />
    <glyph glyph-name="one" unicode="1" horiz-adv-x="325" 
d="M136 0v623h-118v77h213v-700h-95z" />
    <glyph glyph-name="two" unicode="2" horiz-adv-x="502" 
d="M21 0v36l194 230c79 93 121 161 121 232c0 78 -50 132 -131 132c-67 0 -121 -29 -159 -59v91c48 34 108 52 175 52c130 0 216 -87 216 -210c0 -83 -39 -155 -139 -269l-130 -155h295v-80h-442z" />
    <glyph glyph-name="three" unicode="3" horiz-adv-x="485" 
d="M181 -13c-55 0 -115 10 -155 33v88c42 -27 97 -41 146 -41c104 0 169 49 169 141c0 94 -60 146 -192 146h-17v44l161 222h-265v80h392v-37l-178 -244c127 -15 198 -94 198 -211c0 -127 -101 -221 -259 -221z" />
    <glyph glyph-name="four" unicode="4" horiz-adv-x="566" 
d="M354 0v149h-337v47l377 512h53v-484h97v-75h-97v-149h-93zM131 226h223v307z" />
    <glyph glyph-name="five" unicode="5" horiz-adv-x="494" 
d="M195 -13c-57 0 -116 8 -157 33v87c43 -27 96 -40 146 -40c98 0 169 54 169 146c0 94 -61 142 -167 142c-47 0 -101 -12 -124 -21l20 366h347v-80h-267l-12 -198c19 5 45 7 65 7c146 0 235 -81 235 -214c0 -127 -99 -228 -255 -228z" />
    <glyph glyph-name="six" unicode="6" horiz-adv-x="560" 
d="M276 -13c-140 0 -233 90 -233 222c0 76 30 139 89 225c48 70 138 197 190 266h103c-61 -80 -141 -190 -189 -262c12 4 40 9 63 9c125 0 219 -82 219 -225c0 -133 -103 -235 -242 -235zM277 66c80 0 142 64 142 154c0 93 -60 150 -140 150c-84 0 -137 -69 -137 -156
c0 -92 56 -148 135 -148z" />
    <glyph glyph-name="seven" unicode="7" horiz-adv-x="475" 
d="M59 0l298 620h-340v80h450v-36l-307 -664h-101z" />
    <glyph glyph-name="eight" unicode="8" horiz-adv-x="567" 
d="M282 -13c-138 0 -234 83 -234 194c0 96 74 157 163 182c-88 39 -136 94 -136 170c0 110 95 181 215 181c119 0 206 -72 206 -170c0 -83 -64 -143 -139 -172c100 -44 163 -105 163 -190c0 -113 -100 -195 -238 -195zM293 409c58 27 106 67 106 127s-42 105 -108 105
c-71 0 -119 -45 -119 -104c0 -63 54 -99 121 -128zM284 61c83 0 137 51 137 120c0 80 -71 114 -146 146c-62 -25 -128 -70 -128 -144c0 -70 56 -122 137 -122z" />
    <glyph glyph-name="nine" unicode="9" horiz-adv-x="560" 
d="M285 714c140 0 232 -90 232 -222c0 -76 -29 -139 -89 -226c-48 -70 -138 -197 -190 -266h-103c61 80 142 190 190 263c-12 -4 -40 -10 -64 -10c-125 0 -218 85 -218 226c0 133 103 235 242 235zM283 634c-79 0 -141 -63 -141 -154c0 -92 60 -150 141 -150
c82 0 135 70 135 156c0 93 -55 148 -135 148z" />
    <glyph glyph-name="onesuperior" unicode="&#xb9;" horiz-adv-x="243" 
d="M101 328v308h-63v64h138v-372h-75z" />
    <glyph glyph-name="twosuperior" unicode="&#xb2;" horiz-adv-x="349" 
d="M50 328v25l105 126c39 47 56 79 56 112c0 31 -22 51 -57 51c-38 0 -69 -15 -89 -31v69c26 18 59 28 98 28c80 0 124 -45 124 -110c0 -47 -21 -88 -80 -154l-44 -52h136v-64h-249z" />
    <glyph glyph-name="threesuperior" unicode="&#xb3;" horiz-adv-x="336" 
d="M142 322c-37 0 -71 8 -88 19v66c27 -16 56 -22 85 -22c44 0 72 24 72 62s-26 58 -84 58h-17v28l74 103h-129v64h222v-27l-87 -117c64 -9 98 -53 98 -109c0 -72 -57 -125 -146 -125z" />
    <glyph glyph-name="onequarter" unicode="&#xbc;" horiz-adv-x="681" 
d="M95 0l344 700h86l-345 -700h-85zM101 328v308h-63v64h138v-372h-75zM497 0v72h-168v34l208 270h35v-240h47v-64h-47v-72h-75zM497 136v108l-84 -108h84z" />
    <glyph glyph-name="onehalf" unicode="&#xbd;" horiz-adv-x="743" 
d="M95 0l344 700h86l-345 -700h-85zM101 328v308h-63v64h138v-372h-75zM431 0v25l105 126c39 47 56 79 56 112c0 31 -22 51 -57 51c-38 0 -69 -15 -89 -31v69c26 18 59 28 98 28c80 0 124 -45 124 -110c0 -47 -21 -88 -80 -154l-44 -52h136v-64h-249z" />
    <glyph glyph-name="threequarters" unicode="&#xbe;" horiz-adv-x="768" 
d="M176 0l344 700h86l-345 -700h-85zM142 322c-37 0 -71 8 -88 19v66c27 -16 56 -22 85 -22c44 0 72 24 72 62s-26 58 -84 58h-17v28l74 103h-129v64h222v-27l-87 -117c64 -9 98 -53 98 -109c0 -72 -57 -125 -146 -125zM584 0v72h-168v34l208 270h35v-240h47v-64h-47v-72
h-75zM584 136v108l-84 -108h84z" />
    <glyph glyph-name="underscore" unicode="_" horiz-adv-x="576" 
d="M-14 -137v74h604v-74h-604z" />
    <glyph glyph-name="hyphen" unicode="-" horiz-adv-x="374" 
d="M58 253v87h258v-87h-258z" />
    <glyph glyph-name="hyphen" unicode="&#x2011;" horiz-adv-x="374" 
d="M58 253v87h258v-87h-258z" />
    <glyph glyph-name="hyphen" unicode="&#x2010;" horiz-adv-x="374" 
d="M58 253v87h258v-87h-258z" />
    <glyph glyph-name="hyphen" unicode="&#xad;" horiz-adv-x="374" 
d="M58 253v87h258v-87h-258z" />
    <glyph glyph-name="endash" unicode="&#x2013;" horiz-adv-x="621" 
d="M48 262v79h526v-79h-526z" />
    <glyph glyph-name="emdash" unicode="&#x2014;" horiz-adv-x="1091" 
d="M48 262v79h996v-79h-996z" />
    <glyph glyph-name="parenleft" unicode="(" horiz-adv-x="385" 
d="M249 -145c-101 120 -174 285 -174 467s72 346 173 468h102c-84 -95 -175 -262 -175 -468c0 -205 91 -372 174 -467h-100z" />
    <glyph glyph-name="parenright" unicode=")" horiz-adv-x="385" 
d="M35 -145c84 95 175 262 175 467c0 206 -92 373 -175 468h101c102 -122 174 -286 174 -468s-73 -347 -174 -467h-101z" />
    <glyph glyph-name="bracketleft" unicode="[" horiz-adv-x="406" 
d="M115 -145v935h238v-77h-137v-781h137v-77h-238z" />
    <glyph glyph-name="bracketright" unicode="]" horiz-adv-x="406" 
d="M53 -145v77h137v781h-137v77h238v-935h-238z" />
    <glyph glyph-name="braceleft" unicode="{" horiz-adv-x="395" 
d="M336 -145c-147 2 -206 41 -206 129c0 66 34 148 34 214c0 63 -39 90 -109 92v66c70 2 109 28 109 91c0 66 -34 148 -34 214c0 88 59 127 206 129v-69c-77 -2 -104 -25 -104 -75c0 -57 30 -139 30 -198c0 -66 -37 -113 -100 -121v-9c64 -9 100 -55 100 -121
c0 -59 -30 -140 -30 -198c0 -55 36 -73 104 -74v-70z" />
    <glyph glyph-name="braceright" unicode="}" horiz-adv-x="407" 
d="M65 -145v70c68 1 104 19 104 74c0 58 -30 139 -30 198c0 66 36 112 99 121v9c-62 8 -99 55 -99 121c0 59 30 141 30 198c0 50 -27 73 -104 75v69c147 -2 205 -41 205 -129c0 -66 -34 -148 -34 -214c0 -63 40 -89 110 -91v-66c-70 -2 -110 -29 -110 -92
c0 -66 34 -148 34 -214c0 -88 -58 -127 -205 -129z" />
    <glyph glyph-name="numbersign" unicode="#" horiz-adv-x="657" 
d="M128 0l25 192h-101v72h110l23 172h-102v72h111l25 192h75l-25 -192h160l26 192h74l-25 -192h101v-72h-110l-23 -172h101v-72h-110l-25 -192h-75l25 192h-160l-26 -192h-74zM237 264h160l23 172h-160z" />
    <glyph glyph-name="percent" unicode="%" horiz-adv-x="920" 
d="M245 -14l347 728h84l-348 -728h-83zM218 306c-98 0 -171 84 -171 196c0 113 73 198 171 198c96 0 170 -85 170 -198c0 -112 -74 -196 -170 -196zM218 377c53 0 88 51 88 125c0 75 -35 126 -88 126c-54 0 -89 -51 -89 -126c0 -74 35 -125 89 -125zM703 0
c-97 0 -170 76 -170 197c0 113 73 197 170 197s171 -75 171 -197c0 -121 -74 -197 -171 -197zM703 71c54 0 89 52 89 126c0 75 -35 126 -89 126c-53 0 -88 -51 -88 -126c0 -74 35 -126 88 -126z" />
    <glyph glyph-name="perthousand" unicode="&#x2030;" horiz-adv-x="1329" 
d="M245 -14l347 728h84l-348 -728h-83zM218 306c-98 0 -171 84 -171 196c0 113 73 198 171 198c96 0 170 -85 170 -198c0 -112 -74 -196 -170 -196zM218 377c53 0 88 51 88 125c0 75 -35 126 -88 126c-54 0 -89 -51 -89 -126c0 -74 35 -125 89 -125zM1111 0
c-97 0 -170 76 -170 197c0 113 73 197 170 197c98 0 171 -75 171 -197c0 -121 -73 -197 -171 -197zM703 0c-97 0 -170 76 -170 197c0 113 73 197 170 197s171 -75 171 -197c0 -121 -74 -197 -171 -197zM1111 71c54 0 89 52 89 126c0 75 -35 126 -89 126
c-53 0 -88 -51 -88 -126c0 -74 35 -126 88 -126zM703 71c54 0 89 52 89 126c0 75 -35 126 -89 126c-53 0 -88 -51 -88 -126c0 -74 35 -126 88 -126z" />
    <glyph glyph-name="quotesingle" unicode="'" horiz-adv-x="206" 
d="M62 436l-10 280h102l-10 -280h-82z" />
    <glyph glyph-name="quotedbl" unicode="&#x22;" horiz-adv-x="403" 
d="M341 436h-82l-10 280h102zM144 436h-82l-10 280h102z" />
    <glyph glyph-name="quoteleft" unicode="&#x2bb;" horiz-adv-x="226" 
d="M148 723l31 -34c-39 -32 -66 -82 -66 -112c46 -3 69 -37 69 -70c0 -39 -29 -69 -69 -69c-44 0 -73 34 -73 86c0 60 31 139 108 199z" />
    <glyph glyph-name="quoteleft" unicode="&#x2018;" horiz-adv-x="226" 
d="M148 723l31 -34c-39 -32 -66 -82 -66 -112c46 -3 69 -37 69 -70c0 -39 -29 -69 -69 -69c-44 0 -73 34 -73 86c0 60 31 139 108 199z" />
    <glyph glyph-name="quoteright" unicode="&#x2bc;" horiz-adv-x="226" 
d="M78 437l-31 34c39 32 66 82 66 112c-46 3 -69 37 -69 70c0 39 29 69 69 69c44 0 73 -34 73 -86c0 -60 -31 -139 -108 -199z" />
    <glyph glyph-name="quoteright" unicode="&#x2019;" horiz-adv-x="226" 
d="M78 437l-31 34c39 32 66 82 66 112c-46 3 -69 37 -69 70c0 39 29 69 69 69c44 0 73 -34 73 -86c0 -60 -31 -139 -108 -199z" />
    <glyph glyph-name="quotedblleft" unicode="&#x201c;" horiz-adv-x="421" 
d="M148 723l31 -34c-39 -32 -66 -82 -66 -112c46 -3 69 -37 69 -70c0 -39 -29 -69 -69 -69c-44 0 -73 34 -73 86c0 60 31 139 108 199zM343 723l31 -34c-39 -32 -66 -82 -66 -112c46 -3 69 -37 69 -70c0 -39 -29 -69 -69 -69c-44 0 -73 34 -73 86c0 60 31 139 108 199z" />
    <glyph glyph-name="quotedblright" unicode="&#x201d;" horiz-adv-x="421" 
d="M78 437l-31 34c39 32 66 82 66 112c-46 3 -69 37 -69 70c0 39 29 69 69 69c44 0 73 -34 73 -86c0 -60 -31 -139 -108 -199zM273 437l-31 34c39 32 66 82 66 112c-46 3 -69 37 -69 70c0 39 29 69 69 69c44 0 73 -34 73 -86c0 -60 -31 -139 -108 -199z" />
    <glyph glyph-name="quotesinglbase" unicode="&#x201a;" horiz-adv-x="226" 
d="M78 -159l-31 34c39 32 66 82 66 112c-46 3 -69 37 -69 70c0 39 29 69 69 69c44 0 73 -34 73 -86c0 -60 -31 -139 -108 -199z" />
    <glyph glyph-name="quotedblbase" unicode="&#x201e;" horiz-adv-x="421" 
d="M78 -159l-31 34c39 32 66 82 66 112c-46 3 -69 37 -69 70c0 39 29 69 69 69c44 0 73 -34 73 -86c0 -60 -31 -139 -108 -199zM273 -159l-31 34c39 32 66 82 66 112c-46 3 -69 37 -69 70c0 39 29 69 69 69c44 0 73 -34 73 -86c0 -60 -31 -139 -108 -199z" />
    <glyph glyph-name="guilsinglleft" unicode="&#x2039;" horiz-adv-x="368" 
d="M284 56l-224 166v73l224 167v-88l-138 -115l138 -115v-88z" />
    <glyph glyph-name="guilsinglright" unicode="&#x203a;" horiz-adv-x="368" 
d="M84 461l224 -166v-73l-224 -167v88l138 115l-138 115v88z" />
    <glyph glyph-name="asterisk" unicode="*" horiz-adv-x="541" 
d="M180 312l-66 48l102 130l-159 45l23 77l156 -58l-7 166h81l-6 -165l156 57l25 -77l-160 -45l103 -130l-66 -48l-91 138z" />
    <glyph glyph-name="dagger" unicode="&#x2020;" horiz-adv-x="562" 
d="M231 -151l7 560l-183 -6v82l183 -9l-7 238h100l-7 -238l183 9v-82l-183 6l7 -560h-100z" />
    <glyph glyph-name="daggerdbl" unicode="&#x2021;" horiz-adv-x="602" 
d="M251 -151l7 238l-183 -9v82l183 -6l-4 130l4 125l-183 -6v82l183 -9l-7 238h100l-7 -238l183 9v-82l-183 6l4 -125l-4 -130l183 6v-82l-183 9l7 -238h-100z" />
    <glyph glyph-name="period" unicode="." horiz-adv-x="224" 
d="M112 -13c-41 0 -73 30 -73 72s32 73 73 73c42 0 72 -31 72 -73s-30 -72 -72 -72z" />
    <glyph glyph-name="comma" unicode="," horiz-adv-x="224" 
d="M75 -166l-33 35c41 34 69 85 69 116c-47 3 -72 39 -72 74c0 41 30 73 73 73c45 0 75 -37 75 -91c0 -63 -32 -144 -112 -207z" />
    <glyph glyph-name="colon" unicode=":" horiz-adv-x="255" 
d="M128 334c-42 0 -73 31 -73 73s31 72 73 72c41 0 72 -30 72 -72s-31 -73 -72 -73zM128 -13c-42 0 -73 30 -73 72s31 73 73 73c41 0 72 -31 72 -73s-31 -72 -72 -72z" />
    <glyph glyph-name="semicolon" unicode=";" horiz-adv-x="255" 
d="M128 334c-42 0 -73 31 -73 73s31 72 73 72c41 0 72 -30 72 -72s-31 -73 -72 -73zM91 -166l-33 35c40 34 68 85 68 116c-47 3 -71 39 -71 74c0 41 30 73 72 73c46 0 76 -37 76 -91c0 -63 -32 -144 -112 -207z" />
    <glyph glyph-name="ellipsis" unicode="&#x2026;" horiz-adv-x="670" 
d="M112 -13c-41 0 -73 30 -73 72s32 73 73 73c42 0 72 -31 72 -73s-30 -72 -72 -72zM335 -13c-41 0 -73 30 -73 72s32 73 73 73c42 0 72 -31 72 -73s-30 -72 -72 -72zM558 -13c-41 0 -73 30 -73 72s32 73 73 73c42 0 72 -31 72 -73s-30 -72 -72 -72z" />
    <glyph glyph-name="exclam" unicode="!" horiz-adv-x="253" 
d="M83 226l-11 474h110l-12 -474h-87zM55 58c0 41 31 71 72 71s71 -30 71 -71s-30 -71 -71 -71s-72 30 -72 71z" />
    <glyph glyph-name="exclamdown" unicode="&#xa1;" horiz-adv-x="253" 
d="M198 403c0 -41 -31 -71 -72 -71s-71 30 -71 71s30 71 71 71s72 -30 72 -71zM170 235l11 -474h-110l12 474h87z" />
    <glyph glyph-name="question" unicode="?" horiz-adv-x="397" 
d="M117 220c-1 11 -2 20 -2 28c0 81 33 130 67 170c35 41 70 75 70 129c0 67 -44 85 -96 85c-39 0 -78 -14 -112 -30v85c38 17 86 27 134 27c102 0 180 -44 180 -160c0 -73 -38 -115 -77 -156c-40 -42 -79 -90 -79 -164v-14h-85zM158 -13c-41 0 -73 30 -73 72
c0 41 32 71 73 71s72 -30 72 -71c0 -42 -31 -72 -72 -72z" />
    <glyph glyph-name="questiondown" unicode="&#xbf;" horiz-adv-x="367" 
d="M242 474c41 0 73 -30 73 -72c0 -41 -32 -71 -73 -71s-72 30 -72 71c0 42 31 72 72 72zM283 241c1 -11 2 -20 2 -28c0 -81 -33 -130 -67 -170c-35 -41 -70 -75 -70 -129c0 -67 44 -85 96 -85c39 0 78 14 112 30v-85c-38 -17 -86 -27 -134 -27c-102 0 -180 44 -180 160
c0 73 38 115 77 156c40 42 79 90 79 164v14h85z" />
    <glyph glyph-name="slash" unicode="/" horiz-adv-x="357" 
d="M15 -74l237 848h90l-237 -848h-90z" />
    <glyph glyph-name="backslash" unicode="\" horiz-adv-x="357" 
d="M252 -74l-237 848h90l237 -848h-90z" />
    <glyph glyph-name="fraction" unicode="&#x2044;" horiz-adv-x="416" 
d="M-7 0l344 700h86l-345 -700h-85z" />
    <glyph glyph-name="fraction" unicode="&#x2215;" horiz-adv-x="416" 
d="M-7 0l344 700h86l-345 -700h-85z" />
    <glyph glyph-name="bar" unicode="|" horiz-adv-x="328" 
d="M115 -170v980h98v-980h-98z" />
    <glyph glyph-name="brokenbar" unicode="&#xa6;" horiz-adv-x="328" 
d="M213 379h-98v431h98v-431zM115 -170v431h98v-431h-98z" />
    <glyph glyph-name="at" unicode="@" horiz-adv-x="922" 
d="M438 -102c-223 0 -374 148 -374 372c0 254 174 443 428 443c217 0 366 -151 366 -353c0 -159 -85 -269 -205 -269c-69 0 -100 32 -112 57c-23 -23 -65 -48 -118 -48c-90 0 -147 62 -147 180c0 131 76 234 177 233c37 0 74 -16 99 -50l5 46h74l-27 -286
c-5 -47 18 -67 57 -67c67 0 116 78 116 201c0 168 -118 286 -288 286c-202 0 -344 -155 -344 -370c0 -185 119 -303 301 -303c67 0 127 16 178 46l35 -62c-65 -36 -138 -56 -221 -56zM442 172c38 0 67 17 85 36l19 191c-19 29 -48 43 -79 43c-68 0 -109 -72 -109 -154
c0 -70 27 -116 84 -116z" />
    <glyph glyph-name="ampersand" unicode="&#x26;" horiz-adv-x="645" 
d="M582 340c-11 -72 -33 -138 -65 -192l131 -148h-127l-64 74c-54 -58 -120 -87 -204 -87c-132 0 -215 74 -215 182c0 87 52 148 153 209c-54 65 -77 111 -77 163c0 94 73 173 186 173c108 0 178 -67 178 -157c0 -86 -68 -145 -153 -193l128 -144c15 35 26 75 32 120h97z
M216 543c0 -41 19 -75 57 -120c69 41 104 78 104 131c0 45 -32 78 -77 78c-51 0 -84 -40 -84 -89zM143 179c0 -65 49 -109 122 -109c53 0 100 23 137 66l-160 183c-64 -40 -99 -81 -99 -140z" />
    <glyph glyph-name="section" unicode="&#xa7;" horiz-adv-x="511" 
d="M455 -69c0 -103 -85 -175 -220 -175c-70 0 -129 18 -166 38v94c41 -25 97 -48 158 -48c75 0 121 30 121 89c0 62 -70 90 -140 123c-79 36 -151 85 -151 189c0 61 36 111 91 150c-56 35 -91 78 -91 148c0 103 85 175 220 175c70 0 129 -18 166 -38v-94
c-41 25 -97 48 -158 48c-75 0 -121 -30 -121 -89c0 -62 69 -91 140 -123c79 -36 151 -84 151 -189c0 -61 -36 -111 -91 -150c56 -35 91 -78 91 -148zM281 121c45 25 72 60 72 106c0 59 -52 91 -122 122c-44 -25 -72 -60 -72 -106c0 -59 52 -91 122 -122z" />
    <glyph glyph-name="paragraph" unicode="&#xb6;" horiz-adv-x="683" 
d="M314 -234v470h-14c-157 0 -248 95 -248 232s91 232 248 232h309v-934h-103v857h-89v-857h-103z" />
    <glyph glyph-name="litre" unicode="&#x2113;" horiz-adv-x="418" 
d="M193 -14c-104 0 -138 100 -138 224c0 256 95 520 225 520c64 0 92 -44 92 -100c0 -127 -110 -278 -220 -361c-2 -24 -4 -47 -4 -71c0 -87 20 -158 84 -158c53 0 84 34 100 48l21 -24c-57 -61 -116 -78 -160 -78zM158 336c70 70 158 193 158 282c0 21 -7 46 -22 49
c-54 0 -119 -204 -136 -331z" />
    <glyph glyph-name="periodcentered" unicode="&#xb7;" horiz-adv-x="224" 
d="M112 295c-41 0 -73 30 -73 72s32 73 73 73c42 0 72 -31 72 -73s-30 -72 -72 -72z" />
    <glyph glyph-name="periodcentered" unicode="&#x2219;" horiz-adv-x="224" 
d="M112 295c-41 0 -73 30 -73 72s32 73 73 73c42 0 72 -31 72 -73s-30 -72 -72 -72z" />
    <glyph glyph-name="bullet" unicode="&#x2022;" horiz-adv-x="395" 
d="M197 206c-69 0 -122 53 -122 122s53 124 122 124s124 -55 124 -124s-55 -122 -124 -122z" />
    <glyph glyph-name="plus" unicode="+" horiz-adv-x="605" 
d="M262 615h79v-218h200v-77h-200v-219h-79v219h-198v77h198v218z" />
    <glyph glyph-name="minus" unicode="&#x2212;" horiz-adv-x="605" 
d="M64 397h477v-77h-477v77z" />
    <glyph glyph-name="plusminus" unicode="&#xb1;" horiz-adv-x="605" 
d="M262 627h79v-210h200v-77h-200v-211h-79v211h-198v77h198v210zM64 77h477v-77h-477v77z" />
    <glyph glyph-name="divide" unicode="&#xf7;" horiz-adv-x="604" 
d="M302 489c-38 0 -65 28 -65 66c0 37 27 64 65 64s65 -27 65 -64c0 -38 -27 -66 -65 -66zM59 320v77h486v-77h-486zM302 98c-38 0 -65 27 -65 65s27 65 65 65s65 -27 65 -65s-27 -65 -65 -65z" />
    <glyph glyph-name="multiply" unicode="&#xd7;" horiz-adv-x="605" 
d="M513 203l-55 -55l-157 157l-157 -157l-54 53l158 158l-158 157l55 55l157 -158l158 158l53 -54l-157 -157z" />
    <glyph glyph-name="equal" unicode="=" horiz-adv-x="605" 
d="M537 480v-76h-469v76h469zM537 298v-77h-469v77h469z" />
    <glyph glyph-name="less" unicode="&#x3c;" horiz-adv-x="605" 
d="M541 199v-87l-477 209v75l477 208v-87l-373 -158z" />
    <glyph glyph-name="greater" unicode="&#x3e;" horiz-adv-x="605" 
d="M64 517v87l477 -209v-75l-477 -208v87l373 158z" />
    <glyph glyph-name="lessequal" unicode="&#x2264;" horiz-adv-x="605" 
d="M541 227v-87l-477 203v75l477 202v-87l-373 -152zM64 77h477v-77h-477v77z" />
    <glyph glyph-name="greaterequal" unicode="&#x2265;" horiz-adv-x="605" 
d="M64 533v87l477 -202v-76l-477 -202v87l373 153zM64 77h477v-77h-477v77z" />
    <glyph glyph-name="approxequal" unicode="&#x2248;" horiz-adv-x="605" 
d="M408 435c33 0 57 29 62 78h75c-5 -78 -45 -150 -135 -150c-104 0 -144 108 -212 108c-35 0 -59 -31 -63 -83h-75c3 82 43 155 134 155c100 0 140 -108 214 -108zM408 239c33 0 57 29 62 78h75c-5 -78 -45 -150 -135 -150c-104 0 -144 108 -212 108c-35 0 -59 -31 -63 -83
h-75c3 82 43 155 134 155c100 0 140 -108 214 -108z" />
    <glyph glyph-name="notequal" unicode="&#x2260;" horiz-adv-x="605" 
d="M275 114h-75l31 107h-163v77h185l30 106h-215v76h236l31 107h75l-31 -107h158v-76h-179l-30 -106h209v-77h-231z" />
    <glyph glyph-name="logicalnot" unicode="&#xac;" horiz-adv-x="605" 
d="M64 397h477v-296h-79v219h-398v77z" />
    <glyph glyph-name="partialdiff" unicode="&#x2202;" horiz-adv-x="592" 
d="M544 430c0 -246 -123 -443 -315 -443c-120 0 -204 86 -204 203c0 121 93 238 244 238c76 0 131 -39 167 -105c5 33 8 68 8 106c0 136 -48 207 -120 207c-58 0 -106 -44 -128 -110h-85c27 117 115 188 224 188c133 0 209 -107 209 -284zM122 190c0 -74 48 -125 113 -125
c78 0 146 66 182 175c-35 66 -80 108 -150 108c-73 0 -145 -60 -145 -158z" />
    <glyph glyph-name="product" unicode="&#x220f;" horiz-adv-x="746" 
d="M126 -120v740h-99v80h692v-80h-100v-740h-107v740h-279v-740h-107z" />
    <glyph glyph-name="summation" unicode="&#x2211;" horiz-adv-x="498" 
d="M-5 -120v35l216 390l-206 359v36h464v-79h-326l180 -316l-192 -346h353v-79h-489z" />
    <glyph glyph-name="radical" unicode="&#x221a;" horiz-adv-x="700" 
d="M288 -7l-143 338h-95v77h163l95 -239l245 628h97l-322 -804h-40z" />
    <glyph glyph-name="infinity" unicode="&#x221e;" horiz-adv-x="809" 
d="M754 354c0 -91 -75 -161 -161 -161c-67 0 -125 44 -189 107c-59 -57 -114 -106 -189 -106c-86 0 -160 70 -160 162c0 91 73 161 160 161c67 0 128 -44 190 -105c53 52 109 104 188 104c87 0 161 -69 161 -162zM136 356c0 -48 36 -83 79 -83c51 0 93 43 134 82
c-40 41 -83 83 -134 83c-43 0 -79 -35 -79 -82zM593 437c-51 0 -93 -42 -132 -81c39 -41 81 -84 132 -84c43 0 80 36 80 82c0 48 -37 83 -80 83z" />
    <glyph glyph-name="integral" unicode="&#x222b;" horiz-adv-x="317" 
d="M56 -244c-27 0 -55 6 -59 8v73c4 -2 24 -6 40 -6c42 0 64 20 64 71v682c0 98 54 143 140 143c32 0 62 -5 77 -10v-73c-7 2 -32 10 -57 10c-40 0 -62 -24 -62 -73v-680c0 -103 -50 -145 -143 -145z" />
    <glyph glyph-name="dollar" unicode="$" horiz-adv-x="498" 
d="M221 -94v101c-76 1 -144 27 -175 44v93c45 -30 110 -53 175 -53v235c-92 40 -168 90 -168 196c0 95 63 159 168 175v85h74v-82c49 -3 102 -18 133 -35v-93c-32 20 -83 42 -133 46v-223c97 -45 160 -97 160 -196s-68 -164 -160 -186v-107h-74zM154 530
c0 -41 25 -71 67 -98v179c-44 -12 -67 -42 -67 -81zM354 194c0 38 -22 67 -59 92v-182c40 17 59 50 59 90z" />
    <glyph glyph-name="cent" unicode="&#xa2;" horiz-adv-x="482" 
d="M247 644h78v-80c43 -4 82 -16 105 -29v-86c-25 17 -61 35 -105 39v-340c43 4 79 19 105 38v-84c-27 -16 -64 -27 -105 -31v-71h-78v73c-121 18 -199 112 -199 245c0 135 77 225 199 244v82zM150 319c0 -85 34 -143 97 -164v325c-64 -21 -97 -79 -97 -161z" />
    <glyph glyph-name="sterling" unicode="&#xa3;" horiz-adv-x="497" 
d="M86 -11l-40 66c19 12 117 69 117 168c0 32 -8 60 -18 89h-101v69h77c-10 34 -19 73 -19 120c0 132 89 213 215 213c71 0 121 -23 131 -32v-85c-17 11 -62 36 -120 36c-74 0 -123 -45 -123 -135c0 -47 9 -83 20 -117h181v-69h-160c7 -25 12 -52 12 -84
c0 -87 -48 -117 -62 -134l1 -2c12 5 29 9 51 9c50 0 95 -25 137 -25c52 0 85 19 97 28v-81c-9 -9 -38 -32 -96 -32c-81 0 -114 39 -186 39c-54 0 -102 -33 -114 -41z" />
    <glyph glyph-name="currency" unicode="&#xa4;" horiz-adv-x="609" 
d="M108 82l-53 54l72 72c-25 35 -38 77 -38 124c0 46 13 88 38 123l-72 73l53 54l72 -73c36 25 79 39 125 39c45 0 87 -14 123 -39l73 73l53 -54l-73 -72c26 -37 39 -78 39 -124s-13 -89 -38 -123l72 -73l-53 -54l-73 73c-36 -26 -77 -39 -123 -39s-89 13 -125 38zM305 189
c76 0 131 61 131 143s-55 143 -131 143s-132 -61 -132 -143s56 -143 132 -143z" />
    <glyph glyph-name="yen" unicode="&#xa5;" horiz-adv-x="553" 
d="M61 114v69h164v77h-164v69h138l-207 371h114l171 -322l171 322h114l-209 -371h139v-69h-164v-77h164v-69h-164v-114h-103v114h-164z" />
    <glyph glyph-name="Euro" unicode="&#x20ac;" horiz-adv-x="558" 
d="M22 246v66h70c-1 12 -1 25 -1 38c0 14 0 28 1 41h-70v66h79c30 153 126 257 270 257c56 0 113 -17 150 -44v-94c-39 29 -86 54 -145 54c-87 0 -145 -68 -168 -173h197v-66h-207c-1 -13 -1 -27 -1 -41c0 -13 0 -26 1 -38h207v-66h-198c22 -109 81 -175 170 -175
c59 0 106 27 144 54v-95c-38 -27 -92 -43 -149 -43c-150 0 -245 100 -272 259h-78z" />
    <glyph glyph-name="asciicircum" unicode="^" horiz-adv-x="531" 
d="M55 371l160 343h101l161 -343h-98l-114 259l-112 -259h-98z" />
    <glyph glyph-name="asciitilde" unicode="~" horiz-adv-x="531" 
d="M36 235c3 102 33 190 128 190c52 0 85 -27 112 -53c26 -23 51 -49 88 -49c51 0 61 51 64 103h68c-3 -103 -35 -191 -129 -191c-47 0 -81 22 -106 45c-30 27 -57 57 -94 57c-51 0 -61 -51 -64 -102h-67z" />
    <glyph glyph-name="acute" unicode="&#xb4;" horiz-adv-x="500" 
d="M263 551h-85l108 147h119z" />
    <glyph glyph-name="grave" unicode="`" horiz-adv-x="500" 
d="M230 557l-161 147h136l120 -147h-95z" />
    <glyph glyph-name="hungarumlaut" unicode="&#x2dd;" horiz-adv-x="500" 
d="M176 551h-82l107 147h117zM355 551h-83l108 147h116z" />
    <glyph glyph-name="circumflex" unicode="&#x2c6;" horiz-adv-x="500" 
d="M327 551l-77 86l-76 -86h-81l99 147h116l99 -147h-80z" />
    <glyph glyph-name="caron" unicode="&#x2c7;" horiz-adv-x="500" 
d="M327 698h80l-99 -147h-116l-99 147h81l76 -86z" />
    <glyph glyph-name="breve" unicode="&#x2d8;" horiz-adv-x="500" 
d="M250 546c-95 0 -147 65 -147 152h77c0 -51 27 -78 70 -78s70 27 70 78h77c0 -87 -52 -152 -147 -152z" />
    <glyph glyph-name="tilde" unicode="&#x2dc;" horiz-adv-x="500" 
d="M252 668c16 -17 27 -32 46 -32c21 0 31 20 31 56h69c0 -83 -36 -131 -95 -131c-38 0 -55 16 -72 33c-16 17 -27 31 -45 31c-20 0 -31 -19 -31 -56h-69c0 87 36 131 95 131c36 0 55 -16 71 -32z" />
    <glyph glyph-name="macron" unicode="&#xaf;" horiz-adv-x="500" 
d="M386 654v-78h-272v78h272z" />
    <glyph glyph-name="macron" unicode="&#x2c9;" horiz-adv-x="500" 
d="M386 654v-78h-272v78h272z" />
    <glyph glyph-name="dieresis" unicode="&#xa8;" horiz-adv-x="500" 
d="M161 561c-33 0 -56 24 -56 57c0 31 23 55 56 55c31 0 56 -24 56 -55c0 -33 -25 -57 -56 -57zM340 561c-33 0 -56 24 -56 57c0 31 23 55 56 55c32 0 56 -24 56 -55c0 -33 -25 -57 -56 -57z" />
    <glyph glyph-name="dotaccent" unicode="&#x2d9;" horiz-adv-x="500" 
d="M250 558c-35 0 -60 24 -60 60c0 34 25 59 60 59c34 0 60 -25 60 -59c0 -36 -27 -60 -60 -60z" />
    <glyph glyph-name="ring" unicode="&#x2da;" horiz-adv-x="500" 
d="M250 523c-65 0 -108 49 -108 108c0 60 43 107 108 107s108 -47 108 -107c0 -59 -43 -108 -108 -108zM250 580c27 0 47 22 47 51c0 28 -20 52 -47 52s-47 -24 -47 -52c0 -29 20 -51 47 -51z" />
    <glyph glyph-name="cedilla" unicode="&#xb8;" horiz-adv-x="500" 
d="M206 -182c33 0 54 14 54 37c0 34 -38 43 -97 43l55 102h68l-35 -58c57 -8 89 -39 89 -85c0 -61 -48 -97 -125 -97c-39 0 -68 9 -74 13v56c10 -3 34 -11 65 -11z" />
    <glyph glyph-name="ogonek" unicode="&#x2db;" horiz-adv-x="500" 
d="M263 -244c-79 0 -125 35 -125 103c0 56 32 108 77 141h73c-42 -33 -69 -78 -69 -126c0 -36 24 -54 64 -54c23 0 40 6 52 12v-59c-14 -8 -36 -17 -72 -17z" />
    <glyph glyph-name="copyright" unicode="&#xa9;" horiz-adv-x="860" 
d="M430 -14c-201 0 -364 163 -364 364s163 364 364 364s364 -163 364 -364s-163 -364 -364 -364zM430 53c160 0 287 128 287 297s-127 297 -287 297s-287 -128 -287 -297s127 -297 287 -297zM442 146c-111 0 -194 86 -194 204s83 203 194 203c45 0 81 -11 104 -26v-69
c-28 22 -64 32 -99 32c-74 0 -127 -58 -127 -141c0 -81 53 -140 127 -140c35 0 72 12 99 33v-66c-22 -17 -60 -30 -104 -30z" />
    <glyph glyph-name="registered" unicode="&#xae;" horiz-adv-x="860" 
d="M430 -14c-201 0 -364 163 -364 364s163 364 364 364s364 -163 364 -364s-163 -364 -364 -364zM430 53c159 0 287 129 287 297s-128 297 -287 297s-287 -129 -287 -297s128 -297 287 -297zM308 155v390h121c90 0 141 -53 141 -121c0 -53 -28 -96 -76 -114l108 -155h-76
l-98 144h-53v-144h-67zM375 353h48c48 0 79 27 79 71c0 43 -30 66 -79 66h-48v-137z" />
    <glyph glyph-name="trademark" unicode="&#x2122;" horiz-adv-x="940" 
d="M156 303v333h-130v64h337v-64h-131v-333h-76zM421 302v398h48l165 -225l164 225h48v-398h-73v253l-130 -178h-18l-130 178v-253h-74z" />
    <glyph glyph-name="servicemark" unicode="&#x2120;" horiz-adv-x="883" 
d="M158 292c-48 0 -87 14 -110 27v68c30 -20 71 -32 106 -32c46 0 71 19 71 52c0 35 -37 52 -82 75c-46 22 -92 51 -92 116c0 63 51 107 132 107c40 0 75 -10 97 -23v-69c-26 16 -60 30 -94 30c-38 0 -63 -15 -63 -44c0 -33 38 -50 77 -68c51 -26 98 -57 98 -122
c0 -69 -58 -117 -140 -117zM364 302v398h48l165 -225l164 225h48v-398h-73v253l-130 -178h-18l-131 178v-253h-73z" />
    <glyph glyph-name="degree" unicode="&#xb0;" horiz-adv-x="381" 
d="M190 403c-87 0 -155 68 -155 155s68 156 155 156s156 -69 156 -156s-69 -155 -156 -155zM190 476c46 0 78 36 78 82c0 47 -32 83 -78 83c-45 0 -78 -36 -78 -83c0 -46 33 -82 78 -82z" />
    <glyph glyph-name="copyrightsound" unicode="&#x2117;" horiz-adv-x="860" 
d="M430 -14c-201 0 -364 163 -364 364s163 364 364 364s364 -163 364 -364s-163 -364 -364 -364zM430 53c159 0 287 129 287 297s-128 297 -287 297s-287 -129 -287 -297s128 -297 287 -297zM321 155v390h121c90 0 142 -54 142 -124c0 -65 -39 -128 -142 -128h-53v-138h-68z
M389 347h47c49 0 79 28 79 74c0 45 -30 69 -79 69h-47v-143z" />
    <glyph glyph-name="estimated" unicode="&#x212e;" horiz-adv-x="677" 
d="M338 -14c-164 0 -283 115 -283 274s119 274 283 274c159 0 284 -111 284 -283h-439v-166c40 -33 95 -50 155 -50c62 0 118 17 165 66h70c-51 -74 -138 -115 -235 -115zM183 300h311v133c-41 33 -99 51 -156 51s-115 -18 -155 -51v-133z" />
    <glyph glyph-name="uni250C" unicode="&#x250c;" horiz-adv-x="700" 
d="M287 -302v669h426v-94h-329v-575h-97z" />
    <glyph glyph-name="uni2510" unicode="&#x2510;" horiz-adv-x="700" 
d="M316 -302v575h-329v94h426v-669h-97z" />
    <glyph glyph-name="uni2514" unicode="&#x2514;" horiz-adv-x="696" 
d="M287 243v663h97v-569h329v-94h-426z" />
    <glyph glyph-name="uni2518" unicode="&#x2518;" horiz-adv-x="696" 
d="M-16 243v94h328v569h97v-663h-425z" />
    <glyph glyph-name="lozenge" unicode="&#x25ca;" horiz-adv-x="634" 
d="M335 -8h-36l-244 358l244 358h36l244 -358zM317 113l159 237l-159 237l-159 -237z" />
    <glyph glyph-name="Omega" unicode="&#x3a9;" horiz-adv-x="819" 
d="M452 37c130 81 201 175 201 323c0 152 -108 268 -243 268c-138 0 -243 -116 -243 -268c0 -137 66 -235 200 -323v-37h-297v76h130c-79 57 -143 149 -143 284c0 198 154 354 353 354c197 0 353 -156 353 -354c0 -135 -70 -228 -146 -284h132v-76h-297v37z" />
    <glyph glyph-name="Omega" unicode="&#x2126;" horiz-adv-x="819" 
d="M452 37c130 81 201 175 201 323c0 152 -108 268 -243 268c-138 0 -243 -116 -243 -268c0 -137 66 -235 200 -323v-37h-297v76h130c-79 57 -143 149 -143 284c0 198 154 354 353 354c197 0 353 -156 353 -354c0 -135 -70 -228 -146 -284h132v-76h-297v37z" />
    <glyph glyph-name="Eszett" unicode="&#x1e9e;" horiz-adv-x="684" 
d="M411 70c86 0 132 60 132 142c0 108 -79 158 -220 158v66l139 156c-28 23 -66 35 -114 35c-107 0 -164 -58 -164 -185v-442h-106v453c0 170 104 260 272 260c106 0 190 -44 235 -113l-150 -160c149 -21 214 -115 214 -228c0 -130 -89 -225 -232 -225
c-66 0 -117 21 -149 39v93c42 -30 91 -49 143 -49z" />
    <glyph glyph-name="NULL" horiz-adv-x="500" 
 />
    <glyph glyph-name="block" unicode="&#x2588;" horiz-adv-x="706" 
d="M-12 -303v1213h730v-1213h-730z" />
    <glyph glyph-name="commaaccent" unicode="&#xf6c3;" horiz-adv-x="501" 
d="M216 -332l-30 32c37 30 62 77 62 105c-43 3 -65 36 -65 67c0 37 28 66 66 66c41 0 69 -33 69 -82c0 -57 -30 -131 -102 -188z" />
    <glyph glyph-name="florin" unicode="&#x192;" horiz-adv-x="335" 
d="M56 -244c-27 0 -55 6 -59 8v73c4 -2 24 -6 40 -6c42 0 64 20 64 71v498h-81v72h81v112c0 98 54 143 140 143c32 0 62 -5 77 -10v-73c-7 2 -32 10 -57 10c-40 0 -62 -24 -62 -73v-109h115v-72h-115v-499c0 -103 -50 -145 -143 -145z" />
    <glyph glyph-name="foursuperior" unicode="&#x2074;" horiz-adv-x="500" 
d="M262 328v72h-168v34l208 270h35v-240h47v-64h-47v-72h-75zM262 464v108l-84 -108h84z" />
    <glyph glyph-name="guillemotleft" unicode="&#xab;" horiz-adv-x="582" 
d="M284 56l-224 166v73l224 167v-88l-138 -115l138 -115v-88zM498 56l-224 166v73l224 167v-88l-138 -115l138 -115v-88z" />
    <glyph glyph-name="guillemotright" unicode="&#xbb;" horiz-adv-x="582" 
d="M84 462l224 -166v-73l-224 -167v88l138 115l-138 115v88zM298 462l224 -166v-73l-224 -167v88l138 115l-138 115v88z" />
    <glyph glyph-name="musicalnote" unicode="&#x266a;" horiz-adv-x="516" 
d="M151 -15c-72 0 -130 51 -130 113c0 65 58 116 130 116c37 0 71 -11 96 -30v516h45c116 0 203 -70 203 -164v-79h-45v20c0 70 -59 120 -144 120h-13v-487c0 -73 -61 -125 -142 -125z" />
    <glyph glyph-name="musicalnotedbl" unicode="&#x266b;" horiz-adv-x="736" 
d="M151 -62c-73 0 -130 50 -130 112c0 65 57 116 130 116c37 0 71 -11 96 -30v485l391 121v-581c0 -73 -61 -124 -141 -124c-73 0 -131 49 -131 112c0 65 58 116 131 116c36 0 70 -11 95 -30v375l-299 -95v-453c0 -73 -61 -124 -142 -124z" />
    <glyph glyph-name="caroncmb.vert" horiz-adv-x="0" orientation="v" 
d="M25 503h-71l18 217h98z" />
    </font>
</defs>
</svg>
